<svg width="26" height="26" viewBox="0 0 26 26" fill="none" xmlns="http://www.w3.org/2000/svg">
<path d="M13 25.6004C6.03297 25.6004 0.400024 19.9674 0.400024 13.0004C0.400024 6.03333 6.03297 0.400391 13 0.400391C19.9671 0.400391 25.6 6.03333 25.6 13.0004C25.6 19.9674 19.9671 25.6004 13 25.6004ZM13 1.88274C6.84826 1.88274 1.88238 6.84863 1.88238 13.0004C1.88238 19.1522 6.84826 24.118 13 24.118C19.1518 24.118 24.1177 19.1522 24.1177 13.0004C24.1177 6.84863 19.1518 1.88274 13 1.88274Z" fill="#595959"/>
<path d="M6.32947 12.2588H19.6706V13.7411H6.32947V12.2588Z" fill="#595959"/>
<path d="M12.2589 6.3291H13.7412V19.6703H12.2589V6.3291Z" fill="#595959"/>
</svg>
