<svg width="140" height="140" viewBox="0 0 140 140" fill="none" xmlns="http://www.w3.org/2000/svg">
<circle cx="70" cy="70" r="70" fill="#FF1A1A"/>
<circle cx="70" cy="70" r="64.5" stroke="white"/>
<path d="M30.7467 65.7332L32.1587 52.7186L37.1409 53.2592C38.0814 53.3612 38.8469 53.5943 39.4375 53.9584C40.0328 54.3188 40.4575 54.7699 40.7116 55.3119C40.9699 55.8543 41.0642 56.4474 40.9943 57.0914C40.9369 57.6209 40.786 58.0632 40.5417 58.4182C40.2979 58.7689 39.9918 59.0422 39.6234 59.238C39.2549 59.4338 38.8534 59.5595 38.4187 59.6152L38.4049 59.7423C38.8639 59.8178 39.2912 60.0078 39.6869 60.3122C40.0872 60.6128 40.3976 61.0108 40.6182 61.5063C40.8388 62.0017 40.9132 62.5798 40.8415 63.2407C40.7684 63.9143 40.5396 64.5025 40.155 65.0051C39.7708 65.5035 39.2337 65.8717 38.5435 66.1097C37.8533 66.3478 37.0104 66.4128 36.0148 66.3047L30.7467 65.7332ZM33.318 64.019L35.8536 64.2941C36.7094 64.3869 37.3435 64.2907 37.7559 64.0054C38.173 63.7163 38.4097 63.3134 38.4657 62.7965C38.5076 62.411 38.4499 62.0533 38.2928 61.7233C38.1362 61.3891 37.8917 61.114 37.5594 60.8979C37.2276 60.6776 36.818 60.541 36.3308 60.4881L33.7317 60.2061L33.318 64.019ZM33.9158 58.5094L36.248 58.7625C36.6547 58.8066 37.0292 58.7722 37.3715 58.6593C37.7143 58.5422 37.9938 58.3561 38.2101 58.1009C38.4311 57.842 38.5622 57.5219 38.6036 57.1406C38.6583 56.6365 38.5254 56.202 38.2049 55.8372C37.8887 55.4728 37.3832 55.2529 36.6884 55.1775L34.3054 54.919L33.9158 58.5094ZM44.6773 60.5836L47.556 60.8959C48.8015 61.0311 49.7325 61.4385 50.3488 62.1184C50.9652 62.7982 51.2221 63.6298 51.1197 64.6131C51.0461 65.2523 50.8277 65.803 50.4647 66.2651C50.1059 66.7277 49.6188 67.0692 49.0033 67.2896C48.3926 67.5063 47.672 67.5695 46.8417 67.4794L42.4061 66.9982L43.4651 57.2373L45.6829 57.4779L44.8287 65.3515L47.0465 65.5921C47.5464 65.6463 47.9711 65.5638 48.3207 65.3446C48.6707 65.1211 48.8675 64.8081 48.9112 64.4056C48.9571 63.982 48.8336 63.6192 48.5406 63.3174C48.2476 63.0156 47.8511 62.8375 47.3512 62.7833L44.4725 62.471L44.6773 60.5836ZM51.9763 68.0365L53.0354 58.2756L55.3358 58.5252L54.2767 68.2861L51.9763 68.0365ZM65.922 56.0218L66.5614 57.5957C66.2509 57.8106 65.9138 57.9541 65.5503 58.0261C65.1867 58.0981 64.7658 58.1253 64.2876 58.1077C63.8142 58.0863 63.2526 58.0469 62.6031 57.9892C61.8726 57.9271 61.2624 58.0002 60.7726 58.2086C60.2828 58.4169 59.8865 58.7704 59.5838 59.269C59.2815 59.7635 59.0484 60.4111 58.8843 61.212L58.9924 61.2238C59.3622 60.6595 59.8395 60.2505 60.4243 59.9968C61.009 59.743 61.6721 59.6564 62.4135 59.7368C63.2226 59.8246 63.9167 60.0842 64.4957 60.5157C65.0794 60.9433 65.5077 61.5192 65.7807 62.2432C66.0578 62.9676 66.1436 63.8171 66.0378 64.7915C65.9289 65.7955 65.6459 66.6457 65.1889 67.3419C64.7323 68.0339 64.135 68.5413 63.397 68.8642C62.6633 69.1875 61.8219 69.2977 60.8729 69.1947C59.9282 69.0922 59.1286 68.7976 58.4742 68.3108C57.8244 67.8202 57.3528 67.1497 57.0593 66.2991C56.7705 65.4448 56.6907 64.4224 56.8199 63.232L56.915 62.355C57.1642 60.0588 57.778 58.3916 58.7565 57.3533C59.735 56.315 61.0663 55.8765 62.7505 56.0378C63.2513 56.0836 63.6985 56.1299 64.0921 56.1769C64.4898 56.2244 64.8393 56.243 65.1404 56.2328C65.4416 56.2226 65.7021 56.1523 65.922 56.0218ZM61.0856 67.3532C61.5559 67.4042 61.9757 67.3276 62.345 67.1234C62.7148 66.9149 63.0152 66.596 63.2461 66.1667C63.4812 65.7378 63.6321 65.2163 63.6988 64.602C63.7645 63.9962 63.7271 63.4713 63.5867 63.0274C63.4467 62.5793 63.2173 62.2244 62.8985 61.9626C62.5797 61.7008 62.1831 61.5442 61.7086 61.4927C61.3527 61.4541 61.026 61.483 60.7283 61.5793C60.4307 61.6756 60.169 61.8358 59.9432 62.0599C59.7175 62.284 59.5325 62.5661 59.3885 62.9063C59.2444 63.2464 59.1433 63.6448 59.0852 64.1014C58.9855 65.0207 59.1138 65.774 59.4701 66.3614C59.8269 66.9444 60.3654 67.2751 61.0856 67.3532ZM67.0864 73.3794L68.5425 59.9581L70.8048 60.2036L70.6297 61.8177L70.7632 61.8322C70.9075 61.6078 71.1022 61.3739 71.3472 61.1304C71.5927 60.8827 71.9101 60.6836 72.2993 60.5329C72.6891 60.378 73.1699 60.3316 73.7418 60.3937C74.4959 60.4755 75.155 60.742 75.7189 61.1933C76.2876 61.6407 76.7092 62.2587 76.9837 63.0472C77.2629 63.8319 77.3437 64.7665 77.226 65.851C77.1097 66.9229 76.8351 67.8147 76.4021 68.5264C75.9691 69.2381 75.4284 69.7581 74.7798 70.0863C74.1312 70.4146 73.4235 70.5371 72.6567 70.4539C72.0975 70.3933 71.6437 70.2497 71.2954 70.0233C70.947 69.7969 70.6748 69.5402 70.4788 69.2532C70.2875 68.9624 70.1432 68.6917 70.0461 68.4411L69.9508 68.4308L69.3868 73.629L67.0864 73.3794ZM70.269 65.0834C70.2005 65.7146 70.2295 66.2771 70.3559 66.7709C70.4866 67.2652 70.7069 67.6641 71.0169 67.9678C71.3315 68.2677 71.7325 68.4441 72.2197 68.4969C72.7281 68.5521 73.1685 68.4627 73.5411 68.2288C73.9141 67.9907 74.2132 67.6438 74.4384 67.1881C74.6683 66.7287 74.8163 66.194 74.8825 65.5839C74.9482 64.9781 74.9198 64.4306 74.7971 63.9415C74.6744 63.4525 74.456 63.0558 74.1418 62.7517C73.8276 62.4476 73.4142 62.2677 72.9016 62.2121C72.4101 62.1588 71.9788 62.2427 71.6076 62.4639C71.2364 62.6851 70.9366 63.019 70.7081 63.4657C70.4838 63.9129 70.3375 64.4521 70.269 65.0834ZM81.4553 71.4343C80.8368 71.3672 80.2916 71.1966 79.8199 70.9225C79.3528 70.6446 78.9989 70.2719 78.7581 69.8043C78.5216 69.3371 78.4381 68.7837 78.5075 68.144C78.5672 67.5932 78.7183 67.1489 78.9608 66.8108C79.2032 66.4728 79.5119 66.2148 79.887 66.0369C80.2621 65.859 80.6759 65.7388 81.1284 65.6765C81.5857 65.6104 82.0543 65.5776 82.5343 65.5783C83.1127 65.581 83.5823 65.5784 83.9432 65.5704C84.3046 65.5582 84.5713 65.51 84.7433 65.4258C84.92 65.3378 85.0204 65.1836 85.0443 64.9633L85.0484 64.9252C85.1003 64.4465 84.9986 64.0604 84.7433 63.7669C84.4879 63.4735 84.0934 63.2978 83.5596 63.2399C82.9961 63.1787 82.5358 63.2531 82.1787 63.463C81.8259 63.6733 81.5741 63.9396 81.4234 64.2619L79.3086 63.7238C79.5424 63.1491 79.8758 62.6837 80.3087 62.3278C80.7421 61.9676 81.2514 61.7185 81.8364 61.5805C82.422 61.4383 83.0558 61.4042 83.7378 61.4782C84.2081 61.5292 84.6702 61.6351 85.1243 61.7958C85.5784 61.9565 85.9844 62.1849 86.3423 62.4809C86.7007 62.7727 86.973 63.1473 87.1591 63.6047C87.3495 64.0626 87.4095 64.6156 87.3392 65.2638L86.6304 71.7964L84.4189 71.5565L84.5644 70.2157L84.4881 70.2074C84.3189 70.4633 84.0943 70.6962 83.8144 70.9058C83.5392 71.1117 83.2031 71.266 82.8062 71.3687C82.414 71.4676 81.9637 71.4894 81.4553 71.4343ZM82.236 69.8087C82.6978 69.8588 83.1081 69.8112 83.4667 69.6658C83.8259 69.5161 84.1131 69.2987 84.3284 69.0134C84.5479 68.7286 84.6771 68.4062 84.7162 68.0461L84.841 66.8959C84.7626 66.9474 84.6337 66.9891 84.4545 67.0211C84.2795 67.0536 84.0841 67.0773 83.8681 67.0925C83.6521 67.1076 83.4388 67.1188 83.2279 67.1259C83.0171 67.133 82.8343 67.1389 82.6795 67.1436C82.3313 67.1529 82.0159 67.1959 81.7333 67.2724C81.4506 67.3489 81.2206 67.4739 81.0432 67.6476C80.8662 67.817 80.7616 68.0499 80.7294 68.3465C80.6835 68.7701 80.8034 69.1068 81.0892 69.3564C81.375 69.606 81.7573 69.7568 82.236 69.8087ZM88.7048 64.0553L88.9095 62.1679L97.4503 63.0946L97.2455 64.9819L94.0872 64.6393L93.233 72.5128L91.0088 72.2715L91.8631 64.398L88.7048 64.0553ZM100.494 66.6396L103.373 66.952C104.618 67.0871 105.549 67.4946 106.166 68.1744C106.782 68.8542 107.039 69.6858 106.937 70.6691C106.863 71.3084 106.645 71.8591 106.282 72.3212C105.923 72.7838 105.436 73.1252 104.82 73.3457C104.21 73.5623 103.489 73.6256 102.659 73.5355L98.223 73.0542L99.2821 63.2933L101.5 63.534L100.646 71.4075L102.863 71.6481C103.363 71.7024 103.788 71.6198 104.138 71.4006C104.488 71.1771 104.684 70.8641 104.728 70.4617C104.774 70.038 104.651 69.6753 104.358 69.3734C104.065 69.0716 103.668 68.8936 103.168 68.8393L100.289 68.527L100.494 66.6396ZM47.9311 92.5943L48.4441 87.8664L49.2194 87.9505C49.4444 87.8121 49.6418 87.6127 49.8115 87.3525C49.9816 87.0881 50.1316 86.7722 50.2615 86.4048C50.3961 86.0336 50.5185 85.6161 50.6288 85.1523C50.7396 84.6842 50.848 84.1795 50.9539 83.638L51.6044 80.2495L58.6582 81.0148L57.8046 88.882L59.3171 89.0461L58.8041 93.774L56.5799 93.5327L56.8874 90.6985L50.5009 90.0056L50.1934 92.8398L47.9311 92.5943ZM51.5833 88.207L55.6059 88.6434L56.2581 82.6319L53.3985 82.3216L53.0764 83.8683C52.8795 84.8928 52.6711 85.7661 52.4514 86.4881C52.2316 87.21 51.9422 87.783 51.5833 88.207ZM65.066 91.7787C64.1128 91.6753 63.3094 91.376 62.6559 90.8807C62.0024 90.3855 61.5237 89.7399 61.22 88.944C60.9206 88.1485 60.8255 87.2466 60.9349 86.2383C61.0443 85.23 61.3308 84.3674 61.7944 83.6504C62.2622 82.9339 62.8683 82.4039 63.6129 82.0603C64.3574 81.7168 65.2063 81.5967 66.1595 81.7001C67.1127 81.8035 67.9161 82.1029 68.5696 82.5981C69.2231 83.0934 69.6994 83.7409 69.9984 84.5406C70.3016 85.3407 70.3985 86.245 70.2891 87.2532C70.1797 88.2615 69.8914 89.1218 69.424 89.8341C68.9609 90.5468 68.3571 91.075 67.6126 91.4185C66.868 91.7621 66.0192 91.8822 65.066 91.7787ZM65.2786 89.9372C65.7955 89.9933 66.243 89.8983 66.6212 89.6521C66.9998 89.4017 67.3001 89.0443 67.522 88.5797C67.748 88.1156 67.8933 87.587 67.9576 86.9938C68.0224 86.3965 67.9942 85.8469 67.8729 85.3451C67.7563 84.8395 67.5399 84.4239 67.2238 84.0981C66.9077 83.7723 66.4912 83.5814 65.9743 83.5253C65.4447 83.4678 64.9885 83.5641 64.6056 83.814C64.227 84.0644 63.9244 84.4238 63.6978 84.8921C63.476 85.3567 63.3326 85.8877 63.2678 86.485C63.2035 87.0781 63.2298 87.6253 63.3469 88.1267C63.4682 88.6285 63.6869 89.0423 64.003 89.3681C64.3239 89.6901 64.7491 89.8798 65.2786 89.9372ZM77.6241 90.2415L81.2906 83.4704L83.1462 83.6717L78.1409 93.0045L76.5331 92.83L73.7348 82.6506L75.5714 82.8499L77.6241 90.2415ZM74.9931 82.7871L73.9341 92.548L71.7162 92.3074L72.7753 82.5465L74.9931 82.7871ZM80.829 93.2961L81.888 83.5352L84.0867 83.7738L83.0277 93.5347L80.829 93.2961Z" fill="white"/>
</svg>
