<svg width="60" height="60" viewBox="0 0 60 60" fill="none" xmlns="http://www.w3.org/2000/svg">
<rect width="60" height="60" rx="10" fill="#FF1A1A"/>
<path d="M27.675 7.9062C25.4813 8.2062 24.1969 9.16245 23.8688 10.7281L23.8125 10.9718L20.0906 11.0281C16.3594 11.0843 15.0188 11.1781 13.4062 11.5156C11.5406 11.8999 10.3031 12.4999 9.68438 13.3249C9.01875 14.2062 8.95312 14.9562 8.95312 21.9687C8.9625 27.6499 9.0375 30.1156 9.32812 34.4749C9.50625 37.0062 9.54375 37.2968 9.7875 37.6531C10.0688 38.0749 11.1938 38.6187 12.1406 38.7874C12.8813 38.9281 18.1313 39.1249 21.0281 39.1249H22.3125L22.2469 39.3781C21.9563 40.4468 22.725 41.3937 24.15 41.7124L24.8438 41.8624L24.6 42.2468C24.1875 42.9124 23.0063 45.4062 22.6313 46.3906C22.1625 47.6374 22.0969 48.5281 22.4344 49.1562C23.0438 50.3093 24.5531 50.5249 25.6969 49.6156C25.95 49.4093 26.175 49.0906 26.4281 48.5656C26.8406 47.7031 27.9469 44.6093 28.4156 42.9874L28.725 41.9374H29.8594C30.4781 41.9374 31.0781 41.9093 31.1906 41.8812C31.3594 41.8343 31.3969 41.8812 31.4531 42.1437C31.6875 43.2312 33.3375 47.8906 33.7781 48.7156C34.6594 50.3843 36.8531 50.5812 37.6688 49.0624C37.8563 48.6968 37.8844 48.5468 37.8563 47.9374C37.8188 47.3562 37.725 47.0093 37.2656 45.8749C36.6844 44.4031 36.0938 43.1843 35.5219 42.2374C35.325 41.9093 35.1563 41.6281 35.1563 41.6187C35.1563 41.5999 35.325 41.5437 35.5313 41.4781C36 41.3374 36.5531 40.8687 36.7125 40.4656C36.7875 40.2968 36.8438 39.9593 36.8438 39.7062V39.2468L40.0125 39.1812C43.6125 39.1156 46.8094 38.9749 48.0563 38.8437C49.8281 38.6562 50.7563 38.1499 51 37.2499C51.2719 36.2562 50.7938 15.0781 50.4938 14.7781C50.3906 14.6656 50.3344 17.5812 50.2594 26.7499C50.2031 34.6437 50.1562 36.8843 50.0625 37.0812C49.9031 37.4187 49.3406 37.6812 48.5063 37.8031C45.7875 38.2062 25.7531 38.1593 14.625 37.7187C12.7875 37.6531 12.3188 37.6062 11.8219 37.4374C10.9875 37.1562 10.8094 37.0249 10.7531 36.6124C10.6875 36.1906 10.4438 32.5062 10.3031 29.7968C10.1531 26.6843 10.0781 17.5437 10.2094 16.0624C10.3406 14.4499 10.4156 14.1874 10.875 13.7749C11.5031 13.2124 12.3375 12.8843 14.025 12.5468C15.9375 12.1718 17.1469 12.1249 29.3906 11.9843C44.9438 11.8062 46.3875 11.7968 47.3438 11.9281C48.6281 12.1062 49.5375 12.3874 49.9219 12.7156C50.25 12.9968 50.2688 13.0624 50.3531 13.8031C50.4 14.2437 50.4656 14.6187 50.4844 14.6468C50.5125 14.6656 50.5312 14.3093 50.5312 13.8406C50.5312 13.1187 50.5031 12.9499 50.325 12.6781C49.95 12.1249 48.7125 11.6468 46.95 11.3749C46.2656 11.2718 40.4813 11.1124 37.0219 11.1031L35.1844 11.0937L35.0719 10.5874C34.8281 9.47182 33.8344 8.55307 32.3906 8.08432C31.8281 7.9062 31.5 7.87807 30 7.84995C29.0438 7.84057 28.0031 7.85932 27.675 7.9062ZM32.4563 9.30307C33.2625 9.5562 33.9094 10.0062 34.2938 10.5781C34.4625 10.8218 34.5844 11.0468 34.5656 11.0656C34.5469 11.0843 32.25 11.0656 29.4563 11.0374L24.3844 10.9718L24.5156 10.7281C24.5813 10.5968 24.8063 10.3343 25.0031 10.1468C25.9219 9.26557 27.1031 9.02182 30.1406 9.07807C31.5469 9.09682 31.9313 9.13432 32.4563 9.30307ZM24.6844 39.7999C24.7125 40.1281 24.7688 40.4843 24.8063 40.5968C24.8625 40.8031 24.8438 40.8031 24.3656 40.7468C23.3438 40.6437 22.6875 40.1374 22.6875 39.4718V39.2187H23.6625H24.6281L24.6844 39.7999ZM26.8219 39.9687L26.9625 40.7187L26.7 40.7374C26.5594 40.7468 26.3719 40.7562 26.2875 40.7562C26.175 40.7656 26.0813 40.6062 25.9688 40.2031C25.8844 39.8937 25.7625 39.5468 25.7063 39.4249C25.5844 39.2187 25.5938 39.2187 26.1375 39.2187H26.6813L26.8219 39.9687ZM29.25 39.5749C29.25 39.7718 29.3344 40.0906 29.4375 40.2968C29.5406 40.5031 29.625 40.6812 29.625 40.6906C29.625 40.7093 29.3156 40.7187 28.95 40.7187H28.2656L28.0312 39.9687L27.7875 39.2187H28.5188H29.25V39.5749ZM31.275 39.6218C31.275 39.8374 31.35 40.1562 31.4438 40.3156C31.5938 40.6062 31.5938 40.6249 31.4344 40.6249C31.3406 40.6249 31.1156 40.6531 30.9281 40.6812L30.5813 40.7374V40.2593C30.5813 39.9781 30.525 39.6874 30.4313 39.5468C30.3469 39.4249 30.2812 39.2937 30.2812 39.2656C30.2812 39.2374 30.5063 39.2187 30.7781 39.2187H31.2656L31.275 39.6218ZM33.675 39.7531C33.7031 40.0531 33.7594 40.3718 33.7969 40.4656C33.8625 40.6156 33.8156 40.6343 33.3188 40.6062C32.7844 40.5781 32.775 40.5687 32.7094 40.2781C32.6813 40.1187 32.5594 39.8281 32.4469 39.6406C32.3438 39.4531 32.25 39.2843 32.25 39.2562C32.25 39.2374 32.5594 39.2187 32.9438 39.2187H33.6375L33.675 39.7531ZM36.2813 39.4062C36.2813 39.7249 36.0281 40.2218 35.7938 40.3812C35.6719 40.4656 35.4375 40.5593 35.2688 40.5874C34.9688 40.6437 34.9688 40.6437 34.9688 40.2874C34.9688 40.0812 34.8844 39.7812 34.7813 39.6124C34.6781 39.4437 34.5938 39.2843 34.5938 39.2656C34.5938 39.2374 34.9781 39.2187 35.4375 39.2187C36.225 39.2187 36.2813 39.2281 36.2813 39.4062ZM35.1375 43.2218C36.0469 45.6687 36.6469 47.5718 36.6563 48.0124C36.6563 48.9687 35.625 49.1749 34.9781 48.3499C34.725 48.0312 34.7344 47.9749 34.9969 47.8999C35.3156 47.8249 35.7188 47.3843 35.7188 47.1312C35.7188 46.6624 35.1938 46.4937 34.5469 46.7562L34.2281 46.8968L34.1156 46.5499C34.0219 46.2781 34.0313 46.2031 34.125 46.1749C34.35 46.0999 34.6875 45.7062 34.6875 45.5187C34.6875 45.2093 34.3406 44.9937 33.8625 44.9843C33.3375 44.9843 33.2438 44.7593 33.7219 44.6374C33.9938 44.5718 34.5 44.0937 34.5 43.9062C34.5 43.8687 34.4156 43.7374 34.3219 43.6156C34.1063 43.3437 33.5156 43.3249 33.1313 43.5781C33 43.6624 32.8781 43.7187 32.8594 43.6999C32.7844 43.6156 31.9594 41.9093 31.9875 41.8906C32.0156 41.8624 33.675 41.7031 34.3125 41.6656C34.5375 41.6562 34.5844 41.7499 35.1375 43.2218ZM28.1063 41.9749C28.1156 41.9937 27.8344 42.6218 27.4688 43.3718C27.1031 44.1218 26.475 45.5093 26.0719 46.4374C25.2281 48.3781 25.1344 48.5374 24.7219 48.7812C24.3375 49.0249 23.9906 49.0156 23.6813 48.7718C23.1563 48.3593 23.3813 47.5062 25.4062 42.0781C25.4719 41.8999 25.5469 41.8906 26.775 41.9187C27.4969 41.9374 28.0875 41.9656 28.1063 41.9749Z" fill="white" stroke="white" stroke-width="0.3"/>
<path d="M27.7219 14.8438C26.9156 14.975 25.9219 15.2844 25.0406 15.6969L24.2625 16.0625L23.7094 15.725C22.7344 15.125 21.825 15.0219 18.8906 15.2188C13.7063 15.5656 14.3812 16.1 20.2969 16.3344C21.9937 16.4 22.3312 16.4375 22.7156 16.6062L23.1656 16.8031L22.4906 17.4781C19.1344 20.8344 18.6562 26.8906 21.4125 31.1469C21.6562 31.5219 21.8437 31.8406 21.825 31.85C21.8062 31.8687 21.0937 31.925 20.2312 31.9812C17.0625 32.2062 14.0625 32.7219 14.0625 33.0406C14.0625 33.2187 14.7094 33.2656 17.3906 33.2562C19.8187 33.2562 22.3406 33.125 22.7156 32.975C22.7812 32.9562 23.1281 33.1719 23.4844 33.4531C25.7344 35.2625 28.9406 35.75 32.025 34.7656C32.7281 34.55 33.4406 34.1937 33.3562 34.1094C33.3375 34.0906 33.0094 34.1469 32.625 34.25C29.3719 35.0844 26.175 34.5219 24.0937 32.7406L23.8594 32.5437L24.1219 32.3562C24.2625 32.2531 24.4875 31.9906 24.6094 31.7656C24.8625 31.3344 25.5 29.5437 25.5 29.2625C25.5 28.8312 24.9656 29.3094 24.4031 30.2469C23.9062 31.0812 23.6719 31.3719 23.3531 31.5594L23.0719 31.7281L22.6969 31.2312C20.85 28.7656 20.2781 24.7812 21.3187 21.7156C21.8156 20.2625 22.7812 18.7812 23.775 17.975L24.15 17.6562L24.9844 18.7625C26.025 20.1312 26.5594 20.7031 27.0844 21.05C27.7969 21.5 27.8344 21.3875 27.2531 20.4875C27.0281 20.1406 26.625 19.4562 26.3437 18.9688C26.0719 18.4812 25.6781 17.8344 25.4812 17.5344L25.1156 16.9906L25.6594 16.7562C26.2594 16.4844 27.825 16.0625 28.2094 16.0625H28.4625L28.3781 16.8781C28.2469 18.1531 28.2562 26.15 28.3875 26.6187C28.6125 27.4062 29.2594 27.8656 30.1406 27.875C31.1062 27.875 37.1062 27.0781 37.6406 26.8812C37.7906 26.8156 37.8 26.8625 37.7344 27.3687C37.4437 29.75 36.075 32.0562 34.0969 33.5187C33.75 33.7812 33.4781 34.0156 33.5062 34.0437C33.5906 34.1281 34.35 33.7719 34.9687 33.3594C36.0094 32.6656 37.0781 31.4187 37.725 30.1437C38.3531 28.9062 38.8125 26.9281 38.8125 25.475V24.8094L40.5281 24.8562C42.7312 24.9125 43.2187 24.8562 43.65 24.4812C44.0156 24.1531 44.0906 23.9937 44.6906 22.3437C45.4031 20.3469 45.8344 18.4062 45.5719 18.4062C45.2906 18.4062 44.3062 20.2062 43.4062 22.3625C42.9375 23.4875 42.8906 23.5625 42.6187 23.6094C42.3187 23.6562 38.9625 24.0312 38.8219 24.0312C38.7844 24.0312 38.7187 23.7687 38.6812 23.4406C38.5219 21.8562 37.6312 19.6625 36.5906 18.2656C36.0094 17.4781 35.2406 16.7281 34.5281 16.2406C33.9375 15.8281 32.5031 15.1719 31.7812 14.9844C31.0781 14.7969 28.6031 14.7125 27.7219 14.8438ZM30.7687 16.025L31.1156 16.0906L30.6187 16.6531C30.3375 16.9625 29.9344 17.525 29.7094 17.9C29.4844 18.275 29.2781 18.5938 29.25 18.5938C29.2219 18.5938 29.1469 18.0781 29.0906 17.4406C29.025 16.8031 28.95 16.2125 28.9125 16.1281C28.8656 15.9875 28.9406 15.9688 29.6344 15.9688C30.0656 15.9688 30.5812 15.9969 30.7687 16.025ZM32.7 16.5875C32.8875 16.6625 33.225 16.8312 33.45 16.9625L33.8531 17.2062L32.8687 18.1906C31.7344 19.3156 30.675 20.5531 29.9719 21.5656L29.4844 22.2687L29.4187 21.8562C29.3906 21.6312 29.3531 21.125 29.3531 20.7219C29.3437 20.15 29.3719 19.9812 29.4844 19.9437C29.7 19.8594 31.0031 18.2 31.5937 17.2625C31.875 16.8125 32.1656 16.4469 32.2312 16.4375C32.2969 16.4375 32.5031 16.5031 32.7 16.5875ZM35.2969 18.4906C35.4562 18.6781 35.6344 18.8937 35.7 18.9875C35.8031 19.1187 35.625 19.3344 34.2844 20.675C32.6625 22.2969 30.9656 24.2656 30.1594 25.4562C29.8875 25.8594 29.6437 26.1781 29.6062 26.1875C29.5687 26.1875 29.5312 25.6062 29.5125 24.8937L29.4844 23.6094L30.7031 22.3437C32.0719 20.9187 33.2719 19.4656 33.975 18.3875L34.4344 17.6656L34.725 17.9094C34.8844 18.0406 35.1469 18.3031 35.2969 18.4906ZM36.6187 20.3937C36.7594 20.6656 36.9656 21.1437 37.0875 21.4531L37.3031 22.0344L37.0406 22.1844C36.2437 22.6531 34.4344 24.9687 34.0687 26L33.9094 26.4406L32.9156 26.5062C32.3719 26.5437 31.5 26.5906 30.9844 26.6281L30.0469 26.6844L30.5156 26.2812C31.8562 25.1375 34.5562 22.1656 35.7469 20.5344C36 20.1875 36.2437 19.9062 36.2906 19.9062C36.3375 19.9062 36.4875 20.1219 36.6187 20.3937ZM37.7812 24.2562C37.8375 24.725 37.875 25.4 37.8562 25.7656C37.8281 26.3187 37.8 26.4219 37.6687 26.4125C37.575 26.4125 36.9281 26.4031 36.2344 26.3937L34.9687 26.375L35.7 25.4562C36.1031 24.95 36.6844 24.1625 36.9844 23.7031C37.6219 22.7469 37.5937 22.7281 37.7812 24.2562Z" fill="white"/>
</svg>
