<svg width="60" height="60" viewBox="0 0 60 60" fill="none" xmlns="http://www.w3.org/2000/svg">
<rect width="60" height="60" rx="10" fill="#FF1A1A"/>
<path d="M26.3829 9.07833C23.6337 9.54552 22.313 9.66231 19.7794 9.65333C17.6591 9.65333 17.3805 9.63536 16.7337 9.45567C16.3383 9.34786 15.8891 9.17716 15.7184 9.07833C15.2423 8.79981 15.377 9.02442 15.9071 9.39278C17.0571 10.1834 18.4497 10.4619 21.2618 10.4619C23.3462 10.4619 24.7387 10.3361 27.0118 9.9588C27.6676 9.85098 28.3235 9.79708 28.593 9.82403C29.0243 9.86895 37.5774 12.6182 38.2243 12.9236C38.404 13.0045 39.9493 14.5408 41.9348 16.6162L45.3489 20.174L45.0794 20.4166C44.2169 21.1893 42.6356 20.9018 40.5512 19.608C38.4848 18.3232 38.1973 18.2783 39.3923 19.4373C40.4704 20.4795 40.9196 20.8119 41.863 21.2522C42.7344 21.6654 43.543 21.8631 44.1899 21.8182L44.702 21.7822L45.2591 22.3393C45.9059 22.9951 45.9059 23.1568 45.268 23.4623C44.1989 23.9834 42.3301 23.4623 40.6141 22.1596C40.3266 21.935 39.7606 21.4858 39.3653 21.1623C38.6555 20.5783 37.4696 19.9135 36.9395 19.8147L36.67 19.7607L36.9395 19.9584C37.0923 20.0662 37.9368 20.8928 38.8262 21.8002C40.4524 23.4533 40.9196 23.8217 41.9708 24.2889C44.0462 25.1963 45.9958 24.8459 46.7235 23.4354C47.0829 22.7346 47.011 22.519 46.2383 21.8631L45.6274 21.351L45.9778 20.9557C46.3102 20.5693 46.463 20.1561 46.4001 19.7967C46.3911 19.6979 44.7649 17.9549 42.7973 15.9244C39.8954 12.9326 39.1227 12.1869 38.7544 12.0072C38.4938 11.8815 36.1938 11.1088 33.6333 10.2912C28.3055 8.59317 28.7817 8.67403 26.3829 9.07833Z" fill="white" stroke="white" stroke-width="0.3"/>
<path d="M7.24609 12.5912C7.24609 12.7349 7.74023 13.8669 8.13555 14.6126C8.80937 15.8884 9.50117 16.8048 10.6602 17.9728C13.2566 20.5603 16.3383 22.0517 19.3301 22.1685C20.3543 22.2044 20.6418 22.1865 21.666 21.9708C23.5078 21.5935 25.6281 20.9376 28.4492 19.8955C29.0871 19.6619 29.2398 19.6439 31.2434 19.581C36.1219 19.4193 38.2512 18.5298 38.2422 16.6521C38.2332 15.2416 37.0832 14.3431 34.7832 13.9748C33.6422 13.7861 32.6809 13.8041 30.309 14.0736L28.2336 14.2982L26.2211 14.1634C23.966 14.0017 22.4297 13.9748 22.4297 14.1005C22.4297 14.2623 23.7504 14.6037 26.4727 15.1427C27.8203 15.4123 28.2605 15.4123 30.3809 15.1337C31.0547 15.0439 32.1957 14.981 33.0762 14.972C34.4238 14.963 34.6934 14.99 35.3402 15.1787C36.6879 15.556 37.2629 16.113 37.0652 16.8318C36.8945 17.4697 36.1219 17.883 34.5137 18.2064C34.0555 18.2962 32.9684 18.3771 31.5039 18.422C28.9254 18.5029 28.8535 18.5119 26.6973 19.3205C24.1816 20.2548 21.5852 20.9466 20.0938 21.0814C16.0957 21.4318 10.7949 18.0806 7.69531 13.238C7.45273 12.8517 7.24609 12.5642 7.24609 12.5912Z" fill="white" stroke="white" stroke-width="0.3"/>
<path d="M35.4841 21.0184C36.9935 22.4739 37.5505 22.9321 38.2962 23.3543C39.0958 23.8036 40.3177 24.2168 41.0724 24.3067C41.7642 24.3875 41.6653 24.2887 40.6321 23.8664C39.4642 23.3993 38.7724 22.95 37.5864 21.8899C36.5263 20.9555 35.5649 20.3536 34.8103 20.1469C34.4958 20.0571 34.5407 20.12 35.4841 21.0184Z" fill="white" stroke="white" stroke-width="0.3"/>
<path d="M32.6271 20.4435C32.8786 20.6322 33.3638 21.0544 33.7052 21.3779C34.7743 22.4021 35.7986 22.9861 36.9486 23.2286C37.9189 23.4353 37.9728 23.3904 37.2001 23.013C36.8138 22.8154 36.1669 22.438 35.7716 22.1595C34.3071 21.1263 33.5614 20.6591 33.1032 20.4525C32.2587 20.0841 32.1419 20.0751 32.6271 20.4435Z" fill="white" stroke="white" stroke-width="0.3"/>
<path d="M26.8859 22.6627C26.7422 22.7885 26.293 23.6959 25.709 25.0346L24.7566 27.1908L22.4207 27.9455C19.8512 28.7721 19.7344 28.8439 19.7344 29.4728C19.7344 29.8861 19.7344 29.8861 21.8816 31.8088L23.5258 33.2822L23.4719 33.8662C23.4449 34.1896 23.409 35.3217 23.4 36.3639C23.391 38.1338 23.4 38.2865 23.5617 38.4662C23.8043 38.7447 24.2715 38.9244 24.559 38.8525C24.8016 38.7896 26.4098 37.9182 27.8832 37.0557C28.3414 36.7861 28.7637 36.5705 28.8266 36.5705C28.8984 36.5705 29.6711 36.8131 30.5605 37.1096C33.1301 37.9721 33.4176 38.035 33.777 37.8912C34.1723 37.7205 34.4688 37.3342 34.4688 36.9838C34.4688 36.831 34.2082 35.699 33.8938 34.4592L33.3188 32.2221L34.6395 30.4162C36.3555 28.0892 36.2656 28.224 36.2656 27.8467C36.2656 27.5861 36.2027 27.4603 35.9871 27.2807C35.8344 27.1549 35.6457 27.0471 35.5648 27.0471C35.2234 27.0381 30.875 26.535 30.848 26.499C30.8211 26.481 30.1922 25.6096 29.4375 24.5764C28.6738 23.5342 27.991 22.6447 27.9191 22.5818C27.6766 22.3932 27.1375 22.4381 26.8859 22.6627ZM29.0063 25.5736C29.8598 26.7775 30.4438 27.5142 30.5605 27.5412C30.6594 27.5592 31.7734 27.685 33.0313 27.8107C34.2891 27.9365 35.3313 28.0533 35.3402 28.0713C35.3582 28.0892 34.7203 28.9877 33.9297 30.0748C33.0313 31.3146 32.4922 32.1412 32.4922 32.267C32.4922 32.3838 32.5551 32.6803 32.627 32.9318C32.7348 33.2642 33.3906 36.5346 33.3906 36.7053C33.3906 36.7142 32.4742 36.4267 31.3512 36.0584C30.2191 35.699 29.141 35.3756 28.9434 35.3486C28.6109 35.2947 28.4672 35.3666 26.877 36.31C25.9426 36.858 24.9992 37.433 24.7926 37.5767L24.4063 37.8373V36.8221C24.4063 36.265 24.3793 35.1689 24.3434 34.3873L24.2895 32.9588L22.4836 31.3326C21.4863 30.4342 20.6777 29.6795 20.6777 29.6615C20.6777 29.6435 21.7199 29.2752 23.0047 28.8439C24.3613 28.3947 25.3676 28.0084 25.4395 27.9185C25.4934 27.8377 25.9695 26.8045 26.4816 25.6185C27.1645 24.0373 27.443 23.4892 27.5238 23.5611C27.5777 23.606 28.2516 24.5135 29.0063 25.5736Z" fill="white" stroke="white" stroke-width="0.3"/>
<path d="M11.1991 37.379C10.0671 37.5766 9.26749 38.2235 9.08781 39.077C9.02492 39.3645 9.05187 39.4095 9.67179 40.0024L10.3276 40.6223L10.0581 40.9098C9.90538 41.0716 9.71671 41.3231 9.63585 41.4848C9.34835 42.0598 9.39327 42.1497 10.7769 43.5692C11.4776 44.288 13.0679 45.9321 14.2987 47.2079C15.5386 48.4837 16.7066 49.6337 16.9042 49.7774C17.1468 49.9391 18.7909 50.5052 22.0702 51.5563C24.7116 52.3919 26.9847 53.1106 27.1194 53.1376C27.2542 53.1645 28.0987 53.0747 28.9972 52.922C32.0968 52.4098 33.687 52.2661 36.0859 52.2571C38.4847 52.2571 39.1944 52.3559 40.0839 52.7872C40.3265 52.904 40.5421 52.9938 40.5601 52.9759C40.623 52.904 39.6437 52.2661 39.1675 52.0684C37.1999 51.2688 33.112 51.2329 28.8085 51.9786C27.3081 52.2391 27.4609 52.2751 22.2319 50.5321L17.4882 48.9509L14.0921 45.4559C12.2323 43.5333 10.696 41.9071 10.678 41.8442C10.6421 41.6825 10.9476 41.4309 11.3519 41.2782C12.3581 40.9278 13.6878 41.3141 15.5566 42.5001C16.3921 43.0302 17.3804 43.5423 17.4343 43.4794C17.4433 43.4614 16.9671 42.9763 16.3651 42.4013C15.4038 41.4938 15.1523 41.3052 14.3347 40.9009C13.2476 40.3528 12.5288 40.1462 11.8011 40.1731L11.28 40.2001L10.723 39.6431C10.0941 39.0141 10.0941 38.9243 10.714 38.6009C11.1722 38.3583 12.1964 38.3493 12.9062 38.5829C13.7237 38.8524 14.703 39.4095 15.5566 40.0743C16.0058 40.4157 16.6257 40.9009 16.9491 41.1524C17.5691 41.6196 18.6023 42.1766 19.0605 42.2755L19.33 42.3384L19.0155 42.0868C18.8448 41.952 18.0452 41.1884 17.2546 40.3888C15.6913 38.8165 15.3679 38.5559 14.2628 38.0079C13.1757 37.4688 12.0347 37.2263 11.1991 37.379Z" fill="white" stroke="white" stroke-width="0.3"/>
<path d="M14.4786 37.7204C14.5325 37.7653 14.9008 37.927 15.2962 38.0887C16.4372 38.5379 17.2637 39.077 18.4137 40.1012C19.4649 41.0356 20.4262 41.6465 21.1899 41.8532C21.5044 41.943 21.4594 41.8801 20.5161 40.9817C18.4587 38.9961 17.8028 38.5379 16.3204 38.0438C15.4758 37.7563 14.2989 37.5497 14.4786 37.7204Z" fill="white" stroke="white" stroke-width="0.3"/>
<path d="M18.8898 39.0321C19.3301 39.2567 20.2285 39.8227 20.8933 40.2989C21.9894 41.0805 22.9957 41.6555 23.5976 41.8263C23.7504 41.8712 23.6785 41.7903 23.373 41.5567C23.1304 41.377 22.6453 40.9458 22.2949 40.6134C21.2527 39.6071 20.2105 39.0141 19.0515 38.7716C18.0722 38.5649 18.0453 38.6098 18.8898 39.0321Z" fill="white" stroke="white" stroke-width="0.3"/>
<path d="M34.2172 40.0294C32.4114 40.4157 30.5606 40.9728 28.3504 41.7903L26.877 42.3384L24.7657 42.4103C19.8782 42.581 17.7489 43.4704 17.7578 45.3482C17.7668 46.6509 18.7371 47.4954 20.6778 47.8997C21.8008 48.1333 23.3012 48.1153 25.736 47.8458C27.7125 47.6302 27.7754 47.6302 29.5094 47.756C31.5039 47.9087 33.4805 47.9357 33.4805 47.8099C33.4805 47.6571 32.2586 47.3427 29.5723 46.8126C27.9731 46.4892 28.018 46.4892 25.2598 46.8126C22.5016 47.145 20.6598 46.9833 19.4918 46.3095C18.9977 46.022 18.836 45.7794 18.836 45.3212C18.836 44.6204 19.411 44.2071 20.8934 43.8478C21.8637 43.6052 23.1035 43.4884 24.7387 43.4884C25.5203 43.4884 26.4098 43.4435 26.7242 43.3986C27.0387 43.3446 28.027 43.0392 28.9254 42.7157C33.6153 41.0267 36.0321 40.5775 38.1075 41.0177C41.7102 41.7724 45.5735 44.6474 48.0621 48.4298C48.709 49.4181 48.7449 49.3821 48.2508 48.2232C46.5528 44.2611 42.5008 40.9189 38.2422 39.9755C37.1282 39.7329 35.5289 39.7509 34.2172 40.0294Z" fill="white" stroke="white" stroke-width="0.3"/>
</svg>
