<svg width="41" height="41" viewBox="0 0 41 41" fill="none" xmlns="http://www.w3.org/2000/svg">
<path d="M20.5 40C31.2696 40 40 31.2696 40 20.5C40 9.73045 31.2696 1 20.5 1C9.73045 1 1 9.73045 1 20.5C1 31.2696 9.73045 40 20.5 40Z" fill="white" stroke="#FF1A1A"/>
<path d="M20.5 11C23.0196 11 25.4359 12.0009 27.2175 13.7825C28.9991 15.5641 30 17.9804 30 20.5C30 23.0196 28.9991 25.4359 27.2175 27.2175C25.4359 28.9991 23.0196 30 20.5 30C17.9804 30 15.5641 28.9991 13.7825 27.2175C12.0009 25.4359 11 23.0196 11 20.5C11 17.9804 12.0009 15.5641 13.7825 13.7825C15.5641 12.0009 17.9804 11 20.5 11ZM20.5 12C18.2457 12 16.0837 12.8955 14.4896 14.4896C12.8955 16.0837 12 18.2457 12 20.5C12 22.7543 12.8955 24.9163 14.4896 26.5104C16.0837 28.1045 18.2457 29 20.5 29C21.6162 29 22.7215 28.7801 23.7528 28.353C24.7841 27.9258 25.7211 27.2997 26.5104 26.5104C27.2997 25.7211 27.9258 24.7841 28.353 23.7528C28.7801 22.7215 29 21.6162 29 20.5C29 18.2457 28.1045 16.0837 26.5104 14.4896C24.9163 12.8955 22.7543 12 20.5 12ZM20 15H21V20.42L25.7 23.13L25.2 24L20 21V15Z" fill="#FF1A1A" stroke="#FF1A1A" stroke-width="0.5"/>
</svg>
