<svg width="41" height="41" viewBox="0 0 41 41" fill="none" xmlns="http://www.w3.org/2000/svg">
<path d="M20.5 40C31.2696 40 40 31.2696 40 20.5C40 9.73045 31.2696 1 20.5 1C9.73045 1 1 9.73045 1 20.5C1 31.2696 9.73045 40 20.5 40Z" fill="white" stroke="#FF1A1A"/>
<g clip-path="url(#clip0_155_4531)">
<mask id="mask0_155_4531" style="mask-type:luminance" maskUnits="userSpaceOnUse" x="11" y="11" width="20" height="20">
<path d="M31 11H11V31H31V11Z" fill="white"/>
</mask>
<g mask="url(#mask0_155_4531)">
<path d="M25.6084 23.1721C25.6084 24.0121 25.8474 24.3471 26.4724 24.3471C27.8654 24.3471 28.7524 22.5721 28.7524 19.6201C28.7524 15.1081 25.4644 12.9481 21.3594 12.9481C17.1364 12.9481 13.2954 15.7801 13.2954 21.1321C13.2954 26.2441 16.6554 29.0281 21.8154 29.0281C23.5674 29.0281 24.7434 28.8361 26.5424 28.2361L26.9284 29.8431C25.1524 30.4201 23.2544 30.5871 21.7914 30.5871C15.0234 30.5871 11.3984 26.8671 11.3984 21.1311C11.3984 15.3471 15.5994 11.4111 21.3834 11.4111C27.4074 11.4111 30.5984 15.0111 30.5984 19.4271C30.5984 23.1711 29.4234 26.0271 25.7274 26.0271C24.0464 26.0271 22.9434 25.3551 22.7994 23.8661C22.3674 25.5221 21.2154 26.0271 19.6544 26.0271C17.5664 26.0271 15.8144 24.4181 15.8144 21.1791C15.8144 17.9151 17.3514 15.8991 20.1114 15.8991C21.5754 15.8991 22.4874 16.4751 22.8934 17.3871L23.5904 16.1151H25.6064V23.1721H25.6084ZM22.6574 20.0041C22.6574 18.6851 21.6724 18.1321 20.8564 18.1321C19.9684 18.1321 18.9854 18.8511 18.9854 20.9641C18.9854 22.6441 19.7294 23.5801 20.8564 23.5801C21.6484 23.5801 22.6574 23.0761 22.6574 21.6841V20.0041Z" fill="#FF1A1A"/>
</g>
</g>
<defs>
<clipPath id="clip0_155_4531">
<rect width="20" height="20" fill="white" transform="translate(11 11)"/>
</clipPath>
</defs>
</svg>
