<svg width="41" height="41" viewBox="0 0 41 41" fill="none" xmlns="http://www.w3.org/2000/svg">
<path d="M20.5 40C31.2696 40 40 31.2696 40 20.5C40 9.73045 31.2696 1 20.5 1C9.73045 1 1 9.73045 1 20.5C1 31.2696 9.73045 40 20.5 40Z" fill="white" stroke="#FF1A1A"/>
<path d="M13.8326 19.5592C15.7528 23.7398 19.164 27.0533 23.3986 28.8512L24.0786 29.1542C24.8316 29.4895 25.6789 29.5483 26.471 29.3202C27.2631 29.0921 27.9493 28.5917 28.4086 27.9072L29.2976 26.5832C29.4367 26.3756 29.493 26.1234 29.4555 25.8763C29.4179 25.6292 29.2892 25.4051 29.0946 25.2482L26.0826 22.8182C25.9777 22.7336 25.8568 22.6711 25.7272 22.6345C25.5975 22.5978 25.4618 22.5877 25.3281 22.6048C25.1945 22.6219 25.0656 22.6658 24.9494 22.7339C24.8331 22.802 24.7319 22.893 24.6516 23.0012L23.7196 24.2582C21.3272 23.0766 19.3907 21.1398 18.2096 18.7472L19.4656 17.8152C19.5739 17.735 19.6648 17.6337 19.7329 17.5174C19.801 17.4012 19.8449 17.2724 19.862 17.1387C19.8791 17.005 19.869 16.8693 19.8324 16.7397C19.7957 16.61 19.7332 16.4891 19.6486 16.3842L17.2186 13.3722C17.0617 13.1777 16.8376 13.0489 16.5906 13.0113C16.3435 12.9738 16.0913 13.0301 15.8836 13.1692L14.5506 14.0632C13.862 14.525 13.3597 15.2162 13.1332 16.0138C12.9066 16.8113 12.9706 17.6634 13.3136 18.4182L13.8326 19.5592Z" fill="#FF1A1A"/>
</svg>
