<svg width="41" height="41" viewBox="0 0 41 41" fill="none" xmlns="http://www.w3.org/2000/svg">
<path d="M20.5 40C31.2696 40 40 31.2696 40 20.5C40 9.73045 31.2696 1 20.5 1C9.73045 1 1 9.73045 1 20.5C1 31.2696 9.73045 40 20.5 40Z" fill="white" stroke="#FF1A1A"/>
<path d="M22.0413 29.2257C24.3653 27.1803 28.5 23.0017 28.5 19.167C28.5 17.0453 27.6571 15.0104 26.1569 13.5101C24.6566 12.0098 22.6217 11.167 20.5 11.167C18.3783 11.167 16.3434 12.0098 14.8431 13.5101C13.3429 15.0104 12.5 17.0453 12.5 19.167C12.5 23.0017 16.6333 27.1803 18.9587 29.2257C19.3828 29.6042 19.9315 29.8135 20.5 29.8135C21.0685 29.8135 21.6172 29.6042 22.0413 29.2257ZM17.8333 19.167C17.8333 18.4597 18.1143 17.7815 18.6144 17.2814C19.1145 16.7813 19.7928 16.5003 20.5 16.5003C21.2072 16.5003 21.8855 16.7813 22.3856 17.2814C22.8857 17.7815 23.1667 18.4597 23.1667 19.167C23.1667 19.8742 22.8857 20.5525 22.3856 21.0526C21.8855 21.5527 21.2072 21.8337 20.5 21.8337C19.7928 21.8337 19.1145 21.5527 18.6144 21.0526C18.1143 20.5525 17.8333 19.8742 17.8333 19.167Z" fill="#FF1A1A"/>
</svg>
