<svg width="20" height="18" viewBox="0 0 20 18" fill="none" xmlns="http://www.w3.org/2000/svg">
<path d="M7.75 4.375H19M1 13.375H12.25" stroke="#FF1A1A" stroke-linecap="round"/>
<path d="M1 4.375C1 6.23896 2.51104 7.75 4.375 7.75C6.23896 7.75 7.75 6.23896 7.75 4.375C7.75 2.51104 6.23896 1 4.375 1C2.51104 1 1 2.51104 1 4.375Z" stroke="#FF1A1A" stroke-linecap="round"/>
<path d="M12.25 13.375C12.25 15.239 13.761 16.75 15.625 16.75C17.489 16.75 19 15.239 19 13.375C19 11.511 17.489 10 15.625 10C13.761 10 12.25 11.511 12.25 13.375Z" stroke="#FF1A1A" stroke-linecap="round"/>
</svg>
