<svg width="148" height="148" viewBox="0 0 148 148" fill="none" xmlns="http://www.w3.org/2000/svg">
<g filter="url(#filter0_d_74_2106)">
<circle cx="74" cy="70" r="70" fill="#FF1A1A"/>
</g>
<circle cx="74" cy="70" r="64.5" stroke="white"/>
<path d="M44.4584 60.135C44.3063 61.5373 43.9133 62.7098 43.2795 63.6526C42.6504 64.5917 41.8559 65.277 40.8961 65.7087C39.9405 66.1408 38.8929 66.295 37.7533 66.1714C36.6136 66.0477 35.6214 65.6722 34.7765 65.0447C33.9362 64.4135 33.3075 63.5716 32.8902 62.519C32.4775 61.4626 32.3471 60.2354 32.4988 58.8374C32.6509 57.4351 33.0415 56.2644 33.6706 55.3254C34.3045 54.3826 35.0992 53.6951 36.0547 53.263C37.0146 52.8313 38.0643 52.6773 39.2039 52.801C40.3435 52.9246 41.3337 53.3 42.1744 53.927C43.0193 54.5544 43.6481 55.3963 44.0607 56.4527C44.478 57.5053 44.6106 58.7327 44.4584 60.135ZM42.0881 59.8778C42.1952 58.8907 42.1309 58.0415 41.8952 57.3301C41.6641 56.6149 41.2963 56.0542 40.7917 55.648C40.2876 55.2375 39.6818 54.9939 38.9743 54.9171C38.2668 54.8404 37.6229 54.9484 37.0424 55.2412C36.4625 55.5297 35.9809 55.9983 35.5976 56.6468C35.219 57.2915 34.9762 58.1075 34.8691 59.0946C34.762 60.0817 34.824 60.9328 35.055 61.648C35.2907 62.3594 35.6606 62.9203 36.1647 63.3308C36.6693 63.737 37.2754 63.9785 37.9829 64.0553C38.6904 64.132 39.3341 64.0261 39.914 63.7376C40.4945 63.4448 40.974 62.976 41.3525 62.3312C41.7358 61.6827 41.981 60.8649 42.0881 59.8778ZM50.1166 67.5256C49.1422 67.4199 48.3287 67.1152 47.6761 66.6115C47.0278 66.1082 46.556 65.4591 46.2608 64.6641C45.9702 63.8653 45.8785 62.9723 45.9856 61.9852C46.0932 60.9939 46.3787 60.1397 46.8423 59.4228C47.3063 58.7016 47.9087 58.1668 48.6494 57.8186C49.3949 57.4665 50.2442 57.3422 51.1974 57.4456C51.9897 57.5316 52.6749 57.7538 53.2533 58.1123C53.8363 58.4671 54.2813 58.929 54.5882 59.4981C54.8955 60.0629 55.0364 60.6997 55.011 61.4085L52.8122 61.1699C52.7743 60.69 52.605 60.2752 52.3043 59.9254C52.0083 59.5718 51.5829 59.3649 51.0279 59.3047C50.5576 59.2536 50.1308 59.3359 49.7473 59.5515C49.3644 59.7628 49.0478 60.0928 48.7977 60.5415C48.5518 60.9906 48.3932 61.5435 48.3219 62.2001C48.2498 62.8653 48.2852 63.4478 48.4281 63.9476C48.5715 64.4433 48.805 64.8394 49.1286 65.1359C49.4569 65.4288 49.8604 65.6011 50.3391 65.6531C50.678 65.6898 50.9878 65.6592 51.2685 65.561C51.5539 65.4591 51.801 65.2952 52.0098 65.0692C52.2187 64.8433 52.376 64.5582 52.482 64.2139L54.6807 64.4524C54.5507 65.137 54.281 65.7271 53.8714 66.2228C53.4623 66.7142 52.9386 67.0774 52.3001 67.3125C51.6621 67.5433 50.9343 67.6144 50.1166 67.5256ZM56.3534 60.0432L56.5582 58.1559L65.099 59.0825L64.8942 60.9699L61.7359 60.6272L60.8816 68.5007L58.6575 68.2594L59.5117 60.3859L56.3534 60.0432ZM68.2572 69.5003C67.6386 69.4332 67.0935 69.2626 66.6217 68.9885C66.1547 68.7107 65.8007 68.3379 65.56 67.8703C65.3235 67.4031 65.24 66.8497 65.3094 66.21C65.3691 65.6593 65.5202 65.2149 65.7626 64.8768C66.0051 64.5388 66.3138 64.2808 66.6889 64.1029C67.0639 63.925 67.4778 63.8049 67.9303 63.7425C68.3875 63.6764 68.8562 63.6437 69.3362 63.6443C69.9145 63.647 70.3842 63.6444 70.7451 63.6364C71.1065 63.6242 71.3732 63.576 71.5452 63.4918C71.7219 63.4038 71.8222 63.2496 71.8461 63.0293L71.8503 62.9912C71.9022 62.5125 71.8005 62.1264 71.5452 61.8329C71.2898 61.5395 70.8952 61.3638 70.3614 61.3059C69.798 61.2447 69.3377 61.3191 68.9806 61.529C68.6277 61.7393 68.3759 62.0056 68.2252 62.3279L66.1104 61.7898C66.3442 61.2151 66.6776 60.7497 67.1106 60.3938C67.544 60.0336 68.0533 59.7845 68.6383 59.6466C69.2238 59.5043 69.8576 59.4702 70.5397 59.5442C71.01 59.5953 71.4721 59.7011 71.9262 59.8618C72.3803 60.0225 72.7863 60.2509 73.1442 60.5469C73.5026 60.8387 73.7749 61.2133 73.961 61.6707C74.1513 62.1286 74.2114 62.6816 74.141 63.3298L73.4323 69.8625L71.2208 69.6225L71.3663 68.2817L71.29 68.2734C71.1208 68.5294 70.8962 68.7622 70.6163 68.9718C70.3411 69.1777 70.005 69.332 69.6081 69.4347C69.2159 69.5336 68.7656 69.5554 68.2572 69.5003ZM69.0379 67.8747C69.4997 67.9248 69.9099 67.8772 70.2686 67.7318C70.6278 67.5822 70.915 67.3647 71.1302 67.0794C71.3497 66.7946 71.479 66.4722 71.5181 66.1121L71.6429 64.9619C71.5644 65.0134 71.4356 65.0551 71.2564 65.0871C71.0814 65.1196 70.8859 65.1434 70.67 65.1585C70.454 65.1737 70.2406 65.1848 70.0298 65.1919C69.819 65.1991 69.6362 65.2049 69.4814 65.2096C69.1332 65.2189 68.8178 65.2619 68.5351 65.3384C68.2525 65.4149 68.0225 65.5399 67.845 65.7136C67.6681 65.883 67.5635 66.1159 67.5313 66.4125C67.4854 66.8362 67.6053 67.1728 67.8911 67.4224C68.1769 67.672 68.5592 67.8228 69.0379 67.8747ZM75.7454 70.1134L76.8044 60.3525L80.9032 60.7972C82.0598 60.9227 82.9477 61.2527 83.567 61.7871C84.1905 62.3219 84.4574 63.0024 84.3678 63.8285C84.3085 64.3751 84.0694 64.8013 83.6504 65.1073C83.2361 65.4096 82.6963 65.5846 82.031 65.6325C82.539 65.7305 82.9741 65.9084 83.3362 66.1663C83.7025 66.4246 83.9767 66.7416 84.1589 67.1171C84.341 67.4926 84.4073 67.9092 84.3576 68.3667C84.2992 68.9047 84.1065 69.3575 83.7795 69.7249C83.4571 70.0886 83.015 70.3514 82.453 70.5133C81.8958 70.6714 81.2359 70.7091 80.4733 70.6264L75.7454 70.1134ZM78.0961 68.5361L80.6698 68.8153C81.0935 68.8613 81.4368 68.7978 81.6999 68.6249C81.9635 68.4477 82.1141 68.1854 82.1518 67.8381C82.1954 67.4356 82.1089 67.1069 81.8923 66.8519C81.6761 66.5927 81.3562 66.4401 80.9325 66.3941L78.3588 66.1149L78.0961 68.5361ZM78.5202 64.6279L80.5092 64.8437C80.8227 64.8777 81.0966 64.8624 81.3307 64.7978C81.5654 64.729 81.751 64.6184 81.8875 64.466C82.0245 64.3094 82.1057 64.1146 82.131 63.8816C82.1673 63.5469 82.0581 63.2693 81.8034 63.0488C81.553 62.8288 81.1862 62.6925 80.7033 62.6401L78.7587 62.4291L78.5202 64.6279ZM88.5242 68.3494L93.1536 62.1264L95.5176 62.3829L94.4585 72.1438L92.2344 71.9025L92.9563 65.249L88.3389 71.4798L85.9686 71.2226L87.0276 61.4617L89.2454 61.7024L88.5242 68.3494ZM96.5822 64.408L96.7869 62.5206L105.328 63.4473L105.123 65.3346L101.965 64.9919L101.11 72.8655L98.8862 72.6242L99.7405 64.7506L96.5822 64.408ZM108.372 66.9923L111.25 67.3046C112.496 67.4398 113.427 67.8472 114.043 68.5271C114.66 69.2069 114.916 70.0385 114.814 71.0218C114.74 71.661 114.522 72.2117 114.159 72.6738C113.8 73.1364 113.313 73.4779 112.698 73.6983C112.087 73.915 111.366 73.9782 110.536 73.8881L106.1 73.4069L107.159 63.646L109.377 63.8866L108.523 71.7602L110.741 72.0008C111.241 72.055 111.665 71.9725 112.015 71.7533C112.365 71.5298 112.562 71.2168 112.606 70.8143C112.652 70.3907 112.528 70.0279 112.235 69.7261C111.942 69.4243 111.545 69.2462 111.046 69.192L108.167 68.8797L108.372 66.9923ZM41.3169 85.8003L43.5983 86.0478C43.5799 86.4144 43.7125 86.7139 43.9959 86.9461C44.2793 87.1783 44.6646 87.3208 45.1518 87.3737C45.6475 87.4275 46.0765 87.3647 46.4389 87.1854C46.8059 87.0023 47.0136 86.6884 47.0619 86.2436C47.0904 85.9809 47.0498 85.7429 46.94 85.5295C46.8308 85.3119 46.6635 85.1352 46.4382 84.9993C46.2129 84.8634 45.9393 84.778 45.6173 84.743L44.1239 84.581L44.3011 82.9479L45.7945 83.1099C46.2732 83.1618 46.6474 83.091 46.917 82.8973C47.1909 82.7042 47.3459 82.4402 47.3822 82.1055C47.4213 81.7454 47.3217 81.4389 47.0834 81.1858C46.8493 80.9333 46.5035 80.7822 46.046 80.7325C45.5884 80.6829 45.1959 80.7453 44.8684 80.9198C44.545 81.0947 44.3593 81.3446 44.3112 81.6695L42.0426 81.4233C42.1126 80.8565 42.3357 80.3814 42.7116 79.9978C43.0918 79.6147 43.5763 79.3372 44.165 79.1654C44.758 78.9939 45.4103 78.9469 46.1221 79.0241C46.8846 79.1068 47.531 79.2927 48.0611 79.5817C48.5913 79.8706 48.9845 80.2369 49.2407 80.6805C49.4974 81.1198 49.5958 81.6149 49.5361 82.1656C49.4786 82.6952 49.2658 83.1157 48.8977 83.4273C48.53 83.7346 48.0585 83.932 47.4832 84.0196L47.4722 84.1213C47.8554 84.1843 48.1908 84.3322 48.4785 84.5648C48.7666 84.7933 48.9836 85.0847 49.1295 85.4392C49.2753 85.7936 49.3243 86.1911 49.2765 86.6317C49.2117 87.2291 48.9841 87.7273 48.5936 88.1264C48.2035 88.5213 47.6951 88.8026 47.0682 88.9704C46.4456 89.1386 45.7487 89.1808 44.9777 89.0972C44.2278 89.0158 43.5685 88.8307 42.9998 88.5418C42.4357 88.2492 42.0032 87.87 41.7023 87.4045C41.4013 86.9389 41.2728 86.4042 41.3169 85.8003ZM53.5813 90.0371C52.9628 89.97 52.4177 89.7994 51.9459 89.5253C51.4788 89.2475 51.1249 88.8747 50.8842 88.4071C50.6477 87.94 50.5641 87.3865 50.6335 86.7468C50.6933 86.1961 50.8444 85.7517 51.0868 85.4136C51.3292 85.0756 51.638 84.8176 52.013 84.6397C52.3881 84.4618 52.8019 84.3417 53.2545 84.2793C53.7117 84.2132 54.1803 84.1805 54.6603 84.1811C55.2387 84.1839 55.7084 84.1812 56.0693 84.1732C56.4307 84.161 56.6974 84.1128 56.8694 84.0286C57.0461 83.9406 57.1464 83.7865 57.1703 83.5662L57.1744 83.528C57.2264 83.0493 57.1247 82.6632 56.8693 82.3698C56.614 82.0763 56.2194 81.9006 55.6856 81.8427C55.1222 81.7816 54.6619 81.8559 54.3048 82.0658C53.9519 82.2761 53.7001 82.5424 53.5494 82.8647L51.4346 82.3266C51.6684 81.7519 52.0018 81.2865 52.4348 80.9306C52.8682 80.5704 53.3774 80.3213 53.9625 80.1834C54.548 80.0411 55.1818 80.007 55.8639 80.081C56.3341 80.1321 56.7963 80.2379 57.2504 80.3986C57.7044 80.5594 58.1104 80.7877 58.4684 81.0837C58.8268 81.3755 59.099 81.7501 59.2852 82.2075C59.4755 82.6654 59.5355 83.2184 59.4652 83.8666L58.7564 90.3993L56.545 90.1593L56.6904 88.8185L56.6142 88.8102C56.445 89.0662 56.2204 89.299 55.9405 89.5087C55.6652 89.7145 55.3292 89.8688 54.9322 89.9715C54.54 90.0704 54.0897 90.0923 53.5813 90.0371ZM54.3621 88.4115C54.8239 88.4616 55.2341 88.414 55.5928 88.2686C55.9519 88.119 56.2391 87.9015 56.4544 87.6163C56.6739 87.3315 56.8032 87.009 56.8423 86.6489L56.9671 85.4987C56.8886 85.5502 56.7598 85.5919 56.5806 85.6239C56.4056 85.6564 56.2101 85.6802 55.9941 85.6953C55.7782 85.7105 55.5648 85.7216 55.354 85.7287C55.1432 85.7359 54.9604 85.7418 54.8056 85.7464C54.4574 85.7558 54.1419 85.7987 53.8593 85.8752C53.5767 85.9517 53.3466 86.0767 53.1692 86.2504C52.9922 86.4198 52.8877 86.6528 52.8555 86.9493C52.8095 87.373 52.9294 87.7096 53.2153 87.9592C53.5011 88.2088 53.8834 88.3596 54.3621 88.4115ZM66.8397 91.2763L67.696 83.3837L65.6116 83.1575C65.0821 83.1001 64.662 83.1788 64.3515 83.3937C64.041 83.6087 63.8681 83.8985 63.8328 84.2633C63.7891 84.6272 63.8899 84.9425 64.1353 85.2091C64.3807 85.4758 64.7554 85.6365 65.2596 85.6912L68.1446 86.0042L67.9626 87.6818L65.0776 87.3688C64.2981 87.2842 63.6378 87.0883 63.0967 86.781C62.5557 86.4737 62.157 86.0789 61.9007 85.5968C61.6444 85.1146 61.5489 84.5727 61.6142 83.9712C61.6822 83.3442 61.8959 82.8165 62.2553 82.3883C62.6193 81.9563 63.1032 81.6445 63.707 81.4528C64.3154 81.2573 65.0179 81.2028 65.8143 81.2892L70.053 81.7491L68.9939 91.51L66.8397 91.2763ZM60.5358 90.5923L63.8052 85.8806L66.0739 86.1267L62.798 90.8378L60.5358 90.5923ZM71.3102 91.7613L72.3693 82.0004L76.4681 82.4451C77.6247 82.5706 78.5126 82.9006 79.1318 83.435C79.7553 83.9698 80.0223 84.6503 79.9326 85.4765C79.8733 86.023 79.6342 86.4492 79.2152 86.7553C78.8009 87.0575 78.2612 87.2325 77.5959 87.2804C78.1039 87.3784 78.5389 87.5563 78.901 87.8142C79.2673 88.0725 79.5416 88.3895 79.7237 88.765C79.9059 89.1405 79.9721 89.5571 79.9225 90.0146C79.8641 90.5527 79.6714 91.0054 79.3443 91.3728C79.022 91.7365 78.5798 91.9993 78.0179 92.1612C77.4606 92.3193 76.8007 92.357 76.0382 92.2743L71.3102 91.7613ZM73.661 90.184L76.2347 90.4632C76.6583 90.5092 77.0017 90.4457 77.2648 90.2728C77.5283 90.0956 77.6789 89.8334 77.7166 89.486C77.7603 89.0835 77.6738 88.7548 77.4571 88.4998C77.2409 88.2406 76.921 88.088 76.4974 88.042L73.9237 87.7628L73.661 90.184ZM74.085 86.2758L76.0741 86.4916C76.3876 86.5256 76.6614 86.5103 76.8956 86.4457C77.1302 86.3769 77.3158 86.2663 77.4524 86.1139C77.5894 85.9573 77.6705 85.7625 77.6958 85.5295C77.7321 85.1948 77.6229 84.9172 77.3683 84.6967C77.1178 84.4767 76.7511 84.3404 76.2681 84.288L74.3236 84.077L74.085 86.2758ZM81.5334 92.8705L82.5925 83.1096L84.8929 83.3592L84.4654 87.2992L85.3042 87.3902L88.6676 83.7688L91.4383 84.0694L87.3026 88.4686L90.4174 93.8344L87.634 93.5324L85.3579 89.5628L84.2331 89.4407L83.8339 93.1201L81.5334 92.8705ZM92.8592 97.8028C92.5457 97.7688 92.2583 97.7119 91.9969 97.6321C91.7393 97.557 91.5356 97.4791 91.3857 97.3986L92.1139 95.6645C92.438 95.7982 92.7317 95.8772 92.9948 95.9015C93.2579 95.9257 93.4978 95.8682 93.7143 95.7288C93.9347 95.5941 94.1348 95.3501 94.3146 94.9967L94.5688 94.4906L92.1103 84.1423L94.5505 84.4071L96.0003 92.0226L96.102 92.0337L99.1577 84.9069L101.604 85.1724L96.5089 95.6912C96.2706 96.1883 95.9811 96.6048 95.6403 96.9408C95.2991 97.281 94.8997 97.5248 94.4422 97.6723C93.9885 97.8246 93.4608 97.8681 92.8592 97.8028Z" fill="white"/>
<defs>
<filter id="filter0_d_74_2106" x="0" y="0" width="148" height="148" filterUnits="userSpaceOnUse" color-interpolation-filters="sRGB">
<feFlood flood-opacity="0" result="BackgroundImageFix"/>
<feColorMatrix in="SourceAlpha" type="matrix" values="0 0 0 0 0 0 0 0 0 0 0 0 0 0 0 0 0 0 127 0" result="hardAlpha"/>
<feOffset dy="4"/>
<feGaussianBlur stdDeviation="2"/>
<feComposite in2="hardAlpha" operator="out"/>
<feColorMatrix type="matrix" values="0 0 0 0 0 0 0 0 0 0 0 0 0 0 0 0 0 0 0.25 0"/>
<feBlend mode="normal" in2="BackgroundImageFix" result="effect1_dropShadow_74_2106"/>
<feBlend mode="normal" in="SourceGraphic" in2="effect1_dropShadow_74_2106" result="shape"/>
</filter>
</defs>
</svg>
