<svg width="140" height="140" viewBox="0 0 140 140" fill="none" xmlns="http://www.w3.org/2000/svg">
<circle cx="70" cy="70" r="70" fill="#FF1A1A"/>
<circle cx="70" cy="70" r="64.5" stroke="white"/>
<path d="M40.4584 60.135C40.3063 61.5373 39.9133 62.7098 39.2795 63.6526C38.6504 64.5917 37.8559 65.277 36.8961 65.7087C35.9405 66.1408 34.8929 66.295 33.7533 66.1714C32.6136 66.0477 31.6214 65.6722 30.7765 65.0447C29.9362 64.4135 29.3075 63.5716 28.8902 62.519C28.4775 61.4626 28.3471 60.2354 28.4988 58.8374C28.6509 57.4351 29.0415 56.2644 29.6706 55.3254C30.3045 54.3826 31.0992 53.6951 32.0547 53.263C33.0146 52.8313 34.0643 52.6773 35.2039 52.801C36.3435 52.9246 37.3337 53.3 38.1744 53.927C39.0193 54.5544 39.6481 55.3963 40.0607 56.4527C40.478 57.5053 40.6106 58.7327 40.4584 60.135ZM38.0881 59.8778C38.1952 58.8907 38.1309 58.0415 37.8952 57.3301C37.6641 56.6149 37.2963 56.0542 36.7917 55.648C36.2876 55.2375 35.6818 54.9939 34.9743 54.9171C34.2668 54.8404 33.6229 54.9484 33.0424 55.2412C32.4625 55.5297 31.9809 55.9983 31.5976 56.6468C31.219 57.2915 30.9762 58.1075 30.8691 59.0946C30.762 60.0817 30.824 60.9328 31.055 61.648C31.2907 62.3594 31.6606 62.9203 32.1647 63.3308C32.6693 63.737 33.2754 63.9785 33.9829 64.0553C34.6904 64.132 35.3341 64.0261 35.914 63.7376C36.4945 63.4448 36.974 62.976 37.3525 62.3312C37.7358 61.6827 37.981 60.8649 38.0881 59.8778ZM46.1166 67.5256C45.1422 67.4199 44.3287 67.1152 43.6761 66.6115C43.0278 66.1082 42.556 65.4591 42.2608 64.6641C41.9702 63.8653 41.8785 62.9723 41.9856 61.9852C42.0932 60.9939 42.3787 60.1397 42.8423 59.4228C43.3063 58.7016 43.9087 58.1668 44.6494 57.8186C45.3949 57.4665 46.2442 57.3422 47.1974 57.4456C47.9897 57.5316 48.6749 57.7538 49.2533 58.1123C49.8363 58.4671 50.2813 58.929 50.5882 59.4981C50.8955 60.0629 51.0364 60.6997 51.011 61.4085L48.8122 61.1699C48.7743 60.69 48.605 60.2752 48.3043 59.9254C48.0083 59.5718 47.5829 59.3649 47.0279 59.3047C46.5576 59.2536 46.1308 59.3359 45.7473 59.5515C45.3644 59.7628 45.0478 60.0928 44.7977 60.5415C44.5518 60.9906 44.3932 61.5435 44.3219 62.2001C44.2498 62.8653 44.2852 63.4478 44.4281 63.9476C44.5715 64.4433 44.805 64.8394 45.1286 65.1359C45.4569 65.4288 45.8604 65.6011 46.3391 65.6531C46.678 65.6898 46.9878 65.6592 47.2685 65.561C47.5539 65.4591 47.801 65.2952 48.0098 65.0692C48.2187 64.8433 48.376 64.5582 48.482 64.2139L50.6807 64.4524C50.5507 65.137 50.281 65.7271 49.8714 66.2228C49.4623 66.7142 48.9386 67.0774 48.3001 67.3125C47.6621 67.5433 46.9343 67.6144 46.1166 67.5256ZM52.3534 60.0432L52.5582 58.1559L61.099 59.0825L60.8942 60.9699L57.7359 60.6272L56.8816 68.5007L54.6575 68.2594L55.5117 60.3859L52.3534 60.0432ZM64.2572 69.5003C63.6386 69.4332 63.0935 69.2626 62.6217 68.9885C62.1547 68.7107 61.8007 68.3379 61.56 67.8703C61.3235 67.4031 61.24 66.8497 61.3094 66.21C61.3691 65.6593 61.5202 65.2149 61.7626 64.8768C62.0051 64.5388 62.3138 64.2808 62.6889 64.1029C63.0639 63.925 63.4778 63.8049 63.9303 63.7425C64.3875 63.6764 64.8562 63.6437 65.3362 63.6443C65.9145 63.647 66.3842 63.6444 66.7451 63.6364C67.1065 63.6242 67.3732 63.576 67.5452 63.4918C67.7219 63.4038 67.8222 63.2496 67.8461 63.0293L67.8503 62.9912C67.9022 62.5125 67.8005 62.1264 67.5452 61.8329C67.2898 61.5395 66.8952 61.3638 66.3614 61.3059C65.798 61.2447 65.3377 61.3191 64.9806 61.529C64.6277 61.7393 64.3759 62.0056 64.2252 62.3279L62.1104 61.7898C62.3442 61.2151 62.6776 60.7497 63.1106 60.3938C63.544 60.0336 64.0533 59.7845 64.6383 59.6466C65.2238 59.5043 65.8576 59.4702 66.5397 59.5442C67.01 59.5953 67.4721 59.7011 67.9262 59.8618C68.3803 60.0225 68.7863 60.2509 69.1442 60.5469C69.5026 60.8387 69.7749 61.2133 69.961 61.6707C70.1513 62.1286 70.2114 62.6816 70.141 63.3298L69.4323 69.8625L67.2208 69.6225L67.3663 68.2817L67.29 68.2734C67.1208 68.5294 66.8962 68.7622 66.6163 68.9718C66.3411 69.1777 66.005 69.332 65.6081 69.4347C65.2159 69.5336 64.7656 69.5554 64.2572 69.5003ZM65.0379 67.8747C65.4997 67.9248 65.9099 67.8772 66.2686 67.7318C66.6278 67.5822 66.915 67.3647 67.1302 67.0794C67.3497 66.7946 67.479 66.4722 67.5181 66.1121L67.6429 64.9619C67.5644 65.0134 67.4356 65.0551 67.2564 65.0871C67.0814 65.1196 66.8859 65.1434 66.67 65.1585C66.454 65.1737 66.2406 65.1848 66.0298 65.1919C65.819 65.1991 65.6362 65.2049 65.4814 65.2096C65.1332 65.2189 64.8178 65.2619 64.5351 65.3384C64.2525 65.4149 64.0225 65.5399 63.845 65.7136C63.6681 65.883 63.5635 66.1159 63.5313 66.4125C63.4854 66.8362 63.6053 67.1728 63.8911 67.4224C64.1769 67.672 64.5592 67.8228 65.0379 67.8747ZM71.7454 70.1134L72.8044 60.3525L76.9032 60.7972C78.0598 60.9227 78.9477 61.2527 79.567 61.7871C80.1905 62.3219 80.4574 63.0024 80.3678 63.8285C80.3085 64.3751 80.0694 64.8013 79.6504 65.1073C79.2361 65.4096 78.6963 65.5846 78.031 65.6325C78.539 65.7305 78.9741 65.9084 79.3362 66.1663C79.7025 66.4246 79.9767 66.7416 80.1589 67.1171C80.341 67.4926 80.4073 67.9092 80.3576 68.3667C80.2992 68.9047 80.1065 69.3575 79.7795 69.7249C79.4571 70.0886 79.015 70.3514 78.453 70.5133C77.8958 70.6714 77.2359 70.7091 76.4733 70.6264L71.7454 70.1134ZM74.0961 68.5361L76.6698 68.8153C77.0935 68.8613 77.4368 68.7978 77.6999 68.6249C77.9635 68.4477 78.1141 68.1854 78.1518 67.8381C78.1954 67.4356 78.1089 67.1069 77.8923 66.8519C77.6761 66.5927 77.3562 66.4401 76.9325 66.3941L74.3588 66.1149L74.0961 68.5361ZM74.5202 64.6279L76.5092 64.8437C76.8227 64.8777 77.0966 64.8624 77.3307 64.7978C77.5654 64.729 77.751 64.6184 77.8875 64.466C78.0245 64.3094 78.1057 64.1146 78.131 63.8816C78.1673 63.5469 78.0581 63.2693 77.8034 63.0488C77.553 62.8288 77.1862 62.6925 76.7033 62.6401L74.7587 62.4291L74.5202 64.6279ZM84.5242 68.3494L89.1536 62.1264L91.5176 62.3829L90.4585 72.1438L88.2344 71.9025L88.9563 65.249L84.3389 71.4798L81.9686 71.2226L83.0276 61.4617L85.2454 61.7024L84.5242 68.3494ZM92.5822 64.408L92.7869 62.5206L101.328 63.4473L101.123 65.3346L97.9646 64.9919L97.1104 72.8655L94.8862 72.6242L95.7405 64.7506L92.5822 64.408ZM104.372 66.9923L107.25 67.3046C108.496 67.4398 109.427 67.8472 110.043 68.5271C110.66 69.2069 110.916 70.0385 110.814 71.0218C110.74 71.661 110.522 72.2117 110.159 72.6738C109.8 73.1364 109.313 73.4779 108.698 73.6983C108.087 73.915 107.366 73.9782 106.536 73.8881L102.1 73.4069L103.159 63.646L105.377 63.8866L104.523 71.7602L106.741 72.0008C107.241 72.055 107.665 71.9725 108.015 71.7533C108.365 71.5298 108.562 71.2168 108.606 70.8143C108.652 70.3907 108.528 70.0279 108.235 69.7261C107.942 69.4243 107.545 69.2462 107.046 69.192L104.167 68.8797L104.372 66.9923ZM37.3169 85.8003L39.5983 86.0478C39.5799 86.4144 39.7125 86.7139 39.9959 86.9461C40.2793 87.1783 40.6646 87.3208 41.1518 87.3737C41.6475 87.4275 42.0765 87.3647 42.4389 87.1854C42.8059 87.0023 43.0136 86.6884 43.0619 86.2436C43.0904 85.9809 43.0498 85.7429 42.94 85.5295C42.8308 85.3119 42.6635 85.1352 42.4382 84.9993C42.2129 84.8634 41.9393 84.778 41.6173 84.743L40.1239 84.581L40.3011 82.9479L41.7945 83.1099C42.2732 83.1618 42.6474 83.091 42.917 82.8973C43.1909 82.7042 43.3459 82.4402 43.3822 82.1055C43.4213 81.7454 43.3217 81.4389 43.0834 81.1858C42.8493 80.9333 42.5035 80.7822 42.046 80.7325C41.5884 80.6829 41.1959 80.7453 40.8684 80.9198C40.545 81.0947 40.3593 81.3446 40.3112 81.6695L38.0426 81.4233C38.1126 80.8565 38.3357 80.3814 38.7116 79.9978C39.0918 79.6147 39.5763 79.3372 40.165 79.1654C40.758 78.9939 41.4103 78.9469 42.1221 79.0241C42.8846 79.1068 43.531 79.2927 44.0611 79.5817C44.5913 79.8706 44.9845 80.2369 45.2407 80.6805C45.4974 81.1198 45.5958 81.6149 45.5361 82.1656C45.4786 82.6952 45.2658 83.1157 44.8977 83.4273C44.53 83.7346 44.0585 83.932 43.4832 84.0196L43.4722 84.1213C43.8554 84.1843 44.1908 84.3322 44.4785 84.5648C44.7666 84.7933 44.9836 85.0847 45.1295 85.4392C45.2753 85.7936 45.3243 86.1911 45.2765 86.6317C45.2117 87.2291 44.9841 87.7273 44.5936 88.1264C44.2035 88.5213 43.6951 88.8026 43.0682 88.9704C42.4456 89.1386 41.7487 89.1808 40.9777 89.0972C40.2278 89.0158 39.5685 88.8307 38.9998 88.5418C38.4357 88.2492 38.0032 87.87 37.7023 87.4045C37.4013 86.9389 37.2728 86.4042 37.3169 85.8003ZM49.5813 90.0371C48.9628 89.97 48.4177 89.7994 47.9459 89.5253C47.4788 89.2475 47.1249 88.8747 46.8842 88.4071C46.6477 87.94 46.5641 87.3865 46.6335 86.7468C46.6933 86.1961 46.8444 85.7517 47.0868 85.4136C47.3292 85.0756 47.638 84.8176 48.013 84.6397C48.3881 84.4618 48.8019 84.3417 49.2545 84.2793C49.7117 84.2132 50.1803 84.1805 50.6603 84.1811C51.2387 84.1839 51.7084 84.1812 52.0693 84.1732C52.4307 84.161 52.6974 84.1128 52.8694 84.0286C53.0461 83.9406 53.1464 83.7865 53.1703 83.5662L53.1744 83.528C53.2264 83.0493 53.1247 82.6632 52.8693 82.3698C52.614 82.0763 52.2194 81.9006 51.6856 81.8427C51.1222 81.7816 50.6619 81.8559 50.3048 82.0658C49.9519 82.2761 49.7001 82.5424 49.5494 82.8647L47.4346 82.3266C47.6684 81.7519 48.0018 81.2865 48.4348 80.9306C48.8682 80.5704 49.3774 80.3213 49.9625 80.1834C50.548 80.0411 51.1818 80.007 51.8639 80.081C52.3341 80.1321 52.7963 80.2379 53.2504 80.3986C53.7044 80.5594 54.1104 80.7877 54.4684 81.0837C54.8268 81.3755 55.099 81.7501 55.2852 82.2075C55.4755 82.6654 55.5355 83.2184 55.4652 83.8666L54.7564 90.3993L52.545 90.1593L52.6904 88.8185L52.6142 88.8102C52.445 89.0662 52.2204 89.299 51.9405 89.5087C51.6652 89.7145 51.3292 89.8688 50.9322 89.9715C50.54 90.0704 50.0897 90.0923 49.5813 90.0371ZM50.3621 88.4115C50.8239 88.4616 51.2341 88.414 51.5928 88.2686C51.9519 88.119 52.2391 87.9015 52.4544 87.6163C52.6739 87.3315 52.8032 87.009 52.8423 86.6489L52.9671 85.4987C52.8886 85.5502 52.7598 85.5919 52.5806 85.6239C52.4056 85.6564 52.2101 85.6802 51.9941 85.6953C51.7782 85.7105 51.5648 85.7216 51.354 85.7287C51.1432 85.7359 50.9604 85.7418 50.8056 85.7464C50.4574 85.7558 50.1419 85.7987 49.8593 85.8752C49.5767 85.9517 49.3466 86.0767 49.1692 86.2504C48.9922 86.4198 48.8877 86.6528 48.8555 86.9493C48.8095 87.373 48.9294 87.7096 49.2153 87.9592C49.5011 88.2088 49.8834 88.3596 50.3621 88.4115ZM62.8397 91.2763L63.696 83.3837L61.6116 83.1575C61.0821 83.1001 60.662 83.1788 60.3515 83.3937C60.041 83.6087 59.8681 83.8985 59.8328 84.2633C59.7891 84.6272 59.8899 84.9425 60.1353 85.2091C60.3807 85.4758 60.7554 85.6365 61.2596 85.6912L64.1446 86.0042L63.9626 87.6818L61.0776 87.3688C60.2981 87.2842 59.6378 87.0883 59.0967 86.781C58.5557 86.4737 58.157 86.0789 57.9007 85.5968C57.6444 85.1146 57.5489 84.5727 57.6142 83.9712C57.6822 83.3442 57.8959 82.8165 58.2553 82.3883C58.6193 81.9563 59.1032 81.6445 59.707 81.4528C60.3154 81.2573 61.0179 81.2028 61.8143 81.2892L66.053 81.7491L64.9939 91.51L62.8397 91.2763ZM56.5358 90.5923L59.8052 85.8806L62.0739 86.1267L58.798 90.8378L56.5358 90.5923ZM67.3102 91.7613L68.3693 82.0004L72.4681 82.4451C73.6247 82.5706 74.5126 82.9006 75.1318 83.435C75.7553 83.9698 76.0223 84.6503 75.9326 85.4765C75.8733 86.023 75.6342 86.4492 75.2152 86.7553C74.8009 87.0575 74.2612 87.2325 73.5959 87.2804C74.1039 87.3784 74.5389 87.5563 74.901 87.8142C75.2673 88.0725 75.5416 88.3895 75.7237 88.765C75.9059 89.1405 75.9721 89.5571 75.9225 90.0146C75.8641 90.5527 75.6714 91.0054 75.3443 91.3728C75.022 91.7365 74.5798 91.9993 74.0179 92.1612C73.4606 92.3193 72.8007 92.357 72.0382 92.2743L67.3102 91.7613ZM69.661 90.184L72.2347 90.4632C72.6583 90.5092 73.0017 90.4457 73.2648 90.2728C73.5283 90.0956 73.6789 89.8334 73.7166 89.486C73.7603 89.0835 73.6738 88.7548 73.4571 88.4998C73.2409 88.2406 72.921 88.088 72.4974 88.042L69.9237 87.7628L69.661 90.184ZM70.085 86.2758L72.0741 86.4916C72.3876 86.5256 72.6614 86.5103 72.8956 86.4457C73.1302 86.3769 73.3158 86.2663 73.4524 86.1139C73.5894 85.9573 73.6705 85.7625 73.6958 85.5295C73.7321 85.1948 73.6229 84.9172 73.3683 84.6967C73.1178 84.4767 72.7511 84.3404 72.2681 84.288L70.3236 84.077L70.085 86.2758ZM77.5334 92.8705L78.5925 83.1096L80.8929 83.3592L80.4654 87.2992L81.3042 87.3902L84.6676 83.7688L87.4383 84.0694L83.3026 88.4686L86.4174 93.8344L83.634 93.5324L81.3579 89.5628L80.2331 89.4407L79.8339 93.1201L77.5334 92.8705ZM88.8592 97.8028C88.5457 97.7688 88.2583 97.7119 87.9969 97.6321C87.7393 97.557 87.5356 97.4791 87.3857 97.3986L88.1139 95.6645C88.438 95.7982 88.7317 95.8772 88.9948 95.9015C89.2579 95.9257 89.4978 95.8682 89.7143 95.7288C89.9347 95.5941 90.1348 95.3501 90.3146 94.9967L90.5688 94.4906L88.1103 84.1423L90.5505 84.4071L92.0003 92.0226L92.102 92.0337L95.1577 84.9069L97.6043 85.1724L92.5089 95.6912C92.2706 96.1883 91.9811 96.6048 91.6403 96.9408C91.2991 97.281 90.8997 97.5248 90.4422 97.6723C89.9885 97.8246 89.4608 97.8681 88.8592 97.8028Z" fill="white"/>
</svg>
