<svg width="148" height="148" viewBox="0 0 148 148" fill="none" xmlns="http://www.w3.org/2000/svg">
<g filter="url(#filter0_d_42_50)">
<circle cx="74" cy="70" r="70" fill="#FF1A1A"/>
</g>
<circle cx="74" cy="70" r="64.5" stroke="white"/>
<path d="M23.3242 71.4258L24.7363 58.4113L27.0939 58.6671L26.4961 64.1767L32.5268 64.831L33.1246 59.3214L35.4885 59.5779L34.0765 72.5924L31.7125 72.3359L32.3124 66.8073L26.2817 66.153L25.6819 71.6816L23.3242 71.4258ZM39.3264 73.3614C38.7078 73.2942 38.1627 73.1236 37.6909 72.8496C37.2239 72.5717 36.8699 72.199 36.6292 71.7314C36.3927 71.2642 36.3092 70.7108 36.3786 70.0711C36.4383 69.5203 36.5894 69.0759 36.8318 68.7379C37.0743 68.3998 37.383 68.1419 37.7581 67.964C38.1331 67.7861 38.547 67.6659 38.9995 67.6036C39.4567 67.5375 39.9254 67.5047 40.4054 67.5054C40.9837 67.5081 41.4534 67.5055 41.8143 67.4975C42.1757 67.4853 42.4424 67.437 42.6144 67.3528C42.7911 67.2648 42.8914 67.1107 42.9153 66.8904L42.9195 66.8523C42.9714 66.3736 42.8697 65.9875 42.6144 65.694C42.359 65.4005 41.9644 65.2249 41.4306 65.1669C40.8672 65.1058 40.4069 65.1802 40.0498 65.39C39.6969 65.6004 39.4451 65.8667 39.2944 66.1889L37.1796 65.6509C37.4134 65.0761 37.7468 64.6108 38.1798 64.2549C38.6132 63.8947 39.1225 63.6456 39.7075 63.5076C40.293 63.3654 40.9268 63.3313 41.6089 63.4053C42.0792 63.4563 42.5413 63.5622 42.9954 63.7229C43.4495 63.8836 43.8555 64.112 44.2134 64.408C44.5718 64.6998 44.8441 65.0744 45.0302 65.5318C45.2205 65.9896 45.2806 66.5427 45.2102 67.1908L44.5015 73.7235L42.29 73.4836L42.4355 72.1427L42.3592 72.1345C42.19 72.3904 41.9654 72.6232 41.6855 72.8329C41.4103 73.0388 41.0742 73.1931 40.6773 73.2957C40.2851 73.3946 39.8348 73.4165 39.3264 73.3614ZM40.1071 71.7358C40.5689 71.7859 40.9791 71.7383 41.3378 71.5929C41.697 71.4432 41.9842 71.2258 42.1994 70.9405C42.4189 70.6557 42.5482 70.3333 42.5873 69.9732L42.7121 68.8229C42.6336 68.8744 42.5048 68.9162 42.3256 68.9482C42.1506 68.9806 41.9551 69.0044 41.7392 69.0196C41.5232 69.0347 41.3098 69.0459 41.099 69.053C40.8882 69.0601 40.7054 69.066 40.5506 69.0706C40.2024 69.08 39.887 69.1229 39.6043 69.1994C39.3217 69.2759 39.0917 69.401 38.9142 69.5746C38.7373 69.744 38.6327 69.977 38.6005 70.2736C38.5546 70.6972 38.6745 71.0338 38.9603 71.2835C39.2461 71.5331 39.6284 71.6839 40.1071 71.7358ZM58.7688 65.3957L58.5641 67.2831L54.3572 66.8266L53.503 74.7002L51.2534 74.4561L52.3124 64.6952L58.7688 65.3957ZM58.0768 75.1964L58.2695 73.3013L58.6063 73.3379C58.8605 73.3654 59.0807 73.3315 59.2668 73.2359C59.4529 73.1404 59.6176 72.9654 59.761 72.7109C59.9048 72.4522 60.0333 72.0975 60.1465 71.6468C60.2596 71.1962 60.366 70.6312 60.4654 69.9519L61.1058 65.6493L68.2231 66.4215L67.1641 76.1824L64.9399 75.9411L65.7942 68.0675L62.9917 67.7635L62.4979 70.8925C62.3716 71.7018 62.2039 72.3973 61.9951 72.979C61.7909 73.5569 61.5387 74.0247 61.2385 74.3821C60.9424 74.7401 60.5913 74.9935 60.1851 75.1423C59.7794 75.2868 59.3138 75.3306 58.7885 75.2736L58.0768 75.1964ZM72.2678 76.9354C71.6493 76.8683 71.1041 76.6977 70.6324 76.4237C70.1653 76.1458 69.8114 75.7731 69.5707 75.3054C69.3342 74.8383 69.2506 74.2849 69.32 73.6451C69.3798 73.0944 69.5309 72.65 69.7733 72.312C70.0157 71.9739 70.3244 71.716 70.6995 71.538C71.0746 71.3601 71.4884 71.24 71.9409 71.1777C72.3982 71.1115 72.8668 71.0788 73.3468 71.0794C73.9252 71.0822 74.3948 71.0796 74.7557 71.0716C75.1171 71.0593 75.3838 71.0111 75.5558 70.9269C75.7326 70.8389 75.8329 70.6848 75.8568 70.4645L75.8609 70.4264C75.9129 69.9476 75.8111 69.5615 75.5558 69.2681C75.3005 68.9746 74.9059 68.7989 74.3721 68.741C73.8086 68.6799 73.3483 68.7543 72.9912 68.9641C72.6384 69.1744 72.3866 69.4407 72.2359 69.763L70.1211 69.2249C70.3549 68.6502 70.6883 68.1849 71.1212 67.8289C71.5547 67.4688 72.0639 67.2197 72.649 67.0817C73.2345 66.9395 73.8683 66.9054 74.5504 66.9794C75.0206 67.0304 75.4828 67.1363 75.9368 67.297C76.3909 67.4577 76.7969 67.6861 77.1548 67.9821C77.5132 68.2739 77.7855 68.6484 77.9716 69.1058C78.162 69.5637 78.222 70.1167 78.1517 70.7649L77.4429 77.2976L75.2314 77.0577L75.3769 75.7168L75.3007 75.7085C75.1314 75.9645 74.9069 76.1973 74.6269 76.407C74.3517 76.6129 74.0156 76.7672 73.6187 76.8698C73.2265 76.9687 72.7762 76.9906 72.2678 76.9354ZM73.0486 75.3099C73.5103 75.36 73.9206 75.3123 74.2793 75.1669C74.6384 75.0173 74.9256 74.7999 75.1409 74.5146C75.3604 74.2298 75.4897 73.9073 75.5287 73.5472L75.6535 72.397C75.5751 72.4485 75.4462 72.4903 75.267 72.5223C75.092 72.5547 74.8966 72.5785 74.6806 72.5937C74.4647 72.6088 74.2513 72.6199 74.0405 72.6271C73.8297 72.6342 73.6469 72.6401 73.492 72.6447C73.1438 72.6541 72.8284 72.697 72.5458 72.7735C72.2632 72.85 72.0331 72.9751 71.8557 73.1487C71.6787 73.3181 71.5741 73.5511 71.542 73.8476C71.496 74.2713 71.6159 74.6079 71.9017 74.8575C72.1876 75.1072 72.5698 75.2579 73.0486 75.3099ZM79.756 77.5486L80.8151 67.7877L84.9139 68.2324C86.0704 68.3579 86.9584 68.6878 87.5776 69.2222C88.2011 69.7571 88.4681 70.4376 88.3784 71.2637C88.3191 71.8102 88.08 72.2365 87.661 72.5425C87.2467 72.8447 86.707 73.0198 86.0417 73.0676C86.5497 73.1656 86.9847 73.3435 87.3468 73.6014C87.7131 73.8598 87.9874 74.1767 88.1695 74.5522C88.3516 74.9278 88.4179 75.3443 88.3683 75.8019C88.3099 76.3399 88.1172 76.7926 87.7901 77.1601C87.4678 77.5237 87.0256 77.7865 86.4637 77.9484C85.9064 78.1066 85.2465 78.1443 84.484 78.0615L79.756 77.5486ZM82.1068 75.9712L84.6805 76.2504C85.1041 76.2964 85.4475 76.2329 85.7106 76.06C85.9741 75.8829 86.1247 75.6206 86.1624 75.2732C86.2061 74.8707 86.1196 74.542 85.9029 74.287C85.6867 74.0278 85.3668 73.8752 84.9432 73.8293L82.3695 73.55L82.1068 75.9712ZM82.5308 72.063L84.5199 72.2788C84.8334 72.3129 85.1072 72.2976 85.3414 72.233C85.576 72.1641 85.7616 72.0535 85.8982 71.9012C86.0352 71.7446 86.1163 71.5498 86.1416 71.3168C86.1779 70.9821 86.0687 70.7045 85.814 70.484C85.5636 70.2639 85.1969 70.1277 84.7139 70.0753L82.7694 69.8643L82.5308 72.063ZM97.3164 73.5515L97.1117 75.4389L91.9135 74.8749L92.1182 72.9875L97.3164 73.5515ZM93.2561 69.1375L92.197 78.8984L89.9792 78.6578L91.0383 68.8969L93.2561 69.1375ZM99.2486 69.7877L98.1896 79.5486L95.9781 79.3086L97.0372 69.5477L99.2486 69.7877ZM101.2 83.5786C100.887 83.5446 100.599 83.4877 100.338 83.4079C100.08 83.3328 99.8765 83.255 99.7266 83.1745L100.455 81.4403C100.779 81.5741 101.073 81.6531 101.336 81.6773C101.599 81.7016 101.839 81.644 102.055 81.5047C102.276 81.37 102.476 81.1259 102.656 80.7725L102.91 80.2665L100.451 69.9182L102.891 70.1829L104.341 77.7985L104.443 77.8095L107.499 70.6828L109.945 70.9482L104.85 81.4671C104.612 81.9642 104.322 82.3807 103.981 82.7166C103.64 83.0568 103.241 83.3007 102.783 83.4482C102.329 83.6004 101.802 83.6439 101.2 83.5786ZM116.257 75.6773L116.052 77.571L110.796 77.0008L111.002 75.1071L116.257 75.6773ZM113.259 71.3078L112.2 81.0687L109.893 80.8184L110.952 71.0575L113.259 71.3078ZM118.56 81.9516C117.619 81.8495 116.827 81.5471 116.183 81.0443C115.543 80.542 115.076 79.8912 114.781 79.0919C114.486 78.2927 114.393 77.3953 114.501 76.3997C114.609 75.4041 114.892 74.5497 115.351 73.8365C115.81 73.1233 116.405 72.5922 117.138 72.243C117.874 71.8942 118.713 71.7709 119.653 71.8729C120.589 71.9745 121.378 72.2744 122.018 72.7725C122.663 73.2711 123.133 73.9179 123.428 74.7129C123.727 75.5083 123.823 76.4039 123.715 77.3994C123.607 78.395 123.321 79.2513 122.858 79.9682C122.398 80.6857 121.8 81.2209 121.063 81.5738C120.33 81.9272 119.496 82.0532 118.56 81.9516ZM118.767 80.0452C119.322 80.1054 119.79 80.0148 120.172 79.7733C120.554 79.5318 120.853 79.1828 121.07 78.7263C121.287 78.2697 121.427 77.747 121.491 77.1581C121.555 76.5692 121.53 76.0286 121.416 75.5362C121.302 75.0438 121.085 74.6408 120.763 74.3273C120.442 74.0095 120.003 73.8205 119.448 73.7603C118.889 73.6996 118.417 73.7898 118.03 74.0308C117.649 74.268 117.35 74.6149 117.133 75.0715C116.916 75.528 116.776 76.0508 116.712 76.6396C116.648 77.2327 116.672 77.7755 116.786 78.2679C116.9 78.7603 117.117 79.1654 117.439 79.4832C117.765 79.7972 118.207 79.9845 118.767 80.0452Z" fill="white"/>
<defs>
<filter id="filter0_d_42_50" x="0" y="0" width="148" height="148" filterUnits="userSpaceOnUse" color-interpolation-filters="sRGB">
<feFlood flood-opacity="0" result="BackgroundImageFix"/>
<feColorMatrix in="SourceAlpha" type="matrix" values="0 0 0 0 0 0 0 0 0 0 0 0 0 0 0 0 0 0 127 0" result="hardAlpha"/>
<feOffset dy="4"/>
<feGaussianBlur stdDeviation="2"/>
<feComposite in2="hardAlpha" operator="out"/>
<feColorMatrix type="matrix" values="0 0 0 0 0.3025 0 0 0 0 0.3025 0 0 0 0 0.3025 0 0 0 0.25 0"/>
<feBlend mode="normal" in2="BackgroundImageFix" result="effect1_dropShadow_42_50"/>
<feBlend mode="normal" in="SourceGraphic" in2="effect1_dropShadow_42_50" result="shape"/>
</filter>
</defs>
</svg>
