<svg width="140" height="140" viewBox="0 0 140 140" fill="none" xmlns="http://www.w3.org/2000/svg">
<circle cx="70" cy="70" r="70" fill="#FF1A1A"/>
<circle cx="70" cy="70" r="64.5" stroke="white"/>
<path d="M35.9941 73.4145C35.079 73.3152 34.2826 73.0702 33.6049 72.6795C32.9314 72.2892 32.4195 71.7922 32.0693 71.1884C31.719 70.5846 31.5709 69.9149 31.625 69.1792L34.0144 69.4384C33.9974 69.7924 34.0806 70.1121 34.264 70.3978C34.4477 70.6792 34.7076 70.911 35.0436 71.0932C35.3796 71.2754 35.7658 71.3901 36.2022 71.4375C36.6682 71.4881 37.09 71.4524 37.4676 71.3305C37.8456 71.2043 38.1521 71.0061 38.3872 70.7358C38.6223 70.4656 38.7584 70.1396 38.7955 69.7578C38.8425 69.3643 38.7785 69.0059 38.6035 68.6826C38.4286 68.3593 38.1533 68.0915 37.7777 67.8793C37.4063 67.6675 36.9453 67.5318 36.3945 67.472L35.2443 67.3472L35.4415 65.5298L36.5917 65.6546C37.045 65.7038 37.4496 65.6684 37.8056 65.5484C38.1657 65.4289 38.4586 65.2378 38.6843 64.9751C38.9105 64.7081 39.0419 64.3859 39.0785 64.0084C39.1228 63.6403 39.0749 63.3114 38.9348 63.0219C38.7995 62.7286 38.5876 62.4892 38.2991 62.3036C38.0148 62.1184 37.6694 62.0038 37.2627 61.9597C36.8644 61.9164 36.488 61.9485 36.1335 62.0557C35.7789 62.163 35.4834 62.3388 35.2468 62.5832C35.0108 62.8234 34.8666 63.1249 34.8143 63.4879L32.5457 63.2417C32.6417 62.5149 32.9208 61.8979 33.383 61.3908C33.85 60.88 34.4391 60.5067 35.1505 60.271C35.8624 60.031 36.6398 59.9568 37.4829 60.0483C38.3514 60.1425 39.0878 60.3874 39.6921 60.783C40.3011 61.1749 40.7518 61.6631 41.0441 62.2478C41.3365 62.8324 41.4468 63.4552 41.3751 64.1161C41.2998 64.8495 41.0171 65.4403 40.5269 65.8887C40.041 66.3374 39.4382 66.5999 38.7184 66.6762L38.7073 66.7778C39.6086 67.0042 40.273 67.4192 40.7004 68.0228C41.1326 68.6226 41.3024 69.329 41.2099 70.142C41.1309 70.8706 40.8525 71.5005 40.3748 72.0317C39.9018 72.559 39.2854 72.9465 38.5255 73.1941C37.7699 73.4422 36.9261 73.5156 35.9941 73.4145ZM45.8117 74.499C45.1932 74.4319 44.648 74.2613 44.1763 73.9872C43.7092 73.7094 43.3553 73.3366 43.1146 72.869C42.878 72.4018 42.7945 71.8484 42.8639 71.2087C42.9237 70.658 43.0748 70.2136 43.3172 69.8755C43.5596 69.5375 43.8683 69.2795 44.2434 69.1016C44.6185 68.9237 45.0323 68.8036 45.4848 68.7412C45.9421 68.6751 46.4107 68.6424 46.8907 68.643C47.4691 68.6457 47.9387 68.6431 48.2996 68.6351C48.661 68.6229 48.9277 68.5747 49.0997 68.4905C49.2765 68.4025 49.3768 68.2483 49.4007 68.028L49.4048 67.9899C49.4567 67.5112 49.355 67.1251 49.0997 66.8316C48.8444 66.5382 48.4498 66.3625 47.916 66.3046C47.3525 66.2434 46.8922 66.3178 46.5351 66.5277C46.1823 66.738 45.9305 67.0043 45.7798 67.3266L43.665 66.7885C43.8988 66.2138 44.2322 65.7484 44.6651 65.3925C45.0986 65.0323 45.6078 64.7832 46.1929 64.6453C46.7784 64.503 47.4122 64.4689 48.0943 64.5429C48.5645 64.594 49.0267 64.6998 49.4807 64.8605C49.9348 65.0212 50.3408 65.2496 50.6987 65.5456C51.0571 65.8374 51.3294 66.212 51.5155 66.6694C51.7059 67.1273 51.7659 67.6803 51.6956 68.3285L50.9868 74.8612L48.7753 74.6212L48.9208 73.2804L48.8446 73.2721C48.6753 73.5281 48.4508 73.7609 48.1708 73.9705C47.8956 74.1764 47.5595 74.3307 47.1626 74.4334C46.7704 74.5323 46.3201 74.5541 45.8117 74.499ZM46.5925 72.8734C47.0542 72.9235 47.4645 72.8759 47.8232 72.7305C48.1823 72.5809 48.4695 72.3634 48.6848 72.0781C48.9043 71.7933 49.0336 71.4709 49.0726 71.1108L49.1974 69.9606C49.119 70.0121 48.9901 70.0538 48.8109 70.0858C48.6359 70.1183 48.4405 70.1421 48.2245 70.1572C48.0086 70.1724 47.7952 70.1835 47.5844 70.1906C47.3736 70.1978 47.1907 70.2036 47.0359 70.2083C46.6877 70.2177 46.3723 70.2606 46.0897 70.3371C45.807 70.4136 45.577 70.5386 45.3996 70.7123C45.2226 70.8817 45.118 71.1146 45.0859 71.4112C45.0399 71.8349 45.1598 72.1715 45.4456 72.4211C45.7315 72.6707 46.1137 72.8215 46.5925 72.8734ZM53.2999 75.1121L54.359 65.3512L56.6594 65.6008L56.2319 69.5408L57.0707 69.6318L60.4341 66.0104L63.2048 66.311L59.0691 70.7102L62.1839 76.076L59.4005 75.774L57.1243 71.8044L55.9995 71.6823L55.6003 75.3617L53.2999 75.1121ZM63.091 79.8779L64.5472 66.4566L66.8095 66.7021L66.6344 68.3162L66.7678 68.3307C66.9122 68.1063 67.1069 67.8724 67.3519 67.6289C67.5974 67.3812 67.9147 67.1821 68.304 67.0314C68.6937 66.8765 69.1746 66.8301 69.7465 66.8922C70.5006 66.974 71.1596 67.2405 71.7236 67.6918C72.2923 68.1392 72.7139 68.7572 72.9884 69.5457C73.2676 70.3304 73.3484 71.265 73.2307 72.3495C73.1144 73.4214 72.8398 74.3131 72.4068 75.0249C71.9738 75.7366 71.433 76.2566 70.7845 76.5848C70.1359 76.9131 69.4282 77.0356 68.6614 76.9524C68.1022 76.8917 67.6484 76.7482 67.3 76.5218C66.9517 76.2954 66.6795 76.0387 66.4835 75.7517C66.2921 75.4609 66.1479 75.1902 66.0508 74.9396L65.9554 74.9293L65.3915 80.1275L63.091 79.8779ZM66.2736 71.5819C66.2051 72.2131 66.2341 72.7756 66.3606 73.2694C66.4913 73.7637 66.7116 74.1626 67.0216 74.4663C67.3362 74.7662 67.7371 74.9426 68.2243 74.9954C68.7327 75.0506 69.1732 74.9612 69.5458 74.7273C69.9188 74.4892 70.2179 74.1423 70.4431 73.6866C70.673 73.2272 70.821 72.6925 70.8872 72.0824C70.9529 71.4766 70.9244 70.9291 70.8018 70.44C70.6791 69.9509 70.4607 69.5543 70.1465 69.2502C69.8323 68.9461 69.4188 68.7662 68.9062 68.7106C68.4148 68.6573 67.9835 68.7412 67.6123 68.9624C67.2411 69.1836 66.9412 69.5175 66.7128 69.9642C66.4885 70.4114 66.3421 70.9506 66.2736 71.5819ZM76.9438 71.0164L79.8225 71.3288C81.068 71.4639 81.9989 71.8714 82.6153 72.5512C83.2316 73.231 83.4886 74.0626 83.3862 75.0459C83.3125 75.6852 83.0942 76.2359 82.7312 76.698C82.3723 77.1605 81.8852 77.502 81.2698 77.7225C80.6591 77.9391 79.9385 78.0024 79.1082 77.9123L74.6725 77.431L75.7316 67.6701L77.9494 67.9107L77.0951 75.7843L79.3129 76.0249C79.8128 76.0792 80.2376 75.9966 80.5871 75.7774C80.9371 75.5539 81.134 75.2409 81.1776 74.8384C81.2236 74.4148 81.1001 74.0521 80.8071 73.7502C80.514 73.4484 80.1176 73.2704 79.6177 73.2161L76.739 72.9038L76.9438 71.0164ZM84.2428 78.4694L85.3018 68.7085L87.6023 68.9581L86.5432 78.719L84.2428 78.4694ZM89.2356 71.0449L89.4404 69.1575L97.9811 70.0842L97.7764 71.9715L94.6181 71.6288L93.7638 79.5024L91.5396 79.2611L92.3939 71.3875L89.2356 71.0449ZM101.025 73.6292L103.904 73.9415C105.149 74.0767 106.08 74.4841 106.697 75.164C107.313 75.8438 107.57 76.6754 107.468 77.6587C107.394 78.298 107.176 78.8486 106.812 79.3108C106.454 79.7733 105.967 80.1148 105.351 80.3352C104.74 80.5519 104.02 80.6151 103.189 80.5251L98.7539 80.0438L99.8129 70.2829L102.031 70.5235L101.176 78.3971L103.394 78.6377C103.894 78.6919 104.319 78.6094 104.668 78.3902C105.018 78.1667 105.215 77.8537 105.259 77.4512C105.305 77.0276 105.181 76.6648 104.888 76.363C104.595 76.0612 104.199 75.8831 103.699 75.8289L100.82 75.5166L101.025 73.6292Z" fill="white"/>
</svg>
