<svg width="148" height="148" viewBox="0 0 148 148" fill="none" xmlns="http://www.w3.org/2000/svg">
<g filter="url(#filter0_d_275_8)">
<circle cx="74" cy="70" r="70" fill="#FF1A1A"/>
</g>
<circle cx="74" cy="70" r="64.5" stroke="white"/>
<path d="M39.9941 73.4145C39.079 73.3152 38.2826 73.0702 37.6049 72.6795C36.9314 72.2892 36.4195 71.7922 36.0693 71.1884C35.719 70.5846 35.5709 69.9149 35.625 69.1792L38.0144 69.4384C37.9974 69.7924 38.0806 70.1121 38.264 70.3978C38.4477 70.6792 38.7076 70.911 39.0436 71.0932C39.3796 71.2754 39.7658 71.3901 40.2022 71.4375C40.6682 71.4881 41.09 71.4524 41.4676 71.3305C41.8456 71.2043 42.1521 71.0061 42.3872 70.7358C42.6223 70.4656 42.7584 70.1396 42.7955 69.7578C42.8425 69.3643 42.7785 69.0059 42.6035 68.6826C42.4286 68.3593 42.1533 68.0915 41.7777 67.8793C41.4063 67.6675 40.9453 67.5318 40.3945 67.472L39.2443 67.3472L39.4415 65.5298L40.5917 65.6546C41.045 65.7038 41.4496 65.6684 41.8056 65.5484C42.1657 65.4289 42.4586 65.2378 42.6843 64.9751C42.9105 64.7081 43.0419 64.3859 43.0785 64.0084C43.1228 63.6403 43.0749 63.3114 42.9348 63.0219C42.7995 62.7286 42.5876 62.4892 42.2991 62.3036C42.0148 62.1184 41.6694 62.0038 41.2627 61.9597C40.8644 61.9164 40.488 61.9485 40.1335 62.0557C39.7789 62.163 39.4834 62.3388 39.2468 62.5832C39.0108 62.8234 38.8666 63.1249 38.8143 63.4879L36.5457 63.2417C36.6417 62.5149 36.9208 61.8979 37.383 61.3908C37.85 60.88 38.4391 60.5067 39.1505 60.271C39.8624 60.031 40.6398 59.9568 41.4829 60.0483C42.3514 60.1425 43.0878 60.3874 43.6921 60.783C44.3011 61.1749 44.7518 61.6631 45.0441 62.2478C45.3365 62.8324 45.4468 63.4552 45.3751 64.1161C45.2998 64.8495 45.0171 65.4403 44.5269 65.8887C44.041 66.3374 43.4382 66.5999 42.7184 66.6762L42.7073 66.7778C43.6086 67.0042 44.273 67.4192 44.7004 68.0228C45.1326 68.6226 45.3024 69.329 45.2099 70.142C45.1309 70.8706 44.8525 71.5005 44.3748 72.0317C43.9018 72.559 43.2854 72.9465 42.5255 73.1941C41.7699 73.4422 40.9261 73.5156 39.9941 73.4145ZM49.8117 74.499C49.1932 74.4319 48.648 74.2613 48.1763 73.9872C47.7092 73.7094 47.3553 73.3366 47.1146 72.869C46.878 72.4018 46.7945 71.8484 46.8639 71.2087C46.9237 70.658 47.0748 70.2136 47.3172 69.8755C47.5596 69.5375 47.8683 69.2795 48.2434 69.1016C48.6185 68.9237 49.0323 68.8036 49.4848 68.7412C49.9421 68.6751 50.4107 68.6424 50.8907 68.643C51.4691 68.6457 51.9387 68.6431 52.2996 68.6351C52.661 68.6229 52.9277 68.5747 53.0997 68.4905C53.2765 68.4025 53.3768 68.2483 53.4007 68.028L53.4048 67.9899C53.4567 67.5112 53.355 67.1251 53.0997 66.8316C52.8444 66.5382 52.4498 66.3625 51.916 66.3046C51.3525 66.2434 50.8922 66.3178 50.5351 66.5277C50.1823 66.738 49.9305 67.0043 49.7798 67.3266L47.665 66.7885C47.8988 66.2138 48.2322 65.7484 48.6651 65.3925C49.0986 65.0323 49.6078 64.7832 50.1929 64.6453C50.7784 64.503 51.4122 64.4689 52.0943 64.5429C52.5645 64.594 53.0267 64.6998 53.4807 64.8605C53.9348 65.0212 54.3408 65.2496 54.6987 65.5456C55.0571 65.8374 55.3294 66.212 55.5155 66.6694C55.7059 67.1273 55.7659 67.6803 55.6956 68.3285L54.9868 74.8612L52.7753 74.6212L52.9208 73.2804L52.8446 73.2721C52.6753 73.5281 52.4508 73.7609 52.1708 73.9705C51.8956 74.1764 51.5595 74.3307 51.1626 74.4334C50.7704 74.5323 50.3201 74.5541 49.8117 74.499ZM50.5925 72.8734C51.0542 72.9235 51.4645 72.8759 51.8232 72.7305C52.1823 72.5809 52.4695 72.3634 52.6848 72.0781C52.9043 71.7933 53.0336 71.4709 53.0726 71.1108L53.1974 69.9606C53.119 70.0121 52.9901 70.0538 52.8109 70.0858C52.6359 70.1183 52.4405 70.1421 52.2245 70.1572C52.0086 70.1724 51.7952 70.1835 51.5844 70.1906C51.3736 70.1978 51.1907 70.2036 51.0359 70.2083C50.6877 70.2177 50.3723 70.2606 50.0897 70.3371C49.807 70.4136 49.577 70.5386 49.3996 70.7123C49.2226 70.8817 49.118 71.1146 49.0859 71.4112C49.0399 71.8349 49.1598 72.1715 49.4456 72.4211C49.7315 72.6707 50.1137 72.8215 50.5925 72.8734ZM57.2999 75.1121L58.359 65.3512L60.6594 65.6008L60.2319 69.5408L61.0707 69.6318L64.4341 66.0104L67.2048 66.311L63.0691 70.7102L66.1839 76.076L63.4005 75.774L61.1243 71.8044L59.9995 71.6823L59.6003 75.3617L57.2999 75.1121ZM67.091 79.8779L68.5472 66.4566L70.8095 66.7021L70.6344 68.3162L70.7678 68.3307C70.9122 68.1063 71.1069 67.8724 71.3519 67.6289C71.5974 67.3812 71.9147 67.1821 72.304 67.0314C72.6937 66.8765 73.1746 66.8301 73.7465 66.8922C74.5006 66.974 75.1596 67.2405 75.7236 67.6918C76.2923 68.1392 76.7139 68.7572 76.9884 69.5457C77.2676 70.3304 77.3484 71.265 77.2307 72.3495C77.1144 73.4214 76.8398 74.3131 76.4068 75.0249C75.9738 75.7366 75.433 76.2566 74.7845 76.5848C74.1359 76.9131 73.4282 77.0356 72.6614 76.9524C72.1022 76.8917 71.6484 76.7482 71.3 76.5218C70.9517 76.2954 70.6795 76.0387 70.4835 75.7517C70.2921 75.4609 70.1479 75.1902 70.0508 74.9396L69.9554 74.9293L69.3915 80.1275L67.091 79.8779ZM70.2736 71.5819C70.2051 72.2131 70.2341 72.7756 70.3606 73.2694C70.4913 73.7637 70.7116 74.1626 71.0216 74.4663C71.3362 74.7662 71.7371 74.9426 72.2243 74.9954C72.7327 75.0506 73.1732 74.9612 73.5458 74.7273C73.9188 74.4892 74.2179 74.1423 74.4431 73.6866C74.673 73.2272 74.821 72.6925 74.8872 72.0824C74.9529 71.4766 74.9244 70.9291 74.8018 70.44C74.6791 69.9509 74.4607 69.5543 74.1465 69.2502C73.8323 68.9461 73.4188 68.7662 72.9062 68.7106C72.4148 68.6573 71.9835 68.7412 71.6123 68.9624C71.2411 69.1836 70.9412 69.5175 70.7128 69.9642C70.4885 70.4114 70.3421 70.9506 70.2736 71.5819ZM80.9438 71.0164L83.8225 71.3288C85.068 71.4639 85.9989 71.8714 86.6153 72.5512C87.2316 73.231 87.4886 74.0626 87.3862 75.0459C87.3125 75.6852 87.0942 76.2359 86.7312 76.698C86.3723 77.1605 85.8852 77.502 85.2698 77.7225C84.6591 77.9391 83.9385 78.0024 83.1082 77.9123L78.6725 77.431L79.7316 67.6701L81.9494 67.9107L81.0951 75.7843L83.3129 76.0249C83.8128 76.0792 84.2376 75.9966 84.5871 75.7774C84.9371 75.5539 85.134 75.2409 85.1776 74.8384C85.2236 74.4148 85.1001 74.0521 84.8071 73.7502C84.514 73.4484 84.1176 73.2704 83.6177 73.2161L80.739 72.9038L80.9438 71.0164ZM88.2428 78.4694L89.3018 68.7085L91.6023 68.9581L90.5432 78.719L88.2428 78.4694ZM93.2356 71.0449L93.4404 69.1575L101.981 70.0842L101.776 71.9715L98.6181 71.6288L97.7638 79.5024L95.5396 79.2611L96.3939 71.3875L93.2356 71.0449ZM105.025 73.6292L107.904 73.9415C109.149 74.0767 110.08 74.4841 110.697 75.164C111.313 75.8438 111.57 76.6754 111.468 77.6587C111.394 78.298 111.176 78.8486 110.812 79.3108C110.454 79.7733 109.967 80.1148 109.351 80.3352C108.74 80.5519 108.02 80.6151 107.189 80.5251L102.754 80.0438L103.813 70.2829L106.031 70.5235L105.176 78.3971L107.394 78.6377C107.894 78.6919 108.319 78.6094 108.668 78.3902C109.018 78.1667 109.215 77.8537 109.259 77.4512C109.305 77.0276 109.181 76.6648 108.888 76.363C108.595 76.0612 108.199 75.8831 107.699 75.8289L104.82 75.5166L105.025 73.6292Z" fill="white"/>
<defs>
<filter id="filter0_d_275_8" x="0" y="0" width="148" height="148" filterUnits="userSpaceOnUse" color-interpolation-filters="sRGB">
<feFlood flood-opacity="0" result="BackgroundImageFix"/>
<feColorMatrix in="SourceAlpha" type="matrix" values="0 0 0 0 0 0 0 0 0 0 0 0 0 0 0 0 0 0 127 0" result="hardAlpha"/>
<feOffset dy="4"/>
<feGaussianBlur stdDeviation="2"/>
<feComposite in2="hardAlpha" operator="out"/>
<feColorMatrix type="matrix" values="0 0 0 0 0.3025 0 0 0 0 0.3025 0 0 0 0 0.3025 0 0 0 0.25 0"/>
<feBlend mode="normal" in2="BackgroundImageFix" result="effect1_dropShadow_275_8"/>
<feBlend mode="normal" in="SourceGraphic" in2="effect1_dropShadow_275_8" result="shape"/>
</filter>
</defs>
</svg>
