<svg width="1950" height="394" viewBox="0 0 1950 394" fill="none" xmlns="http://www.w3.org/2000/svg">
<g opacity="0.8">
<path d="M0.786183 182.606L4.73182 130.273L1943.5 276.065L1939.55 328.398L0.786183 182.606Z" fill="white" stroke="#8A8A8A"/>
<mask id="mask0_190_90" style="mask-type:luminance" maskUnits="userSpaceOnUse" x="0" y="129" width="1945" height="201">
<path d="M4.88974 130.265L1943.65 276.177L1939.7 328.511L0.947636 182.598L4.88974 130.265Z" fill="white" stroke="white"/>
</mask>
<g mask="url(#mask0_190_90)">
<path d="M49.6749 133.629L-9.59595 181.816L-33.0129 180.046L26.2573 131.881L49.6749 133.629Z" fill="#FF1A1A" stroke="#8A8A8A"/>
<path d="M108.098 138.029L48.8035 186.214L25.3869 184.444L84.6811 136.281L108.098 138.029Z" fill="#FF1A1A" stroke="#8A8A8A"/>
<path d="M166.504 142.426L107.233 190.613L83.8162 188.843L143.086 140.678L166.504 142.426Z" fill="#FF1A1A" stroke="#8A8A8A"/>
<path d="M283.358 151.224L224.062 199.41L200.645 197.641L259.941 149.455L283.358 151.224Z" fill="#FF1A1A" stroke="#8A8A8A"/>
<path d="M400.181 160.02L340.911 208.185L317.493 206.437L376.764 158.251L400.181 160.02Z" fill="#FF1A1A" stroke="#8A8A8A"/>
<path d="M517.006 168.817L457.736 216.982L434.318 215.234L493.589 167.048L517.006 168.817Z" fill="#FF1A1A" stroke="#8A8A8A"/>
<path d="M633.86 177.616L574.566 225.779L551.149 224.009L610.419 175.844L633.86 177.616Z" fill="#FF1A1A" stroke="#8A8A8A"/>
<path d="M224.927 146.826L165.656 195.012L142.239 193.243L201.509 145.078L224.927 146.826Z" fill="#FF1A1A" stroke="#8A8A8A"/>
<path d="M341.756 155.621L282.486 203.786L259.068 202.038L318.339 153.851L341.756 155.621Z" fill="#FF1A1A" stroke="#8A8A8A"/>
<path d="M458.609 164.421L399.315 212.584L375.898 210.836L435.193 162.651L458.609 164.421Z" fill="#FF1A1A" stroke="#8A8A8A"/>
<path d="M575.432 173.217L516.162 221.382L492.72 219.632L552.015 171.447L575.432 173.217Z" fill="#FF1A1A" stroke="#8A8A8A"/>
<path d="M692.258 182.014L632.988 230.178L609.571 228.409L668.841 180.244L692.258 182.014Z" fill="#FF1A1A" stroke="#8A8A8A"/>
<path d="M750.69 186.413L691.42 234.578L667.979 232.806L727.273 184.643L750.69 186.413Z" fill="#FF1A1A" stroke="#8A8A8A"/>
<path d="M809.113 190.79L749.818 238.975L726.401 237.206L785.671 189.041L809.113 190.79Z" fill="#FF1A1A" stroke="#8A8A8A"/>
<path d="M867.518 195.188L808.247 243.375L784.83 241.605L844.1 193.44L867.518 195.188Z" fill="#FF1A1A" stroke="#8A8A8A"/>
<path d="M925.943 199.587L866.672 247.774L843.231 246.002L902.525 197.839L925.943 199.587Z" fill="#FF1A1A" stroke="#8A8A8A"/>
<path d="M984.364 203.987L925.069 252.172L901.652 250.402L960.922 202.237L984.364 203.987Z" fill="#FF1A1A" stroke="#8A8A8A"/>
<path d="M1101.2 212.782L1041.92 260.97L1018.48 259.198L1077.78 211.012L1101.2 212.782Z" fill="#FF1A1A" stroke="#8A8A8A"/>
<path d="M1218.02 221.579L1158.75 269.744L1135.33 267.996L1194.6 219.809L1218.02 221.579Z" fill="#FF1A1A" stroke="#8A8A8A"/>
<path d="M1334.88 230.378L1275.58 278.541L1252.16 276.793L1311.43 228.606L1334.88 230.378Z" fill="#FF1A1A" stroke="#8A8A8A"/>
<path d="M1451.7 239.175L1392.4 287.338L1368.99 285.568L1428.26 237.403L1451.7 239.175Z" fill="#FF1A1A" stroke="#8A8A8A"/>
<path d="M1042.77 208.383L983.499 256.571L960.082 254.801L1019.35 206.613L1042.77 208.383Z" fill="#FF1A1A" stroke="#8A8A8A"/>
<path d="M1159.62 217.182L1100.33 265.346L1076.91 263.598L1136.18 215.411L1159.62 217.182Z" fill="#FF1A1A" stroke="#8A8A8A"/>
<path d="M1276.45 225.978L1217.15 274.142L1193.73 272.394L1253.03 224.209L1276.45 225.978Z" fill="#FF1A1A" stroke="#8A8A8A"/>
<path d="M1393.27 234.775L1334 282.94L1310.58 281.192L1369.86 233.006L1393.27 234.775Z" fill="#FF1A1A" stroke="#8A8A8A"/>
<path d="M1510.1 243.572L1450.83 291.737L1427.42 289.967L1486.69 241.802L1510.1 243.572Z" fill="#FF1A1A" stroke="#8A8A8A"/>
<path d="M1568.53 247.95L1509.25 296.136L1485.84 294.367L1545.11 246.202L1568.53 247.95Z" fill="#FF1A1A" stroke="#8A8A8A"/>
<path d="M1626.96 252.371L1567.66 300.534L1544.24 298.764L1603.51 250.599L1626.96 252.371Z" fill="#FF1A1A" stroke="#8A8A8A"/>
<path d="M1685.36 256.747L1626.08 304.933L1602.67 303.164L1661.94 254.999L1685.36 256.747Z" fill="#FF1A1A" stroke="#8A8A8A"/>
<path d="M1802.21 265.545L1742.91 313.73L1719.49 311.96L1778.76 263.795L1802.21 265.545Z" fill="#FF1A1A" stroke="#8A8A8A"/>
<path d="M1743.78 261.145L1684.51 309.332L1661.07 307.56L1720.36 259.397L1743.78 261.145Z" fill="#FF1A1A" stroke="#8A8A8A"/>
<path d="M1860.61 269.941L1801.34 318.129L1777.92 316.359L1837.19 268.172L1860.61 269.941Z" fill="#FF1A1A" stroke="#8A8A8A"/>
<path d="M1919.04 274.341L1859.77 322.528L1836.32 320.757L1895.62 272.571L1919.04 274.341Z" fill="#FF1A1A" stroke="#8A8A8A"/>
<path d="M1977.46 278.74L1918.16 326.926L1894.75 325.156L1954.02 276.969L1977.46 278.74Z" fill="#FF1A1A" stroke="#8A8A8A"/>
</g>
</g>
<g opacity="0.8">
<path d="M9.49951 389.654L0.67076 338.468L1939.96 3.40887L1948.79 54.5947L9.49951 389.654Z" fill="white" stroke="#8A8A8A"/>
<mask id="mask1_190_90" style="mask-type:luminance" maskUnits="userSpaceOnUse" x="0" y="2" width="1950" height="389">
<path d="M0.81699 338.423L1940.13 3.497L1948.96 54.6822L9.64975 389.608L0.81699 338.423Z" fill="white" stroke="white"/>
</mask>
<g mask="url(#mask1_190_90)">
<path d="M45.62 330.679L-0.876586 391.437L-24.3022 395.475L22.1991 334.738L45.62 330.679Z" fill="#FF1A1A" stroke="#8A8A8A"/>
<path d="M104.06 320.588L57.5395 381.35L34.1142 385.388L80.6395 324.647L104.06 320.588Z" fill="#FF1A1A" stroke="#8A8A8A"/>
<path d="M162.482 310.5L115.986 371.258L92.5601 375.297L139.061 314.56L162.482 310.5Z" fill="#FF1A1A" stroke="#8A8A8A"/>
<path d="M279.37 290.317L232.848 351.08L209.422 355.119L255.944 294.356L279.37 290.317Z" fill="#FF1A1A" stroke="#8A8A8A"/>
<path d="M396.225 270.14L349.724 330.877L326.303 334.936L372.8 274.178L396.225 270.14Z" fill="#FF1A1A" stroke="#8A8A8A"/>
<path d="M513.088 249.962L466.586 310.699L443.165 314.758L489.662 254L513.088 249.962Z" fill="#FF1A1A" stroke="#8A8A8A"/>
<path d="M629.974 229.779L583.449 290.52L560.023 294.558L606.524 233.822L629.974 229.779Z" fill="#FF1A1A" stroke="#8A8A8A"/>
<path d="M220.922 300.411L174.425 361.168L151 365.207L197.501 304.47L220.922 300.411Z" fill="#FF1A1A" stroke="#8A8A8A"/>
<path d="M337.787 280.231L291.285 340.967L267.864 345.027L314.361 284.269L337.787 280.231Z" fill="#FF1A1A" stroke="#8A8A8A"/>
<path d="M454.671 260.049L408.146 320.79L384.725 324.849L431.246 264.087L454.671 260.049Z" fill="#FF1A1A" stroke="#8A8A8A"/>
<path d="M571.528 239.871L525.027 300.608L501.582 304.671L548.102 243.909L571.528 239.871Z" fill="#FF1A1A" stroke="#8A8A8A"/>
<path d="M688.389 219.693L641.888 280.429L618.462 284.467L664.964 223.731L688.389 219.693Z" fill="#FF1A1A" stroke="#8A8A8A"/>
<path d="M746.839 209.601L700.337 270.338L676.888 274.38L723.413 213.64L746.839 209.601Z" fill="#FF1A1A" stroke="#8A8A8A"/>
<path d="M805.271 199.489L758.75 260.251L735.325 264.29L781.826 203.553L805.271 199.489Z" fill="#FF1A1A" stroke="#8A8A8A"/>
<path d="M863.693 189.402L817.197 250.16L793.771 254.198L840.272 193.461L863.693 189.402Z" fill="#FF1A1A" stroke="#8A8A8A"/>
<path d="M922.136 179.311L875.639 240.068L852.189 244.111L898.715 183.37L922.136 179.311Z" fill="#FF1A1A" stroke="#8A8A8A"/>
<path d="M980.573 169.22L934.052 229.982L910.627 234.02L957.128 173.283L980.573 169.22Z" fill="#FF1A1A" stroke="#8A8A8A"/>
<path d="M1097.44 149.041L1050.94 209.8L1027.49 213.842L1074.01 153.079L1097.44 149.041Z" fill="#FF1A1A" stroke="#8A8A8A"/>
<path d="M1214.3 128.862L1167.8 189.599L1144.38 193.659L1190.87 132.901L1214.3 128.862Z" fill="#FF1A1A" stroke="#8A8A8A"/>
<path d="M1331.18 108.68L1284.66 169.421L1261.24 173.481L1307.74 112.723L1331.18 108.68Z" fill="#FF1A1A" stroke="#8A8A8A"/>
<path d="M1448.04 88.5028L1401.52 149.244L1378.09 153.282L1424.59 92.5453L1448.04 88.5028Z" fill="#FF1A1A" stroke="#8A8A8A"/>
<path d="M1039 159.131L992.499 219.89L969.073 223.929L1015.57 163.169L1039 159.131Z" fill="#FF1A1A" stroke="#8A8A8A"/>
<path d="M1155.88 138.949L1109.36 199.69L1085.94 203.749L1132.43 142.992L1155.88 138.949Z" fill="#FF1A1A" stroke="#8A8A8A"/>
<path d="M1272.74 118.772L1226.21 179.513L1202.79 183.573L1249.31 122.811L1272.74 118.772Z" fill="#FF1A1A" stroke="#8A8A8A"/>
<path d="M1389.6 98.5939L1343.1 159.331L1319.68 163.39L1366.18 102.632L1389.6 98.5939Z" fill="#FF1A1A" stroke="#8A8A8A"/>
<path d="M1506.46 78.4152L1459.96 139.152L1436.54 143.19L1483.04 82.4535L1506.46 78.4152Z" fill="#FF1A1A" stroke="#8A8A8A"/>
<path d="M1564.9 68.3032L1518.4 129.061L1494.98 133.099L1541.48 72.3625L1564.9 68.3032Z" fill="#FF1A1A" stroke="#8A8A8A"/>
<path d="M1623.35 58.2332L1576.82 118.974L1553.4 123.012L1599.9 62.2758L1623.35 58.2332Z" fill="#FF1A1A" stroke="#8A8A8A"/>
<path d="M1681.76 48.1254L1635.27 108.883L1611.84 112.922L1658.34 52.1848L1681.76 48.1254Z" fill="#FF1A1A" stroke="#8A8A8A"/>
<path d="M1798.65 27.9434L1752.13 88.7055L1728.7 92.7438L1775.2 32.0071L1798.65 27.9434Z" fill="#FF1A1A" stroke="#8A8A8A"/>
<path d="M1740.2 38.0342L1693.7 98.792L1670.25 102.835L1716.78 42.0936L1740.2 38.0342Z" fill="#FF1A1A" stroke="#8A8A8A"/>
<path d="M1857.07 17.8555L1810.57 78.6147L1787.14 82.6531L1833.64 21.894L1857.07 17.8555Z" fill="#FF1A1A" stroke="#8A8A8A"/>
<path d="M1915.51 7.76337L1869.01 68.5225L1845.56 72.5651L1892.08 11.8018L1915.51 7.76337Z" fill="#FF1A1A" stroke="#8A8A8A"/>
<path d="M1973.95 -2.32731L1927.43 58.436L1904 62.4744L1950.5 1.71524L1973.95 -2.32731Z" fill="#FF1A1A" stroke="#8A8A8A"/>
</g>
</g>
</svg>
