<svg width="415" height="192" viewBox="0 0 415 192" fill="none" xmlns="http://www.w3.org/2000/svg">
<path d="M214.168 145.759C208.127 158.548 200.045 158.548 197.385 158.548C190.954 158.548 185.613 154.48 181.532 146.47C176.625 136.844 174.023 122.404 174.023 104.688C174.023 104.458 174.023 104.229 174.023 104H140V104.527C140.229 129.67 145.445 150.607 155.063 165.08C165.024 180.058 179.262 188 196.239 188C214.936 188 230.17 179.909 240.327 164.576C249.876 150.171 254.794 129.796 255 104.023H220.977C220.92 121.877 218.558 136.294 214.168 145.759Z" fill="#4D4D4D"/>
<path d="M278.588 45.9796C272.691 29.1746 260.497 18.069 243.336 13.8641C226.384 9.71056 210.224 13.8334 196.592 25.7367C183.198 37.4302 173.006 56.393 167.009 80.5822L199.775 88.6108C204.068 71.3752 210.124 57.9301 217.31 49.754C223.203 43.0338 229.264 40.3552 235.312 41.8371C243.71 43.8949 256.156 54.0706 245.132 99.0598C245.078 99.2799 245.024 99.4999 244.97 99.72L277.725 107.746C277.852 107.229 277.976 106.723 278.103 106.206C283.996 82.1541 284.121 61.8792 278.588 45.9796Z" fill="#4D4D4D"/>
<path d="M400.926 110.848L387.148 112.19L378.216 20.4792L346.327 23.5848L344.565 26.7104L288.121 127.238L287.061 129.128L289.22 151.301L357.603 144.642L361.52 184.872L393.964 181.712L390.052 141.539L410.651 139.533L407.793 110.18L400.926 110.848ZM326.265 118.119L350.806 75.7935L354.659 115.354L326.265 118.119Z" fill="#4D4D4D"/>
<path d="M80.3245 128.657L151.316 81.7447L157 77.9662L153.226 72.2757L141.324 54.214L139.346 51.2208L135.776 51.1298L20.6666 48.0683L18.5067 48L16.6992 49.2064L5.68388 56.4902L0 60.2687L3.78546 65.9593L37.8887 117.64L10.0036 136.055L4.31975 139.845L8.09385 145.535L18.4953 161.309L22.2808 167L27.9647 163.21L55.8384 144.796L63.4662 156.359L67.2516 162.049L72.9355 158.259L86.0425 149.598L91.7264 145.82L87.9409 140.129L80.3245 128.657ZM46.6419 77.5679L95.4436 79.5368L62.3635 101.411L46.6419 77.5679Z" fill="#4D4D4D"/>
</svg>
