<svg width="148" height="148" viewBox="0 0 148 148" fill="none" xmlns="http://www.w3.org/2000/svg">
<g filter="url(#filter0_d_23_8186)">
<circle cx="74" cy="70" r="70" fill="#FF1A1A"/>
</g>
<circle cx="74" cy="70" r="64.5" stroke="white"/>
<path d="M40.6623 73.0595C39.7473 72.9602 38.9509 72.7152 38.2731 72.3245C37.5997 71.9342 37.0878 71.4372 36.7375 70.8334C36.3873 70.2296 36.2392 69.5598 36.2933 68.8242L38.6827 69.0834C38.6657 69.4373 38.7489 69.7571 38.9322 70.0428C39.116 70.3242 39.3759 70.556 39.7119 70.7382C40.0479 70.9204 40.4341 71.0351 40.8704 71.0825C41.3364 71.133 41.7582 71.0973 42.1358 70.9754C42.5138 70.8493 42.8204 70.6511 43.0554 70.3808C43.2905 70.1106 43.4266 69.7846 43.4637 69.4028C43.5107 69.0093 43.4467 68.6509 43.2718 68.3275C43.0968 68.0042 42.8216 67.7365 42.4459 67.5243C42.0746 67.3125 41.6135 67.1768 41.0628 67.117L39.9126 66.9922L40.1097 65.1748L41.26 65.2995C41.7133 65.3487 42.1179 65.3133 42.4738 65.1934C42.834 65.0738 43.1269 64.8827 43.3526 64.62C43.5787 64.3531 43.7101 64.0309 43.7468 63.6534C43.791 63.2852 43.7431 62.9564 43.6031 62.6669C43.4677 62.3736 43.2558 62.1341 42.9673 61.9485C42.6831 61.7634 42.3376 61.6487 41.9309 61.6046C41.5327 61.5614 41.1563 61.5934 40.8017 61.7007C40.4472 61.808 40.1516 61.9838 39.9151 62.2282C39.679 62.4683 39.5348 62.7699 39.4826 63.1328L37.2139 62.8867C37.31 62.1598 37.5891 61.5429 38.0513 61.0358C38.5182 60.525 39.1074 60.1517 39.8188 59.9159C40.5306 59.676 41.3081 59.6017 42.1511 59.6932C43.0196 59.7874 43.756 60.0324 44.3603 60.428C44.9694 60.8198 45.42 61.3081 45.7124 61.8927C46.0047 62.4774 46.115 63.1002 46.0433 63.7611C45.968 64.4944 45.6853 65.0853 45.1952 65.5336C44.7093 65.9824 44.1064 66.2449 43.3866 66.3211L43.3756 66.4228C44.2769 66.6492 44.9412 67.0642 45.3687 67.6678C45.8008 68.2676 45.9706 68.974 45.8782 69.7869C45.7991 70.5156 45.5207 71.1455 45.043 71.6766C44.57 72.204 43.9536 72.5915 43.1938 72.8391C42.4382 73.0871 41.5944 73.1606 40.6623 73.0595ZM50.48 74.144C49.8614 74.0769 49.3163 73.9063 48.8445 73.6322C48.3774 73.3543 48.0235 72.9816 47.7828 72.514C47.5463 72.0468 47.4627 71.4934 47.5322 70.8537C47.5919 70.3029 47.743 69.8585 47.9854 69.5205C48.2278 69.1825 48.5366 68.9245 48.9117 68.7466C49.2867 68.5687 49.7005 68.4485 50.1531 68.3862C50.6103 68.3201 51.079 68.2873 51.559 68.288C52.1373 68.2907 52.607 68.2881 52.9679 68.2801C53.3293 68.2679 53.596 68.2197 53.768 68.1354C53.9447 68.0475 54.045 67.8933 54.0689 67.673L54.073 67.6349C54.125 67.1562 54.0233 66.7701 53.7679 66.4766C53.5126 66.1832 53.118 66.0075 52.5842 65.9495C52.0208 65.8884 51.5605 65.9628 51.2034 66.1726C50.8505 66.383 50.5987 66.6493 50.448 66.9715L48.3332 66.4335C48.567 65.8587 48.9004 65.3934 49.3334 65.0375C49.7668 64.6773 50.276 64.4282 50.8611 64.2902C51.4466 64.148 52.0804 64.1139 52.7625 64.1879C53.2327 64.2389 53.6949 64.3448 54.149 64.5055C54.603 64.6662 55.009 64.8946 55.367 65.1906C55.7254 65.4824 55.9976 65.857 56.1838 66.3144C56.3741 66.7722 56.4341 67.3253 56.3638 67.9734L55.655 74.5061L53.4436 74.2662L53.5891 72.9253L53.5128 72.9171C53.3436 73.173 53.119 73.4058 52.8391 73.6155C52.5638 73.8214 52.2278 73.9757 51.8309 74.0784C51.4386 74.1773 50.9883 74.1991 50.48 74.144ZM51.2607 72.5184C51.7225 72.5685 52.1327 72.5209 52.4914 72.3755C52.8505 72.2258 53.1377 72.0084 53.353 71.7231C53.5725 71.4383 53.7018 71.1159 53.7409 70.7558L53.8657 69.6056C53.7872 69.657 53.6584 69.6988 53.4792 69.7308C53.3042 69.7632 53.1087 69.787 52.8928 69.8022C52.6768 69.8173 52.4634 69.8285 52.2526 69.8356C52.0418 69.8427 51.859 69.8486 51.7042 69.8532C51.356 69.8626 51.0405 69.9056 50.7579 69.982C50.4753 70.0585 50.2453 70.1836 50.0678 70.3572C49.8908 70.5266 49.7863 70.7596 49.7541 71.0562C49.7081 71.4798 49.8281 71.8165 50.1139 72.0661C50.3997 72.3157 50.782 72.4665 51.2607 72.5184ZM57.9682 74.7571L59.0272 64.9962L61.3276 65.2458L60.9001 69.1857L61.739 69.2768L65.1023 65.6553L67.873 65.956L63.7373 70.3551L66.8521 75.721L64.0687 75.419L61.7926 71.4493L60.6678 71.3273L60.2686 75.0067L57.9682 74.7571ZM70.9438 76.3643C70.3253 76.2971 69.7802 76.1266 69.3084 75.8525C68.8413 75.5746 68.4874 75.2019 68.2467 74.7343C68.0102 74.2671 67.9266 73.7137 67.996 73.074C68.0558 72.5232 68.2069 72.0788 68.4493 71.7408C68.6917 71.4028 69.0005 71.1448 69.3755 70.9669C69.7506 70.789 70.1644 70.6688 70.617 70.6065C71.0742 70.5404 71.5428 70.5076 72.0228 70.5083C72.6012 70.511 73.0709 70.5084 73.4318 70.5004C73.7932 70.4882 74.0599 70.4399 74.2319 70.3557C74.4086 70.2677 74.5089 70.1136 74.5328 69.8933L74.5369 69.8552C74.5889 69.3765 74.4872 68.9904 74.2318 68.6969C73.9765 68.4034 73.5819 68.2278 73.0481 68.1698C72.4847 68.1087 72.0244 68.1831 71.6673 68.3929C71.3144 68.6033 71.0626 68.8696 70.9119 69.1918L68.7971 68.6538C69.0309 68.079 69.3643 67.6137 69.7973 67.2578C70.2307 66.8976 70.7399 66.6485 71.325 66.5105C71.9105 66.3683 72.5443 66.3342 73.2264 66.4082C73.6966 66.4592 74.1588 66.5651 74.6129 66.7258C75.0669 66.8865 75.4729 67.1149 75.8309 67.4109C76.1893 67.7027 76.4615 68.0773 76.6477 68.5347C76.838 68.9925 76.898 69.5456 76.8277 70.1937L76.1189 76.7264L73.9075 76.4865L74.0529 75.1456L73.9767 75.1374C73.8075 75.3933 73.5829 75.6261 73.303 75.8358C73.0277 76.0417 72.6917 76.196 72.2947 76.2986C71.9025 76.3975 71.4522 76.4194 70.9438 76.3643ZM71.7246 74.7387C72.1864 74.7888 72.5966 74.7412 72.9553 74.5958C73.3144 74.4461 73.6016 74.2287 73.8169 73.9434C74.0364 73.6586 74.1657 73.3362 74.2048 72.9761L74.3296 71.8258C74.2511 71.8773 74.1223 71.9191 73.9431 71.9511C73.7681 71.9835 73.5726 72.0073 73.3566 72.0225C73.1407 72.0376 72.9273 72.0488 72.7165 72.0559C72.5057 72.063 72.3229 72.0689 72.1681 72.0735C71.8199 72.0829 71.5044 72.1258 71.2218 72.2023C70.9392 72.2788 70.7091 72.4039 70.5317 72.5775C70.3547 72.7469 70.2502 72.9799 70.218 73.2765C70.172 73.7001 70.2919 74.0367 70.5778 74.2864C70.8636 74.536 71.2459 74.6868 71.7246 74.7387ZM78.1822 74.2434L80.4635 74.491C80.4452 74.8576 80.5777 75.157 80.8611 75.3892C81.1446 75.6214 81.5299 75.764 82.0171 75.8168C82.5127 75.8706 82.9418 75.8079 83.3041 75.6286C83.6712 75.4455 83.8788 75.1316 83.9271 74.6867C83.9556 74.4241 83.915 74.186 83.8053 73.9727C83.696 73.7551 83.5287 73.5783 83.3034 73.4424C83.0781 73.3066 82.8045 73.2211 82.4825 73.1862L80.9891 73.0242L81.1663 71.391L82.6597 71.553C83.1384 71.605 83.5126 71.5341 83.7822 71.3405C84.0561 71.1473 84.2112 70.8834 84.2475 70.5487C84.2865 70.1886 84.1869 69.882 83.9486 69.629C83.7146 69.3764 83.3688 69.2253 82.9112 69.1757C82.4537 69.126 82.0611 69.1885 81.7336 69.3629C81.4103 69.5379 81.2246 69.7878 81.1765 70.1126L78.9078 69.8665C78.9779 69.2997 79.2009 68.8245 79.5768 68.441C79.957 68.0579 80.4415 67.7804 81.0302 67.6085C81.6232 67.4371 82.2755 67.39 82.9873 67.4672C83.7499 67.55 84.3962 67.7358 84.9264 68.0248C85.4565 68.3138 85.8497 68.6801 86.1059 69.1237C86.3626 69.563 86.461 70.058 86.4013 70.6088C86.3438 71.1383 86.131 71.5589 85.7629 71.8704C85.3952 72.1777 84.9237 72.3752 84.3484 72.4628L84.3374 72.5645C84.7206 72.6275 85.0561 72.7753 85.3437 73.008C85.6318 73.2364 85.8488 73.5279 85.9947 73.8823C86.1405 74.2368 86.1896 74.6343 86.1418 75.0749C86.077 75.6722 85.8493 76.1705 85.4588 76.5696C85.0688 76.9645 84.5603 77.2458 83.9334 77.4135C83.3108 77.5817 82.614 77.624 81.8429 77.5404C81.0931 77.459 80.4338 77.2739 79.865 76.985C79.301 76.6923 78.8685 76.3132 78.5675 75.8476C78.2665 75.382 78.1381 74.8473 78.1822 74.2434ZM90.4466 78.4803C89.828 78.4132 89.2829 78.2426 88.8111 77.9685C88.3441 77.6906 87.9902 77.3179 87.7494 76.8503C87.5129 76.3831 87.4294 75.8297 87.4988 75.19C87.5585 74.6392 87.7096 74.1948 87.952 73.8568C88.1945 73.5188 88.5032 73.2608 88.8783 73.0829C89.2534 72.905 89.6672 72.7848 90.1197 72.7225C90.577 72.6564 91.0456 72.6236 91.5256 72.6243C92.1039 72.627 92.5736 72.6244 92.9345 72.6164C93.2959 72.6042 93.5626 72.556 93.7346 72.4717C93.9113 72.3838 94.0116 72.2296 94.0355 72.0093L94.0397 71.9712C94.0916 71.4925 93.9899 71.1064 93.7346 70.8129C93.4792 70.5195 93.0846 70.3438 92.5508 70.2858C91.9874 70.2247 91.5271 70.2991 91.17 70.5089C90.8171 70.7193 90.5653 70.9856 90.4146 71.3078L88.2998 70.7698C88.5336 70.195 88.867 69.7297 89.3 69.3738C89.7334 69.0136 90.2427 68.7645 90.8277 68.6265C91.4132 68.4843 92.047 68.4502 92.7291 68.5242C93.1994 68.5752 93.6615 68.6811 94.1156 68.8418C94.5697 69.0025 94.9757 69.2309 95.3336 69.5269C95.692 69.8187 95.9643 70.1933 96.1504 70.6507C96.3407 71.1085 96.4008 71.6616 96.3304 72.3097L95.6217 78.8424L93.4102 78.6025L93.5557 77.2616L93.4794 77.2534C93.3102 77.5093 93.0856 77.7422 92.8057 77.9518C92.5305 78.1577 92.1944 78.312 91.7975 78.4147C91.4053 78.5136 90.955 78.5354 90.4466 78.4803ZM91.2273 76.8547C91.6891 76.9048 92.0993 76.8572 92.458 76.7118C92.8172 76.5621 93.1044 76.3447 93.3196 76.0594C93.5391 75.7746 93.6684 75.4522 93.7075 75.0921L93.8323 73.9419C93.7538 73.9933 93.625 74.0351 93.4458 74.0671C93.2708 74.0995 93.0753 74.1233 92.8594 74.1385C92.6434 74.1536 92.43 74.1648 92.2192 74.1719C92.0084 74.179 91.8256 74.1849 91.6708 74.1896C91.3226 74.1989 91.0072 74.2419 90.7245 74.3183C90.4419 74.3948 90.2119 74.5199 90.0344 74.6935C89.8575 74.8629 89.7529 75.0959 89.7207 75.3925C89.6748 75.8161 89.7947 76.1528 90.0805 76.4024C90.3663 76.652 90.7486 76.8028 91.2273 76.8547ZM97.696 71.1013L97.9008 69.2139L106.442 70.1406L106.237 72.0279L103.079 71.6853L102.224 79.5588L100 79.3175L100.854 71.4439L97.696 71.1013ZM109.486 73.6856L112.364 73.9979C113.61 74.1331 114.541 74.5406 115.157 75.2204C115.773 75.9002 116.03 76.7318 115.928 77.7151C115.854 78.3544 115.636 78.9051 115.273 79.3672C114.914 79.8297 114.427 80.1712 113.812 80.3917C113.201 80.6083 112.48 80.6716 111.65 80.5815L107.214 80.1002L108.273 70.3393L110.491 70.5799L109.637 78.4535L111.855 78.6941C112.355 78.7483 112.779 78.6658 113.129 78.4466C113.479 78.2231 113.676 77.9101 113.719 77.5076C113.765 77.084 113.642 76.7212 113.349 76.4194C113.056 76.1176 112.659 75.9395 112.159 75.8853L109.281 75.573L109.486 73.6856Z" fill="white"/>
<defs>
<filter id="filter0_d_23_8186" x="0" y="0" width="148" height="148" filterUnits="userSpaceOnUse" color-interpolation-filters="sRGB">
<feFlood flood-opacity="0" result="BackgroundImageFix"/>
<feColorMatrix in="SourceAlpha" type="matrix" values="0 0 0 0 0 0 0 0 0 0 0 0 0 0 0 0 0 0 127 0" result="hardAlpha"/>
<feOffset dy="4"/>
<feGaussianBlur stdDeviation="2"/>
<feComposite in2="hardAlpha" operator="out"/>
<feColorMatrix type="matrix" values="0 0 0 0 0 0 0 0 0 0 0 0 0 0 0 0 0 0 0.25 0"/>
<feBlend mode="normal" in2="BackgroundImageFix" result="effect1_dropShadow_23_8186"/>
<feBlend mode="normal" in="SourceGraphic" in2="effect1_dropShadow_23_8186" result="shape"/>
</filter>
</defs>
</svg>
