<svg width="140" height="140" viewBox="0 0 140 140" fill="none" xmlns="http://www.w3.org/2000/svg">
<circle cx="70" cy="70" r="70" fill="#FF1A1A"/>
<circle cx="70" cy="70" r="64.5" stroke="white"/>
<path d="M36.6623 73.0595C35.7473 72.9602 34.9509 72.7152 34.2731 72.3245C33.5997 71.9342 33.0878 71.4372 32.7375 70.8334C32.3873 70.2296 32.2392 69.5598 32.2933 68.8242L34.6827 69.0834C34.6657 69.4373 34.7489 69.7571 34.9322 70.0428C35.116 70.3242 35.3759 70.556 35.7119 70.7382C36.0479 70.9204 36.4341 71.0351 36.8704 71.0825C37.3364 71.133 37.7582 71.0973 38.1358 70.9754C38.5138 70.8493 38.8204 70.6511 39.0554 70.3808C39.2905 70.1106 39.4266 69.7846 39.4637 69.4028C39.5107 69.0093 39.4467 68.6509 39.2718 68.3275C39.0968 68.0042 38.8216 67.7365 38.4459 67.5243C38.0746 67.3125 37.6135 67.1768 37.0628 67.117L35.9126 66.9922L36.1097 65.1748L37.26 65.2995C37.7133 65.3487 38.1179 65.3133 38.4738 65.1934C38.834 65.0738 39.1269 64.8827 39.3526 64.62C39.5787 64.3531 39.7101 64.0309 39.7468 63.6534C39.791 63.2852 39.7431 62.9564 39.6031 62.6669C39.4677 62.3736 39.2558 62.1341 38.9673 61.9485C38.6831 61.7634 38.3376 61.6487 37.9309 61.6046C37.5327 61.5614 37.1563 61.5934 36.8017 61.7007C36.4472 61.808 36.1516 61.9838 35.9151 62.2282C35.679 62.4683 35.5348 62.7699 35.4826 63.1328L33.2139 62.8867C33.31 62.1598 33.5891 61.5429 34.0513 61.0358C34.5182 60.525 35.1074 60.1517 35.8188 59.9159C36.5306 59.676 37.3081 59.6017 38.1511 59.6932C39.0196 59.7874 39.756 60.0324 40.3603 60.428C40.9694 60.8198 41.42 61.3081 41.7124 61.8927C42.0047 62.4774 42.115 63.1002 42.0433 63.7611C41.968 64.4944 41.6853 65.0853 41.1952 65.5336C40.7093 65.9824 40.1064 66.2449 39.3866 66.3211L39.3756 66.4228C40.2769 66.6492 40.9412 67.0642 41.3687 67.6678C41.8008 68.2676 41.9706 68.974 41.8782 69.7869C41.7991 70.5156 41.5207 71.1455 41.043 71.6766C40.57 72.204 39.9536 72.5915 39.1938 72.8391C38.4382 73.0871 37.5944 73.1606 36.6623 73.0595ZM46.48 74.144C45.8614 74.0769 45.3163 73.9063 44.8445 73.6322C44.3774 73.3543 44.0235 72.9816 43.7828 72.514C43.5463 72.0468 43.4627 71.4934 43.5322 70.8537C43.5919 70.3029 43.743 69.8585 43.9854 69.5205C44.2278 69.1825 44.5366 68.9245 44.9117 68.7466C45.2867 68.5687 45.7005 68.4485 46.1531 68.3862C46.6103 68.3201 47.079 68.2873 47.559 68.288C48.1373 68.2907 48.607 68.2881 48.9679 68.2801C49.3293 68.2679 49.596 68.2197 49.768 68.1354C49.9447 68.0475 50.045 67.8933 50.0689 67.673L50.073 67.6349C50.125 67.1562 50.0233 66.7701 49.7679 66.4766C49.5126 66.1832 49.118 66.0075 48.5842 65.9495C48.0208 65.8884 47.5605 65.9628 47.2034 66.1726C46.8505 66.383 46.5987 66.6493 46.448 66.9715L44.3332 66.4335C44.567 65.8587 44.9004 65.3934 45.3334 65.0375C45.7668 64.6773 46.276 64.4282 46.8611 64.2902C47.4466 64.148 48.0804 64.1139 48.7625 64.1879C49.2327 64.2389 49.6949 64.3448 50.149 64.5055C50.603 64.6662 51.009 64.8946 51.367 65.1906C51.7254 65.4824 51.9976 65.857 52.1838 66.3144C52.3741 66.7722 52.4341 67.3253 52.3638 67.9734L51.655 74.5061L49.4436 74.2662L49.5891 72.9253L49.5128 72.9171C49.3436 73.173 49.119 73.4058 48.8391 73.6155C48.5638 73.8214 48.2278 73.9757 47.8309 74.0784C47.4386 74.1773 46.9883 74.1991 46.48 74.144ZM47.2607 72.5184C47.7225 72.5685 48.1327 72.5209 48.4914 72.3755C48.8505 72.2258 49.1377 72.0084 49.353 71.7231C49.5725 71.4383 49.7018 71.1159 49.7409 70.7558L49.8657 69.6056C49.7872 69.657 49.6584 69.6988 49.4792 69.7308C49.3042 69.7632 49.1087 69.787 48.8928 69.8022C48.6768 69.8173 48.4634 69.8285 48.2526 69.8356C48.0418 69.8427 47.859 69.8486 47.7042 69.8532C47.356 69.8626 47.0405 69.9056 46.7579 69.982C46.4753 70.0585 46.2453 70.1836 46.0678 70.3572C45.8908 70.5266 45.7863 70.7596 45.7541 71.0562C45.7081 71.4798 45.8281 71.8165 46.1139 72.0661C46.3997 72.3157 46.782 72.4665 47.2607 72.5184ZM53.9682 74.7571L55.0272 64.9962L57.3276 65.2458L56.9001 69.1857L57.739 69.2768L61.1023 65.6553L63.873 65.956L59.7373 70.3551L62.8521 75.721L60.0687 75.419L57.7926 71.4493L56.6678 71.3273L56.2686 75.0067L53.9682 74.7571ZM66.9438 76.3643C66.3253 76.2971 65.7802 76.1266 65.3084 75.8525C64.8413 75.5746 64.4874 75.2019 64.2467 74.7343C64.0102 74.2671 63.9266 73.7137 63.996 73.074C64.0558 72.5232 64.2069 72.0788 64.4493 71.7408C64.6917 71.4028 65.0005 71.1448 65.3755 70.9669C65.7506 70.789 66.1644 70.6688 66.617 70.6065C67.0742 70.5404 67.5428 70.5076 68.0228 70.5083C68.6012 70.511 69.0709 70.5084 69.4318 70.5004C69.7932 70.4882 70.0599 70.4399 70.2319 70.3557C70.4086 70.2677 70.5089 70.1136 70.5328 69.8933L70.5369 69.8552C70.5889 69.3765 70.4872 68.9904 70.2318 68.6969C69.9765 68.4034 69.5819 68.2278 69.0481 68.1698C68.4847 68.1087 68.0244 68.1831 67.6673 68.3929C67.3144 68.6033 67.0626 68.8696 66.9119 69.1918L64.7971 68.6538C65.0309 68.079 65.3643 67.6137 65.7973 67.2578C66.2307 66.8976 66.7399 66.6485 67.325 66.5105C67.9105 66.3683 68.5443 66.3342 69.2264 66.4082C69.6966 66.4592 70.1588 66.5651 70.6129 66.7258C71.0669 66.8865 71.4729 67.1149 71.8309 67.4109C72.1893 67.7027 72.4615 68.0773 72.6477 68.5347C72.838 68.9925 72.898 69.5456 72.8277 70.1937L72.1189 76.7264L69.9075 76.4865L70.0529 75.1456L69.9767 75.1374C69.8075 75.3933 69.5829 75.6261 69.303 75.8358C69.0277 76.0417 68.6917 76.196 68.2947 76.2986C67.9025 76.3975 67.4522 76.4194 66.9438 76.3643ZM67.7246 74.7387C68.1864 74.7888 68.5966 74.7412 68.9553 74.5958C69.3144 74.4461 69.6016 74.2287 69.8169 73.9434C70.0364 73.6586 70.1657 73.3362 70.2048 72.9761L70.3296 71.8258C70.2511 71.8773 70.1223 71.9191 69.9431 71.9511C69.7681 71.9835 69.5726 72.0073 69.3566 72.0225C69.1407 72.0376 68.9273 72.0488 68.7165 72.0559C68.5057 72.063 68.3229 72.0689 68.1681 72.0735C67.8199 72.0829 67.5044 72.1258 67.2218 72.2023C66.9392 72.2788 66.7091 72.4039 66.5317 72.5775C66.3547 72.7469 66.2502 72.9799 66.218 73.2765C66.172 73.7001 66.2919 74.0367 66.5778 74.2864C66.8636 74.536 67.2459 74.6868 67.7246 74.7387ZM74.1822 74.2434L76.4635 74.491C76.4452 74.8576 76.5777 75.157 76.8611 75.3892C77.1446 75.6214 77.5299 75.764 78.0171 75.8168C78.5127 75.8706 78.9418 75.8079 79.3041 75.6286C79.6712 75.4455 79.8788 75.1316 79.9271 74.6867C79.9556 74.4241 79.915 74.186 79.8053 73.9727C79.696 73.7551 79.5287 73.5783 79.3034 73.4424C79.0781 73.3066 78.8045 73.2211 78.4825 73.1862L76.9891 73.0242L77.1663 71.391L78.6597 71.553C79.1384 71.605 79.5126 71.5341 79.7822 71.3405C80.0561 71.1473 80.2112 70.8834 80.2475 70.5487C80.2865 70.1886 80.1869 69.882 79.9486 69.629C79.7146 69.3764 79.3688 69.2253 78.9112 69.1757C78.4537 69.126 78.0611 69.1885 77.7336 69.3629C77.4103 69.5379 77.2246 69.7878 77.1765 70.1126L74.9078 69.8665C74.9779 69.2997 75.2009 68.8245 75.5768 68.441C75.957 68.0579 76.4415 67.7804 77.0302 67.6085C77.6232 67.4371 78.2755 67.39 78.9873 67.4672C79.7499 67.55 80.3962 67.7358 80.9264 68.0248C81.4565 68.3138 81.8497 68.6801 82.1059 69.1237C82.3626 69.563 82.461 70.058 82.4013 70.6088C82.3438 71.1383 82.131 71.5589 81.7629 71.8704C81.3952 72.1777 80.9237 72.3752 80.3484 72.4628L80.3374 72.5645C80.7206 72.6275 81.0561 72.7753 81.3437 73.008C81.6318 73.2364 81.8488 73.5279 81.9947 73.8823C82.1405 74.2368 82.1896 74.6343 82.1418 75.0749C82.077 75.6722 81.8493 76.1705 81.4588 76.5696C81.0688 76.9645 80.5603 77.2458 79.9334 77.4135C79.3108 77.5817 78.614 77.624 77.8429 77.5404C77.0931 77.459 76.4338 77.2739 75.865 76.985C75.301 76.6923 74.8685 76.3132 74.5675 75.8476C74.2665 75.382 74.1381 74.8473 74.1822 74.2434ZM86.4466 78.4803C85.828 78.4132 85.2829 78.2426 84.8111 77.9685C84.3441 77.6906 83.9902 77.3179 83.7494 76.8503C83.5129 76.3831 83.4294 75.8297 83.4988 75.19C83.5585 74.6392 83.7096 74.1948 83.952 73.8568C84.1945 73.5188 84.5032 73.2608 84.8783 73.0829C85.2534 72.905 85.6672 72.7848 86.1197 72.7225C86.577 72.6564 87.0456 72.6236 87.5256 72.6243C88.1039 72.627 88.5736 72.6244 88.9345 72.6164C89.2959 72.6042 89.5626 72.556 89.7346 72.4717C89.9113 72.3838 90.0116 72.2296 90.0355 72.0093L90.0397 71.9712C90.0916 71.4925 89.9899 71.1064 89.7346 70.8129C89.4792 70.5195 89.0846 70.3438 88.5508 70.2858C87.9874 70.2247 87.5271 70.2991 87.17 70.5089C86.8171 70.7193 86.5653 70.9856 86.4146 71.3078L84.2998 70.7698C84.5336 70.195 84.867 69.7297 85.3 69.3738C85.7334 69.0136 86.2427 68.7645 86.8277 68.6265C87.4132 68.4843 88.047 68.4502 88.7291 68.5242C89.1994 68.5752 89.6615 68.6811 90.1156 68.8418C90.5697 69.0025 90.9757 69.2309 91.3336 69.5269C91.692 69.8187 91.9643 70.1933 92.1504 70.6507C92.3407 71.1085 92.4008 71.6616 92.3304 72.3097L91.6217 78.8424L89.4102 78.6025L89.5557 77.2616L89.4794 77.2534C89.3102 77.5093 89.0856 77.7422 88.8057 77.9518C88.5305 78.1577 88.1944 78.312 87.7975 78.4147C87.4053 78.5136 86.955 78.5354 86.4466 78.4803ZM87.2273 76.8547C87.6891 76.9048 88.0993 76.8572 88.458 76.7118C88.8172 76.5621 89.1044 76.3447 89.3196 76.0594C89.5391 75.7746 89.6684 75.4522 89.7075 75.0921L89.8323 73.9419C89.7538 73.9933 89.625 74.0351 89.4458 74.0671C89.2708 74.0995 89.0753 74.1233 88.8594 74.1385C88.6434 74.1536 88.43 74.1648 88.2192 74.1719C88.0084 74.179 87.8256 74.1849 87.6708 74.1896C87.3226 74.1989 87.0072 74.2419 86.7245 74.3183C86.4419 74.3948 86.2119 74.5199 86.0344 74.6935C85.8575 74.8629 85.7529 75.0959 85.7207 75.3925C85.6748 75.8161 85.7947 76.1528 86.0805 76.4024C86.3663 76.652 86.7486 76.8028 87.2273 76.8547ZM93.696 71.1013L93.9008 69.2139L102.442 70.1406L102.237 72.0279L99.0785 71.6853L98.2242 79.5588L96.0001 79.3175L96.8543 71.4439L93.696 71.1013ZM105.486 73.6856L108.364 73.9979C109.61 74.1331 110.541 74.5406 111.157 75.2204C111.773 75.9002 112.03 76.7318 111.928 77.7151C111.854 78.3544 111.636 78.9051 111.273 79.3672C110.914 79.8297 110.427 80.1712 109.812 80.3917C109.201 80.6083 108.48 80.6716 107.65 80.5815L103.214 80.1002L104.273 70.3393L106.491 70.5799L105.637 78.4535L107.855 78.6941C108.355 78.7483 108.779 78.6658 109.129 78.4466C109.479 78.2231 109.676 77.9101 109.719 77.5076C109.765 77.084 109.642 76.7212 109.349 76.4194C109.056 76.1176 108.659 75.9395 108.159 75.8853L105.281 75.573L105.486 73.6856Z" fill="white"/>
</svg>
