<svg width="82" height="82" viewBox="0 0 82 82" fill="none" xmlns="http://www.w3.org/2000/svg">
<path d="M41 81C63.0914 81 81 63.0914 81 41C81 18.9086 63.0914 1 41 1C18.9086 1 1 18.9086 1 41C1 63.0914 18.9086 81 41 81Z" fill="white" stroke="#FF1A1A"/>
<path d="M44.1615 58.899C48.9287 54.7033 57.4101 46.1318 57.4101 38.2657C57.4101 33.9135 55.6811 29.7394 52.6038 26.6618C49.5262 23.5843 45.3521 21.8555 40.9999 21.8555C36.6477 21.8555 32.4735 23.5843 29.396 26.6618C26.3186 29.7394 24.5896 33.9135 24.5896 38.2657C24.5896 46.1318 33.0682 54.7033 37.8382 58.899C38.7082 59.6754 39.8337 60.1047 40.9999 60.1047C42.166 60.1047 43.2915 59.6754 44.1615 58.899ZM35.5297 38.2657C35.5297 36.8149 36.1061 35.4237 37.132 34.3978C38.1578 33.372 39.5492 32.7956 40.9999 32.7956C42.4505 32.7956 43.8419 33.372 44.8678 34.3978C45.8936 35.4237 46.47 36.8149 46.47 38.2657C46.47 39.7164 45.8936 41.1078 44.8678 42.1336C43.8419 43.1595 42.4505 43.7359 40.9999 43.7359C39.5492 43.7359 38.1578 43.1595 37.132 42.1336C36.1061 41.1078 35.5297 39.7164 35.5297 38.2657Z" fill="#FF1A1A"/>
</svg>
