<svg width="148" height="148" viewBox="0 0 148 148" fill="none" xmlns="http://www.w3.org/2000/svg">
<g filter="url(#filter0_d_23_6460)">
<circle cx="74" cy="70" r="70" fill="#FF1A1A"/>
</g>
<circle cx="74" cy="70" r="64.5" stroke="white"/>
<path d="M44.6267 60.5694L46.9334 60.8197L46.4729 65.0646C46.4131 65.6154 46.4611 66.0621 46.6168 66.4047C46.7767 66.7478 47.0398 67.01 47.4059 67.1912C47.772 67.3723 48.2389 67.4937 48.8066 67.5553C49.0608 67.5829 49.335 67.6041 49.6291 67.6188C49.928 67.6298 50.2296 67.6347 50.5341 67.6334C50.839 67.628 51.1319 67.6147 51.4128 67.5938C51.6942 67.5686 51.9463 67.5359 52.1693 67.4958L51.9611 69.4149C51.7377 69.4593 51.4895 69.4945 51.2166 69.5206C50.9438 69.5468 50.657 69.5628 50.3563 69.5687C50.0556 69.5747 49.7558 69.5722 49.457 69.5612C49.1581 69.5502 48.871 69.5297 48.5956 69.4999C47.6 69.3919 46.7512 69.1562 46.0491 68.7928C45.3517 68.4257 44.8369 67.9155 44.5049 67.2622C44.1728 66.6089 44.0599 65.793 44.1661 64.8143L44.6267 60.5694ZM52.4367 61.4167L54.7561 61.6684L53.3441 74.6829L51.0246 74.4313L52.4367 61.4167ZM58.6672 72.11L63.2966 65.887L65.6606 66.1434L64.6015 75.9043L62.3774 75.663L63.0993 69.0096L58.4819 75.2404L56.1116 74.9832L57.1706 65.2223L59.3884 65.4629L58.6672 72.11ZM66.7252 68.1685L66.9299 66.2812L75.4707 67.2078L75.2659 69.0952L72.1076 68.7525L71.2534 76.6261L69.0292 76.3847L69.8835 68.5112L66.7252 68.1685ZM78.6289 77.6256C78.0104 77.5585 77.4652 77.3879 76.9935 77.1138C76.5264 76.836 76.1725 76.4632 75.9318 75.9956C75.6953 75.5285 75.6117 74.975 75.6811 74.3353C75.7409 73.7846 75.892 73.3402 76.1344 73.0021C76.3768 72.6641 76.6856 72.4061 77.0606 72.2282C77.4357 72.0503 77.8495 71.9302 78.3021 71.8678C78.7593 71.8017 79.2279 71.769 79.7079 71.7696C80.2863 71.7724 80.7559 71.7697 81.1169 71.7617C81.4782 71.7495 81.7449 71.7013 81.917 71.6171C82.0937 71.5291 82.194 71.375 82.2179 71.1547L82.222 71.1165C82.274 70.6378 82.1723 70.2517 81.9169 69.9583C81.6616 69.6648 81.267 69.4891 80.7332 69.4312C80.1697 69.3701 79.7095 69.4444 79.3523 69.6543C78.9995 69.8646 78.7477 70.1309 78.597 70.4532L76.4822 69.9151C76.716 69.3404 77.0494 68.8751 77.4823 68.5191C77.9158 68.1589 78.425 67.9098 79.0101 67.7719C79.5956 67.6296 80.2294 67.5955 80.9115 67.6695C81.3817 67.7206 81.8439 67.8264 82.2979 67.9871C82.752 68.1479 83.158 68.3762 83.5159 68.6722C83.8743 68.964 84.1466 69.3386 84.3327 69.796C84.5231 70.2539 84.5831 70.8069 84.5128 71.4551L83.804 77.9878L81.5925 77.7478L81.738 76.407L81.6618 76.3987C81.4925 76.6547 81.268 76.8875 80.988 77.0972C80.7128 77.303 80.3767 77.4573 79.9798 77.56C79.5876 77.6589 79.1373 77.6808 78.6289 77.6256ZM79.4097 76C79.8714 76.0502 80.2817 76.0025 80.6404 75.8571C80.9995 75.7075 81.2867 75.49 81.502 75.2048C81.7215 74.92 81.8508 74.5975 81.8898 74.2374L82.0146 73.0872C81.9362 73.1387 81.8073 73.1804 81.6281 73.2124C81.4532 73.2449 81.2577 73.2687 81.0417 73.2838C80.8258 73.299 80.6124 73.3101 80.4016 73.3172C80.1908 73.3244 80.008 73.3303 79.8531 73.3349C79.5049 73.3443 79.1895 73.3872 78.9069 73.4637C78.6243 73.5402 78.3942 73.6652 78.2168 73.8389C78.0398 74.0083 77.9352 74.2413 77.9031 74.5378C77.8571 74.9615 77.977 75.2981 78.2628 75.5477C78.5487 75.7973 78.9309 75.9481 79.4097 76ZM85.8784 70.2466L86.0832 68.3593L94.6239 69.2859L94.4192 71.1733L91.2608 70.8306L90.4066 78.7041L88.1824 78.4628L89.0367 70.5893L85.8784 70.2466ZM97.6679 72.831L100.547 73.1433C101.792 73.2784 102.723 73.6859 103.339 74.3657C103.956 75.0456 104.213 75.8771 104.11 76.8605C104.037 77.4997 103.818 78.0504 103.455 78.5125C103.096 78.9751 102.609 79.3166 101.994 79.537C101.383 79.7536 100.663 79.8169 99.8323 79.7268L95.3967 79.2456L96.4557 69.4847L98.6735 69.7253L97.8192 77.5988L100.037 77.8394C100.537 77.8937 100.962 77.8112 101.311 77.5919C101.661 77.3684 101.858 77.0554 101.902 76.653C101.948 76.2293 101.824 75.8666 101.531 75.5648C101.238 75.2629 100.842 75.0849 100.342 75.0306L97.4631 74.7183L97.6679 72.831Z" fill="white"/>
<defs>
<filter id="filter0_d_23_6460" x="0" y="0" width="148" height="148" filterUnits="userSpaceOnUse" color-interpolation-filters="sRGB">
<feFlood flood-opacity="0" result="BackgroundImageFix"/>
<feColorMatrix in="SourceAlpha" type="matrix" values="0 0 0 0 0 0 0 0 0 0 0 0 0 0 0 0 0 0 127 0" result="hardAlpha"/>
<feOffset dy="4"/>
<feGaussianBlur stdDeviation="2"/>
<feComposite in2="hardAlpha" operator="out"/>
<feColorMatrix type="matrix" values="0 0 0 0 0 0 0 0 0 0 0 0 0 0 0 0 0 0 0.25 0"/>
<feBlend mode="normal" in2="BackgroundImageFix" result="effect1_dropShadow_23_6460"/>
<feBlend mode="normal" in="SourceGraphic" in2="effect1_dropShadow_23_6460" result="shape"/>
</filter>
</defs>
</svg>
