<svg width="140" height="140" viewBox="0 0 140 140" fill="none" xmlns="http://www.w3.org/2000/svg">
<circle cx="70" cy="70" r="70" fill="#FF1A1A"/>
<circle cx="70" cy="70" r="64.5" stroke="white"/>
<path d="M40.6267 60.5694L42.9334 60.8197L42.4729 65.0646C42.4131 65.6154 42.4611 66.0621 42.6168 66.4047C42.7767 66.7478 43.0398 67.01 43.4059 67.1912C43.772 67.3723 44.2389 67.4937 44.8066 67.5553C45.0608 67.5829 45.335 67.6041 45.6291 67.6188C45.928 67.6298 46.2296 67.6347 46.5341 67.6334C46.839 67.628 47.1319 67.6147 47.4128 67.5938C47.6942 67.5686 47.9463 67.5359 48.1693 67.4958L47.9611 69.4149C47.7377 69.4593 47.4895 69.4945 47.2166 69.5206C46.9438 69.5468 46.657 69.5628 46.3563 69.5687C46.0556 69.5747 45.7558 69.5722 45.457 69.5612C45.1581 69.5502 44.871 69.5297 44.5956 69.4999C43.6 69.3919 42.7512 69.1562 42.0491 68.7928C41.3517 68.4257 40.8369 67.9155 40.5049 67.2622C40.1728 66.6089 40.0599 65.793 40.1661 64.8143L40.6267 60.5694ZM48.4367 61.4167L50.7561 61.6684L49.3441 74.6829L47.0246 74.4313L48.4367 61.4167ZM54.6672 72.11L59.2966 65.887L61.6606 66.1434L60.6015 75.9043L58.3774 75.663L59.0993 69.0096L54.4819 75.2404L52.1116 74.9832L53.1706 65.2223L55.3884 65.4629L54.6672 72.11ZM62.7252 68.1685L62.9299 66.2812L71.4707 67.2078L71.2659 69.0952L68.1076 68.7525L67.2534 76.6261L65.0292 76.3847L65.8835 68.5112L62.7252 68.1685ZM74.6289 77.6256C74.0104 77.5585 73.4652 77.3879 72.9935 77.1138C72.5264 76.836 72.1725 76.4632 71.9318 75.9956C71.6953 75.5285 71.6117 74.975 71.6811 74.3353C71.7409 73.7846 71.892 73.3402 72.1344 73.0021C72.3768 72.6641 72.6856 72.4061 73.0606 72.2282C73.4357 72.0503 73.8495 71.9302 74.3021 71.8678C74.7593 71.8017 75.2279 71.769 75.7079 71.7696C76.2863 71.7724 76.7559 71.7697 77.1169 71.7617C77.4782 71.7495 77.7449 71.7013 77.917 71.6171C78.0937 71.5291 78.194 71.375 78.2179 71.1547L78.222 71.1165C78.274 70.6378 78.1723 70.2517 77.9169 69.9583C77.6616 69.6648 77.267 69.4891 76.7332 69.4312C76.1697 69.3701 75.7095 69.4444 75.3523 69.6543C74.9995 69.8646 74.7477 70.1309 74.597 70.4532L72.4822 69.9151C72.716 69.3404 73.0494 68.8751 73.4823 68.5191C73.9158 68.1589 74.425 67.9098 75.0101 67.7719C75.5956 67.6296 76.2294 67.5955 76.9115 67.6695C77.3817 67.7206 77.8439 67.8264 78.2979 67.9871C78.752 68.1479 79.158 68.3762 79.5159 68.6722C79.8743 68.964 80.1466 69.3386 80.3327 69.796C80.5231 70.2539 80.5831 70.8069 80.5128 71.4551L79.804 77.9878L77.5925 77.7478L77.738 76.407L77.6618 76.3987C77.4925 76.6547 77.268 76.8875 76.988 77.0972C76.7128 77.303 76.3767 77.4573 75.9798 77.56C75.5876 77.6589 75.1373 77.6808 74.6289 77.6256ZM75.4097 76C75.8714 76.0502 76.2817 76.0025 76.6404 75.8571C76.9995 75.7075 77.2867 75.49 77.502 75.2048C77.7215 74.92 77.8508 74.5975 77.8898 74.2374L78.0146 73.0872C77.9362 73.1387 77.8073 73.1804 77.6281 73.2124C77.4532 73.2449 77.2577 73.2687 77.0417 73.2838C76.8258 73.299 76.6124 73.3101 76.4016 73.3172C76.1908 73.3244 76.008 73.3303 75.8531 73.3349C75.5049 73.3443 75.1895 73.3872 74.9069 73.4637C74.6243 73.5402 74.3942 73.6652 74.2168 73.8389C74.0398 74.0083 73.9352 74.2413 73.9031 74.5378C73.8571 74.9615 73.977 75.2981 74.2628 75.5477C74.5487 75.7973 74.9309 75.9481 75.4097 76ZM81.8784 70.2466L82.0832 68.3593L90.6239 69.2859L90.4192 71.1733L87.2608 70.8306L86.4066 78.7041L84.1824 78.4628L85.0367 70.5893L81.8784 70.2466ZM93.6679 72.831L96.5466 73.1433C97.7921 73.2784 98.723 73.6859 99.3394 74.3657C99.9557 75.0456 100.213 75.8771 100.11 76.8605C100.037 77.4997 99.8183 78.0504 99.4553 78.5125C99.0965 78.9751 98.6093 79.3166 97.9939 79.537C97.3832 79.7536 96.6626 79.8169 95.8323 79.7268L91.3967 79.2456L92.4557 69.4847L94.6735 69.7253L93.8192 77.5988L96.037 77.8394C96.537 77.8937 96.9617 77.8112 97.3112 77.5919C97.6612 77.3684 97.8581 77.0554 97.9018 76.653C97.9477 76.2293 97.8242 75.8666 97.5312 75.5648C97.2382 75.2629 96.8417 75.0849 96.3418 75.0306L93.4631 74.7183L93.6679 72.831Z" fill="white"/>
</svg>
