<svg width="140" height="140" viewBox="0 0 140 140" fill="none" xmlns="http://www.w3.org/2000/svg">
<circle cx="70" cy="70" r="70" fill="#FF1A1A"/>
<circle cx="70" cy="70" r="64.5" stroke="white"/>
<path d="M34.4381 66.4818C34.2859 67.8841 33.893 69.0566 33.2592 69.9994C32.63 70.9385 31.8356 71.6238 30.8757 72.0555C29.9202 72.4876 28.8725 72.6418 27.7329 72.5182C26.5933 72.3945 25.601 72.019 24.7561 71.3915C23.9159 70.7603 23.2871 69.9184 22.8698 68.8658C22.4572 67.8094 22.3268 66.5822 22.4784 65.1842C22.6306 63.7819 23.0212 62.6112 23.6503 61.6722C24.2841 60.7294 25.0788 60.0419 26.0344 59.6098C26.9942 59.1782 28.044 59.0241 29.1836 59.1478C30.3232 59.2714 31.3134 59.6468 32.154 60.2738C32.999 60.9012 33.6277 61.7432 34.0403 62.7995C34.4576 63.8521 34.5902 65.0795 34.4381 66.4818ZM32.0678 66.2246C32.1749 65.2375 32.1105 64.3883 31.8748 63.6769C31.6438 62.9617 31.276 62.401 30.7714 61.9948C30.2673 61.5843 29.6615 61.3407 28.954 61.2639C28.2465 61.1872 27.6025 61.2952 27.0221 61.588C26.4422 61.8765 25.9605 62.3451 25.5773 62.9936C25.1987 63.6383 24.9559 64.4543 24.8488 65.4414C24.7417 66.4285 24.8036 67.2796 25.0346 67.9948C25.2704 68.7062 25.6403 69.2671 26.1444 69.6776C26.649 70.0838 27.255 70.3253 27.9625 70.4021C28.67 70.4788 29.3137 70.3729 29.8937 70.0844C30.4741 69.7916 30.9536 69.3228 31.3322 68.6781C31.7155 68.0295 31.9607 67.2117 32.0678 66.2246ZM36.1798 65.2884L36.3845 63.401L44.9253 64.3277L44.7206 66.2151L41.5622 65.8724L40.708 73.7459L38.4838 73.5046L39.3381 65.6311L36.1798 65.2884ZM45.698 74.2873L46.7571 64.5264L54.9992 65.4207L53.9402 75.1816L51.7224 74.941L52.5766 67.0674L48.7511 66.6524L47.8968 74.5259L45.698 74.2873ZM55.9086 79.0986L57.3648 65.6774L59.627 65.9228L59.4519 67.5369L59.5854 67.5514C59.7297 67.327 59.9244 67.0931 60.1694 66.8496C60.4149 66.602 60.7323 66.4028 61.1216 66.2521C61.5113 66.0972 61.9921 66.0508 62.564 66.1129C63.3181 66.1947 63.9772 66.4612 64.5412 66.9125C65.1098 67.36 65.5314 67.9779 65.8059 68.7664C66.0852 69.5511 66.1659 70.4857 66.0482 71.5703C65.932 72.6421 65.6573 73.5339 65.2243 74.2456C64.7913 74.9573 64.2506 75.4773 63.602 75.8055C62.9534 76.1338 62.2457 76.2563 61.4789 76.1731C60.9197 76.1125 60.4659 75.9689 60.1176 75.7425C59.7692 75.5161 59.497 75.2594 59.301 74.9724C59.1097 74.6816 58.9654 74.4109 58.8683 74.1603L58.773 74.15L58.209 79.3482L55.9086 79.0986ZM59.0912 70.8026C59.0227 71.4338 59.0517 71.9963 59.1781 72.4901C59.3088 72.9844 59.5291 73.3833 59.8391 73.687C60.1538 73.9869 60.5547 74.1633 61.0419 74.2161C61.5503 74.2713 61.9907 74.1819 62.3633 73.948C62.7363 73.7099 63.0355 73.363 63.2606 72.9073C63.4905 72.4479 63.6385 71.9132 63.7047 71.3031C63.7705 70.6973 63.742 70.1499 63.6193 69.6608C63.4966 69.1717 63.2782 68.775 62.964 68.4709C62.6498 68.1668 62.2364 67.9869 61.7238 67.9313C61.2323 67.878 60.801 67.9619 60.4298 68.1831C60.0586 68.4043 59.7588 68.7382 59.5303 69.185C59.306 69.6321 59.1597 70.1713 59.0912 70.8026ZM70.2775 77.1535C69.659 77.0864 69.1138 76.9158 68.6421 76.6417C68.175 76.3638 67.8211 75.9911 67.5803 75.5235C67.3438 75.0563 67.2603 74.5029 67.3297 73.8632C67.3895 73.3125 67.5405 72.8681 67.783 72.53C68.0254 72.192 68.3341 71.934 68.7092 71.7561C69.0843 71.5782 69.4981 71.4581 69.9506 71.3957C70.4079 71.3296 70.8765 71.2968 71.3565 71.2975C71.9349 71.3002 72.4045 71.2976 72.7654 71.2896C73.1268 71.2774 73.3935 71.2292 73.5655 71.145C73.7423 71.057 73.8426 70.9028 73.8665 70.6825L73.8706 70.6444C73.9225 70.1657 73.8208 69.7796 73.5655 69.4861C73.3101 69.1927 72.9156 69.017 72.3818 68.9591C71.8183 68.8979 71.358 68.9723 71.0009 69.1822C70.6481 69.3925 70.3963 69.6588 70.2456 69.9811L68.1308 69.443C68.3646 68.8683 68.698 68.4029 69.1309 68.047C69.5644 67.6868 70.0736 67.4377 70.6587 67.2997C71.2442 67.1575 71.878 67.1234 72.56 67.1974C73.0303 67.2484 73.4925 67.3543 73.9465 67.515C74.4006 67.6757 74.8066 67.9041 75.1645 68.2001C75.5229 68.4919 75.7952 68.8665 75.9813 69.3239C76.1717 69.7818 76.2317 70.3348 76.1614 70.983L75.4526 77.5157L73.2411 77.2757L73.3866 75.9349L73.3104 75.9266C73.1411 76.1826 72.9166 76.4154 72.6366 76.625C72.3614 76.8309 72.0253 76.9852 71.6284 77.0879C71.2362 77.1868 70.7859 77.2086 70.2775 77.1535ZM71.0583 75.5279C71.52 75.578 71.9303 75.5304 72.2889 75.385C72.6481 75.2354 72.9353 75.0179 73.1506 74.7326C73.3701 74.4478 73.4994 74.1254 73.5384 73.7653L73.6632 72.6151C73.5848 72.6666 73.4559 72.7083 73.2767 72.7403C73.1017 72.7728 72.9063 72.7966 72.6903 72.8117C72.4743 72.8268 72.261 72.838 72.0502 72.8451C71.8393 72.8523 71.6565 72.8581 71.5017 72.8628C71.1535 72.8721 70.8381 72.9151 70.5555 72.9916C70.2728 73.0681 70.0428 73.1931 69.8654 73.3668C69.6884 73.5362 69.5838 73.7691 69.5516 74.0657C69.5057 74.4893 69.6256 74.826 69.9114 75.0756C70.1973 75.3252 70.5795 75.476 71.0583 75.5279ZM77.7657 77.7666L78.8248 68.0057L82.9236 68.4504C84.0801 68.5759 84.968 68.9059 85.5873 69.4403C86.2108 69.9751 86.4777 70.6556 86.3881 71.4817C86.3288 72.0283 86.0897 72.4545 85.6707 72.7605C85.2564 73.0628 84.7166 73.2378 84.0513 73.2857C84.5594 73.3836 84.9944 73.5616 85.3565 73.8195C85.7228 74.0778 85.997 74.3948 86.1792 74.7703C86.3613 75.1458 86.4276 75.5624 86.3779 76.0199C86.3196 76.5579 86.1269 77.0107 85.7998 77.3781C85.4774 77.7418 85.0353 78.0046 84.4734 78.1665C83.9161 78.3246 83.2562 78.3623 82.4936 78.2796L77.7657 77.7666ZM80.1165 76.1893L82.6901 76.4685C83.1138 76.5145 83.4572 76.451 83.7203 76.2781C83.9838 76.1009 84.1344 75.8386 84.1721 75.4912C84.2158 75.0888 84.1293 74.7601 83.9126 74.5051C83.6964 74.2459 83.3765 74.0933 82.9528 74.0473L80.3792 73.7681L80.1165 76.1893ZM80.5405 72.2811L82.5295 72.4969C82.843 72.5309 83.1169 72.5156 83.3511 72.451C83.5857 72.3822 83.7713 72.2716 83.9079 72.1192C84.0449 71.9626 84.126 71.7678 84.1513 71.5348C84.1876 71.2001 84.0784 70.9225 83.8237 70.702C83.5733 70.4819 83.2066 70.3457 82.7236 70.2933L80.7791 70.0823L80.5405 72.2811ZM90.5446 76.0026L95.1739 69.7796L97.5379 70.0361L96.4789 79.797L94.2547 79.5556L94.9766 72.9022L90.3592 79.133L87.9889 78.8758L89.048 69.1149L91.2658 69.3555L90.5446 76.0026ZM98.6025 72.0611L98.8073 70.1738L107.348 71.1004L107.143 72.9878L103.985 72.6451L103.131 80.5187L100.907 80.2774L101.761 72.4038L98.6025 72.0611ZM110.392 74.6455L113.271 74.9578C114.516 75.093 115.447 75.5004 116.064 76.1803C116.68 76.8601 116.937 77.6917 116.834 78.675C116.761 79.3142 116.542 79.8649 116.179 80.327C115.821 80.7896 115.333 81.1311 114.718 81.3515C114.107 81.5682 113.387 81.6314 112.556 81.5413L108.121 81.0601L109.18 71.2992L111.398 71.5398L110.543 79.4134L112.761 79.654C113.261 79.7082 113.686 79.6257 114.035 79.4065C114.385 79.183 114.582 78.87 114.626 78.4675C114.672 78.0439 114.548 77.6811 114.255 77.3793C113.962 77.0775 113.566 76.8994 113.066 76.8452L110.187 76.5328L110.392 74.6455Z" fill="white"/>
</svg>
