<svg width="148" height="148" viewBox="0 0 148 148" fill="none" xmlns="http://www.w3.org/2000/svg">
<g filter="url(#filter0_d_58_1806)">
<circle cx="74" cy="70" r="70" fill="#FF1A1A"/>
</g>
<circle cx="74" cy="70" r="64.5" stroke="white"/>
<path d="M38.4381 66.4818C38.2859 67.8841 37.893 69.0566 37.2592 69.9994C36.63 70.9385 35.8356 71.6238 34.8757 72.0555C33.9202 72.4876 32.8725 72.6418 31.7329 72.5182C30.5933 72.3945 29.601 72.019 28.7561 71.3915C27.9159 70.7603 27.2871 69.9184 26.8698 68.8658C26.4572 67.8094 26.3268 66.5822 26.4784 65.1842C26.6306 63.7819 27.0212 62.6112 27.6503 61.6722C28.2841 60.7294 29.0788 60.0419 30.0344 59.6098C30.9942 59.1782 32.044 59.0241 33.1836 59.1478C34.3232 59.2714 35.3134 59.6468 36.154 60.2738C36.999 60.9012 37.6277 61.7432 38.0403 62.7995C38.4576 63.8521 38.5902 65.0795 38.4381 66.4818ZM36.0678 66.2246C36.1749 65.2375 36.1105 64.3883 35.8748 63.6769C35.6438 62.9617 35.276 62.401 34.7714 61.9948C34.2673 61.5843 33.6615 61.3407 32.954 61.2639C32.2465 61.1872 31.6025 61.2952 31.0221 61.588C30.4422 61.8765 29.9605 62.3451 29.5773 62.9936C29.1987 63.6383 28.9559 64.4543 28.8488 65.4414C28.7417 66.4285 28.8036 67.2796 29.0346 67.9948C29.2704 68.7062 29.6403 69.2671 30.1444 69.6776C30.649 70.0838 31.255 70.3253 31.9625 70.4021C32.67 70.4788 33.3137 70.3729 33.8937 70.0844C34.4741 69.7916 34.9536 69.3228 35.3322 68.6781C35.7155 68.0295 35.9607 67.2117 36.0678 66.2246ZM40.1798 65.2884L40.3845 63.401L48.9253 64.3277L48.7206 66.2151L45.5622 65.8724L44.708 73.7459L42.4838 73.5046L43.3381 65.6311L40.1798 65.2884ZM49.698 74.2873L50.7571 64.5264L58.9992 65.4207L57.9402 75.1816L55.7224 74.941L56.5766 67.0674L52.7511 66.6524L51.8968 74.5259L49.698 74.2873ZM59.9086 79.0986L61.3648 65.6774L63.627 65.9228L63.4519 67.5369L63.5854 67.5514C63.7297 67.327 63.9244 67.0931 64.1694 66.8496C64.4149 66.602 64.7323 66.4028 65.1216 66.2521C65.5113 66.0972 65.9921 66.0508 66.564 66.1129C67.3181 66.1947 67.9772 66.4612 68.5412 66.9125C69.1098 67.36 69.5314 67.9779 69.8059 68.7664C70.0852 69.5511 70.1659 70.4857 70.0482 71.5703C69.932 72.6421 69.6573 73.5339 69.2243 74.2456C68.7913 74.9573 68.2506 75.4773 67.602 75.8055C66.9534 76.1338 66.2457 76.2563 65.4789 76.1731C64.9197 76.1125 64.4659 75.9689 64.1176 75.7425C63.7692 75.5161 63.497 75.2594 63.301 74.9724C63.1097 74.6816 62.9654 74.4109 62.8683 74.1603L62.773 74.15L62.209 79.3482L59.9086 79.0986ZM63.0912 70.8026C63.0227 71.4338 63.0517 71.9963 63.1781 72.4901C63.3088 72.9844 63.5291 73.3833 63.8391 73.687C64.1538 73.9869 64.5547 74.1633 65.0419 74.2161C65.5503 74.2713 65.9907 74.1819 66.3633 73.948C66.7363 73.7099 67.0355 73.363 67.2606 72.9073C67.4905 72.4479 67.6385 71.9132 67.7047 71.3031C67.7705 70.6973 67.742 70.1499 67.6193 69.6608C67.4966 69.1717 67.2782 68.775 66.964 68.4709C66.6498 68.1668 66.2364 67.9869 65.7238 67.9313C65.2323 67.878 64.801 67.9619 64.4298 68.1831C64.0586 68.4043 63.7588 68.7382 63.5303 69.185C63.306 69.6321 63.1597 70.1713 63.0912 70.8026ZM74.2775 77.1535C73.659 77.0864 73.1138 76.9158 72.6421 76.6417C72.175 76.3638 71.8211 75.9911 71.5803 75.5235C71.3438 75.0563 71.2603 74.5029 71.3297 73.8632C71.3895 73.3125 71.5405 72.8681 71.783 72.53C72.0254 72.192 72.3341 71.934 72.7092 71.7561C73.0843 71.5782 73.4981 71.4581 73.9506 71.3957C74.4079 71.3296 74.8765 71.2968 75.3565 71.2975C75.9349 71.3002 76.4045 71.2976 76.7654 71.2896C77.1268 71.2774 77.3935 71.2292 77.5655 71.145C77.7423 71.057 77.8426 70.9028 77.8665 70.6825L77.8706 70.6444C77.9225 70.1657 77.8208 69.7796 77.5655 69.4861C77.3101 69.1927 76.9156 69.017 76.3818 68.9591C75.8183 68.8979 75.358 68.9723 75.0009 69.1822C74.6481 69.3925 74.3963 69.6588 74.2456 69.9811L72.1308 69.443C72.3646 68.8683 72.698 68.4029 73.1309 68.047C73.5644 67.6868 74.0736 67.4377 74.6587 67.2997C75.2442 67.1575 75.878 67.1234 76.56 67.1974C77.0303 67.2484 77.4925 67.3543 77.9465 67.515C78.4006 67.6757 78.8066 67.9041 79.1645 68.2001C79.5229 68.4919 79.7952 68.8665 79.9813 69.3239C80.1717 69.7818 80.2317 70.3348 80.1614 70.983L79.4526 77.5157L77.2411 77.2757L77.3866 75.9349L77.3104 75.9266C77.1411 76.1826 76.9166 76.4154 76.6366 76.625C76.3614 76.8309 76.0253 76.9852 75.6284 77.0879C75.2362 77.1868 74.7859 77.2086 74.2775 77.1535ZM75.0583 75.5279C75.52 75.578 75.9303 75.5304 76.2889 75.385C76.6481 75.2354 76.9353 75.0179 77.1506 74.7326C77.3701 74.4478 77.4994 74.1254 77.5384 73.7653L77.6632 72.6151C77.5848 72.6666 77.4559 72.7083 77.2767 72.7403C77.1017 72.7728 76.9063 72.7966 76.6903 72.8117C76.4743 72.8268 76.261 72.838 76.0502 72.8451C75.8393 72.8523 75.6565 72.8581 75.5017 72.8628C75.1535 72.8721 74.8381 72.9151 74.5555 72.9916C74.2728 73.0681 74.0428 73.1931 73.8654 73.3668C73.6884 73.5362 73.5838 73.7691 73.5516 74.0657C73.5057 74.4893 73.6256 74.826 73.9114 75.0756C74.1973 75.3252 74.5795 75.476 75.0583 75.5279ZM81.7657 77.7666L82.8248 68.0057L86.9236 68.4504C88.0801 68.5759 88.968 68.9059 89.5873 69.4403C90.2108 69.9751 90.4777 70.6556 90.3881 71.4817C90.3288 72.0283 90.0897 72.4545 89.6707 72.7605C89.2564 73.0628 88.7166 73.2378 88.0513 73.2857C88.5594 73.3836 88.9944 73.5616 89.3565 73.8195C89.7228 74.0778 89.997 74.3948 90.1792 74.7703C90.3613 75.1458 90.4276 75.5624 90.3779 76.0199C90.3196 76.5579 90.1269 77.0107 89.7998 77.3781C89.4774 77.7418 89.0353 78.0046 88.4734 78.1665C87.9161 78.3246 87.2562 78.3623 86.4936 78.2796L81.7657 77.7666ZM84.1165 76.1893L86.6901 76.4685C87.1138 76.5145 87.4572 76.451 87.7203 76.2781C87.9838 76.1009 88.1344 75.8386 88.1721 75.4912C88.2158 75.0888 88.1293 74.7601 87.9126 74.5051C87.6964 74.2459 87.3765 74.0933 86.9528 74.0473L84.3792 73.7681L84.1165 76.1893ZM84.5405 72.2811L86.5295 72.4969C86.843 72.5309 87.1169 72.5156 87.3511 72.451C87.5857 72.3822 87.7713 72.2716 87.9079 72.1192C88.0449 71.9626 88.126 71.7678 88.1513 71.5348C88.1876 71.2001 88.0784 70.9225 87.8237 70.702C87.5733 70.4819 87.2066 70.3457 86.7236 70.2933L84.7791 70.0823L84.5405 72.2811ZM94.5446 76.0026L99.1739 69.7796L101.538 70.0361L100.479 79.797L98.2547 79.5556L98.9766 72.9022L94.3592 79.133L91.9889 78.8758L93.048 69.1149L95.2658 69.3555L94.5446 76.0026ZM102.602 72.0611L102.807 70.1738L111.348 71.1004L111.143 72.9878L107.985 72.6451L107.131 80.5187L104.907 80.2774L105.761 72.4038L102.602 72.0611ZM114.392 74.6455L117.271 74.9578C118.516 75.093 119.447 75.5004 120.064 76.1803C120.68 76.8601 120.937 77.6917 120.834 78.675C120.761 79.3142 120.542 79.8649 120.179 80.327C119.821 80.7896 119.333 81.1311 118.718 81.3515C118.107 81.5682 117.387 81.6314 116.556 81.5413L112.121 81.0601L113.18 71.2992L115.398 71.5398L114.543 79.4134L116.761 79.654C117.261 79.7082 117.686 79.6257 118.035 79.4065C118.385 79.183 118.582 78.87 118.626 78.4675C118.672 78.0439 118.548 77.6811 118.255 77.3793C117.962 77.0775 117.566 76.8994 117.066 76.8452L114.187 76.5328L114.392 74.6455Z" fill="white"/>
<defs>
<filter id="filter0_d_58_1806" x="0" y="0" width="148" height="148" filterUnits="userSpaceOnUse" color-interpolation-filters="sRGB">
<feFlood flood-opacity="0" result="BackgroundImageFix"/>
<feColorMatrix in="SourceAlpha" type="matrix" values="0 0 0 0 0 0 0 0 0 0 0 0 0 0 0 0 0 0 127 0" result="hardAlpha"/>
<feOffset dy="4"/>
<feGaussianBlur stdDeviation="2"/>
<feComposite in2="hardAlpha" operator="out"/>
<feColorMatrix type="matrix" values="0 0 0 0 0 0 0 0 0 0 0 0 0 0 0 0 0 0 0.25 0"/>
<feBlend mode="normal" in2="BackgroundImageFix" result="effect1_dropShadow_58_1806"/>
<feBlend mode="normal" in="SourceGraphic" in2="effect1_dropShadow_58_1806" result="shape"/>
</filter>
</defs>
</svg>
