<svg width="140" height="140" viewBox="0 0 140 140" fill="none" xmlns="http://www.w3.org/2000/svg">
<g clip-path="url(#clip0_311_48)">
<g clip-path="url(#clip1_311_48)">
<g clip-path="url(#clip2_311_48)">
<path d="M70 140C108.66 140 140 108.66 140 70C140 31.3401 108.66 0 70 0C31.3401 0 0 31.3401 0 70C0 108.66 31.3401 140 70 140Z" fill="#FF1A1A"/>
<path d="M70 134.5C105.622 134.5 134.5 105.622 134.5 70C134.5 34.3776 105.622 5.5 70 5.5C34.3776 5.5 5.5 34.3776 5.5 70C5.5 105.622 34.3776 134.5 70 134.5Z" stroke="white"/>
<path d="M53.4405 51.424L55.2952 55.6424L55.3854 55.6533L58.2014 51.9984L60.9598 52.3312L56.7374 57.6821L59.645 63.8933L56.8358 63.5544L54.9424 59.3256L54.8521 59.3147L52.0072 62.9719L49.2093 62.6343L53.522 57.2942L50.6708 51.0898L53.4405 51.424ZM64.511 64.6521C63.6348 64.5464 62.8995 64.2688 62.3051 63.8194C61.715 63.3666 61.2873 62.7847 61.022 62.0736C60.7573 61.3587 60.6784 60.5575 60.7855 59.67C60.8935 58.775 61.1609 58.0136 61.5876 57.3859C62.0148 56.7545 62.5686 56.291 63.2491 55.9954C63.9337 55.6965 64.7142 55.5999 65.5904 55.7056C66.4666 55.8113 67.1998 56.0905 67.79 56.5433C68.3844 56.9927 68.814 57.5748 69.0787 58.2897C69.3439 59.0009 69.4226 59.804 69.3146 60.699C69.2075 61.5865 68.9404 62.346 68.5132 62.9774C68.0864 63.605 67.5307 64.0683 66.8461 64.3672C66.1656 64.6629 65.3873 64.7578 64.511 64.6521ZM64.7469 62.792C65.1455 62.8401 65.492 62.7674 65.7862 62.574C66.0809 62.3768 66.3197 62.0889 66.5027 61.7104C66.6895 61.3323 66.8133 60.8913 66.8741 60.3874C66.9349 59.8835 66.9195 59.4257 66.828 59.014C66.7403 58.6028 66.5768 58.2664 66.3374 58.0048C66.0981 57.7432 65.7791 57.5883 65.3805 57.5402C64.9781 57.4917 64.6258 57.5656 64.3236 57.7618C64.0252 57.9586 63.7826 58.246 63.5958 58.6241C63.4128 59.0026 63.2909 59.4438 63.2301 59.9478C63.1693 60.4517 63.1827 60.9092 63.2705 61.3204C63.362 61.7321 63.5293 62.0689 63.7724 62.331C64.0197 62.5898 64.3445 62.7434 64.7469 62.792ZM78.9232 57.4286L77.8779 66.0931L75.5989 65.8181L76.6443 57.1537L78.9232 57.4286ZM77.3532 61.0965L77.1246 62.9919C76.9303 63.0524 76.6914 63.1037 76.4078 63.1458C76.1247 63.1841 75.8299 63.2077 75.5236 63.2165C75.2173 63.2254 74.9326 63.2139 74.6693 63.1821C73.4246 63.0319 72.4758 62.658 71.823 62.0604C71.1706 61.459 70.9125 60.5942 71.0486 59.466L71.4052 56.5101L73.6729 56.7837L73.3163 59.7396C73.2759 60.0743 73.3003 60.3462 73.3895 60.5554C73.4825 60.765 73.6498 60.9282 73.8913 61.0451C74.137 61.1587 74.4724 61.2412 74.8973 61.2924C75.2922 61.3401 75.6845 61.3454 76.0743 61.3085C76.4641 61.2716 76.8904 61.2009 77.3532 61.0965ZM80.5249 69.7089C80.2203 69.6721 79.9374 69.6132 79.6763 69.5321C79.4185 69.4552 79.2074 69.3706 79.0431 69.2783L79.801 67.5498C80.0726 67.6704 80.3208 67.748 80.5455 67.7827C80.774 67.8179 80.9778 67.7891 81.1569 67.6962C81.3397 67.6038 81.5001 67.4286 81.6381 67.1705L81.8233 66.8209L79.7905 57.5332L82.3176 57.8381L83.3438 64.4175L83.434 64.4284L86.0124 58.2839L88.5565 58.5909L84.0305 67.7854C83.8126 68.2322 83.5436 68.6118 83.2235 68.9242C82.9068 69.2408 82.5265 69.4677 82.0826 69.605C81.6383 69.7459 81.1191 69.7806 80.5249 69.7089ZM31.5508 79.6416L32.5961 70.9772L40.1719 71.8912L39.1265 80.5556L36.8307 80.2786L37.648 73.5039L34.6358 73.1405L33.8184 79.9152L31.5508 79.6416ZM44.9388 81.4285C44.0626 81.3228 43.3273 81.0453 42.7329 80.5958C42.1427 80.1431 41.715 79.5612 41.4498 78.85C41.185 78.1351 41.1062 77.3339 41.2133 76.4464C41.3213 75.5514 41.5886 74.7901 42.0153 74.1624C42.4425 73.531 42.9964 73.0675 43.6768 72.7719C44.3615 72.4729 45.1419 72.3763 46.0182 72.4821C46.8944 72.5878 47.6276 72.867 48.2178 73.3197C48.8121 73.7692 49.2417 74.3513 49.5065 75.0662C49.7717 75.7773 49.8503 76.5804 49.7423 77.4754C49.6353 78.3629 49.3681 79.1224 48.9409 79.7538C48.5142 80.3815 47.9585 80.8447 47.2738 81.1437C46.5934 81.4393 45.815 81.5343 44.9388 81.4285ZM45.1747 79.5684C45.5733 79.6165 45.9197 79.5438 46.2139 79.3504C46.5086 79.1532 46.7475 78.8654 46.9305 78.4868C47.1173 78.1088 47.2411 77.6678 47.3019 77.1638C47.3627 76.6599 47.3473 76.2021 47.2558 75.7905C47.1681 75.3793 47.0045 75.0429 46.7652 74.7813C46.5259 74.5197 46.2069 74.3648 45.8083 74.3167C45.4059 74.2682 45.0536 74.342 44.7514 74.5383C44.4529 74.735 44.2103 75.0224 44.0236 75.4005C43.8405 75.779 43.7186 76.2203 43.6578 76.7242C43.597 77.2281 43.6105 77.6857 43.6982 78.0969C43.7898 78.5085 43.957 78.8454 44.2001 79.1074C44.4474 79.3662 44.7723 79.5199 45.1747 79.5684ZM50.2786 81.9011L50.4973 79.9931L50.785 80.0278C50.9881 80.0523 51.1689 80.0245 51.3273 79.9444C51.49 79.861 51.6338 79.7124 51.7588 79.4986C51.8838 79.2847 51.997 78.9951 52.0983 78.6296C52.2001 78.2603 52.2935 77.8023 52.3786 77.2555L52.9824 73.4367L59.571 74.2316L58.5256 82.8961L56.2354 82.6198L57.0528 75.845L54.9148 75.5871L54.4603 78.2163C54.3389 78.9381 54.1752 79.5517 53.9692 80.0571C53.767 80.5631 53.5216 80.9684 53.233 81.2732C52.9449 81.5742 52.6164 81.7825 52.2477 81.8983C51.8789 82.014 51.4632 82.044 51.0006 81.9882L50.2786 81.9011ZM61.1698 86.5115C60.8652 86.4748 60.5824 86.4159 60.3213 86.3348C60.0635 86.2579 59.8524 86.1733 59.688 86.0809L60.446 84.3525C60.7176 84.473 60.9657 84.5506 61.1905 84.5854C61.419 84.6206 61.6227 84.5917 61.8018 84.4989C61.9847 84.4065 62.1451 84.2313 62.283 83.9732L62.4683 83.6235L60.4354 74.3359L62.9625 74.6408L63.9887 81.2202L64.0789 81.2311L66.6573 75.0866L69.2014 75.3935L64.6755 84.588C64.4575 85.0349 64.1885 85.4145 63.8685 85.7269C63.5518 86.0435 63.1715 86.2704 62.7276 86.4076C62.2833 86.5486 61.764 86.5832 61.1698 86.5115ZM77.7178 76.421L76.6724 85.0854L74.3935 84.8105L75.4388 76.146L77.7178 76.421ZM76.1478 80.0889L75.9191 81.9842C75.7249 82.0447 75.486 82.096 75.2024 82.1381C74.9192 82.1765 74.6245 82.2 74.3182 82.2089C74.0119 82.2177 73.7271 82.2062 73.4639 82.1745C72.2191 82.0243 71.2704 81.6504 70.6175 81.0527C69.9652 80.4513 69.7071 79.5865 69.8432 78.4584L70.1998 75.5025L72.4674 75.7761L72.1108 78.7319C72.0704 79.0666 72.0949 79.3386 72.1841 79.5477C72.2771 79.7573 72.4443 79.9206 72.6859 80.0375C72.9316 80.1511 73.2669 80.2335 73.6919 80.2848C74.0868 80.3324 74.4791 80.3378 74.8689 80.3009C75.2587 80.264 75.685 80.1933 76.1478 80.0889ZM81.2165 82.4173L84.9988 77.2994L87.368 77.5853L86.3226 86.2497L84.0324 85.9734L84.6973 80.4622L80.9243 85.5984L78.5382 85.3105L79.5835 76.6461L81.8793 76.9231L81.2165 82.4173ZM88.1962 79.6024L88.4242 77.7127L96.2764 78.66L96.0484 80.5497L93.2561 80.2129L92.4388 86.9876L90.1486 86.7113L90.9659 79.9365L88.1962 79.6024ZM98.918 81.68L101.507 81.9924C102.654 82.1308 103.516 82.5133 104.093 83.1399C104.67 83.7628 104.904 84.5311 104.794 85.4449C104.722 86.0391 104.514 86.5444 104.17 86.9607C103.826 87.3733 103.367 87.6727 102.791 87.8588C102.216 88.0413 101.547 88.0864 100.783 87.9943L96.6878 87.5002L97.7331 78.8358L100.029 79.1128L99.2116 85.8875L101.011 86.1046C101.414 86.1532 101.757 86.0915 102.041 85.9198C102.325 85.748 102.488 85.5044 102.529 85.189C102.566 84.8538 102.467 84.5653 102.233 84.3234C102 84.0777 101.682 83.9306 101.279 83.8821L98.69 83.5697L98.918 81.68Z" fill="white"/>
</g>
</g>
</g>
<defs>
<clipPath id="clip0_311_48">
<rect width="140" height="140" fill="white"/>
</clipPath>
<clipPath id="clip1_311_48">
<rect width="140" height="140" fill="white"/>
</clipPath>
<clipPath id="clip2_311_48">
<rect width="140" height="140" fill="white"/>
</clipPath>
</defs>
</svg>
