<svg width="140" height="140" viewBox="0 0 140 140" fill="none" xmlns="http://www.w3.org/2000/svg">
<circle cx="70" cy="70" r="70" fill="#FF1A1A"/>
<circle cx="70" cy="70" r="64.5" stroke="white"/>
<path d="M23.6609 51.7966L26.0097 56.8737L26.1114 56.8847L29.5072 52.431L32.1953 52.7226L27.4794 58.7948L30.8468 65.744L28.1142 65.4476L25.7301 60.3989L25.6285 60.3878L22.217 64.8077L19.4972 64.5126L24.3147 58.4515L20.9601 51.5036L23.6609 51.7966ZM36.2626 66.5245C35.3094 66.4211 34.506 66.1218 33.8525 65.6265C33.199 65.1312 32.7204 64.4857 32.4167 63.6897C32.1172 62.8943 32.0222 61.9924 32.1316 60.9841C32.241 59.9758 32.5274 59.1132 32.991 58.3962C33.4588 57.6797 34.065 57.1497 34.8095 56.8061C35.554 56.4625 36.4029 56.3425 37.3561 56.4459C38.3093 56.5493 39.1127 56.8486 39.7662 57.3439C40.4197 57.8392 40.896 58.4866 41.195 59.2863C41.4982 60.0865 41.5951 60.9907 41.4857 61.999C41.3764 63.0073 41.088 63.8676 40.6206 64.5798C40.1575 65.2926 39.5537 65.8207 38.8092 66.1643C38.0647 66.5079 37.2158 66.6279 36.2626 66.5245ZM36.4752 64.683C36.9921 64.7391 37.4396 64.6441 37.8178 64.3979C38.1965 64.1475 38.4967 63.79 38.7186 63.3255C38.9447 62.8613 39.0899 62.3327 39.1542 61.7396C39.2191 61.1423 39.1908 60.5927 39.0695 60.0909C38.9529 59.5853 38.7365 59.1696 38.4204 58.8439C38.1043 58.5181 37.6878 58.3272 37.1709 58.2711C36.6414 58.2136 36.1851 58.3099 35.8023 58.5598C35.4236 58.8102 35.121 59.1696 34.8944 59.6379C34.6726 60.1025 34.5292 60.6334 34.4644 61.2308C34.4001 61.8239 34.4264 62.3711 34.5435 62.8725C34.6648 63.3743 34.8835 63.7881 35.1996 64.1138C35.5205 64.4358 35.9457 64.6256 36.4752 64.683ZM52.125 58.1769L51.066 67.9378L48.8546 67.6978L49.9136 57.9369L52.125 58.1769ZM50.6107 62.4747L50.4066 64.3557C50.1447 64.4387 49.8501 64.5075 49.5227 64.562C49.2 64.6127 48.8601 64.6444 48.5029 64.6571C48.15 64.6702 47.7999 64.658 47.4525 64.6203C46.1476 64.4787 45.1478 64.0745 44.4529 63.4075C43.7627 62.7368 43.4851 61.7787 43.6203 60.5332L43.9733 57.2796L46.172 57.5181L45.819 60.7718C45.7735 61.1912 45.8111 61.536 45.9318 61.8063C46.0525 62.0766 46.2568 62.2873 46.5447 62.4386C46.8331 62.5856 47.204 62.6837 47.6573 62.7329C48.1656 62.7881 48.6541 62.7896 49.1227 62.7376C49.5913 62.6856 50.0873 62.5979 50.6107 62.4747ZM54.0639 71.9665C53.7504 71.9325 53.463 71.8756 53.2016 71.7958C52.944 71.7207 52.7402 71.6428 52.5904 71.5623L53.3186 69.8281C53.6427 69.9619 53.9363 70.0409 54.1995 70.0652C54.4626 70.0894 54.7024 70.0319 54.919 69.8925C55.1394 69.7578 55.3395 69.5138 55.5192 69.1603L55.7735 68.6543L53.315 58.306L55.7552 58.5707L57.205 66.1863L57.3067 66.1974L60.3624 59.0706L62.809 59.3361L57.7135 69.8549C57.4753 70.352 57.1858 70.7685 56.845 71.1045C56.5037 71.4446 56.1044 71.6885 55.6469 71.836C55.1931 71.9883 54.6655 72.0317 54.0639 71.9665ZM68.1011 61.8198L68.3058 59.9325L76.8466 60.8591L76.6418 62.7465L73.4835 62.4038L72.6293 70.2774L70.4051 70.036L71.2594 62.1625L68.1011 61.8198ZM80.0048 71.2769C79.3863 71.2098 78.8411 71.0392 78.3694 70.7651C77.9023 70.4873 77.5484 70.1145 77.3077 69.6469C77.0712 69.1798 76.9876 68.6263 77.057 67.9866C77.1168 67.4359 77.2679 66.9915 77.5103 66.6534C77.7527 66.3154 78.0615 66.0574 78.4365 65.8795C78.8116 65.7016 79.2254 65.5815 79.678 65.5191C80.1352 65.453 80.6038 65.4203 81.0838 65.4209C81.6622 65.4237 82.1318 65.421 82.4928 65.413C82.8541 65.4008 83.1208 65.3526 83.2929 65.2684C83.4696 65.1804 83.5699 65.0263 83.5938 64.806L83.5979 64.7678C83.6499 64.2891 83.5482 63.903 83.2928 63.6096C83.0375 63.3161 82.6429 63.1404 82.1091 63.0825C81.5456 63.0214 81.0854 63.0957 80.7282 63.3056C80.3754 63.5159 80.1236 63.7822 79.9729 64.1045L77.8581 63.5664C78.0919 62.9917 78.4253 62.5263 78.8582 62.1704C79.2917 61.8102 79.8009 61.5611 80.386 61.4232C80.9715 61.2809 81.6053 61.2468 82.2874 61.3208C82.7576 61.3719 83.2198 61.4777 83.6738 61.6384C84.1279 61.7992 84.5339 62.0275 84.8919 62.3235C85.2503 62.6153 85.5225 62.9899 85.7086 63.4473C85.899 63.9052 85.959 64.4582 85.8887 65.1064L85.1799 71.6391L82.9685 71.3991L83.1139 70.0583L83.0377 70.05C82.8685 70.306 82.6439 70.5388 82.3639 70.7485C82.0887 70.9543 81.7526 71.1086 81.3557 71.2113C80.9635 71.3102 80.5132 71.3321 80.0048 71.2769ZM80.7856 69.6513C81.2474 69.7015 81.6576 69.6538 82.0163 69.5084C82.3754 69.3588 82.6626 69.1413 82.8779 68.8561C83.0974 68.5713 83.2267 68.2488 83.2657 67.8887L83.3905 66.7385C83.3121 66.79 83.1832 66.8317 83.004 66.8637C82.8291 66.8962 82.6336 66.92 82.4176 66.9351C82.2017 66.9503 81.9883 66.9614 81.7775 66.9685C81.5667 66.9757 81.3839 66.9816 81.229 66.9862C80.8808 66.9956 80.5654 67.0385 80.2828 67.115C80.0002 67.1915 79.7701 67.3165 79.5927 67.4902C79.4157 67.6596 79.3111 67.8926 79.279 68.1891C79.233 68.6128 79.3529 68.9494 79.6388 69.199C79.9246 69.4486 80.3068 69.5994 80.7856 69.6513ZM87.493 71.89L88.5521 62.1291L90.8525 62.3787L90.425 66.3187L91.2638 66.4097L94.6272 62.7883L97.3979 63.0889L93.2622 67.4881L96.377 72.8539L93.5936 72.5519L91.3175 68.5823L90.1927 68.4602L89.7935 72.1396L87.493 71.89ZM101.516 73.6044C100.563 73.501 99.7598 73.2017 99.1063 72.7064C98.4527 72.2112 97.9741 71.5656 97.6704 70.7696C97.371 69.9742 97.2759 69.0723 97.3853 68.064C97.4947 67.0557 97.7812 66.1931 98.2448 65.4761C98.7126 64.7596 99.3187 64.2296 100.063 63.886C100.808 63.5424 101.657 63.4224 102.61 63.5258C103.563 63.6292 104.366 63.9286 105.02 64.4238C105.673 64.9191 106.15 65.5665 106.449 66.3662C106.752 67.1664 106.849 68.0706 106.74 69.0789C106.63 70.0872 106.342 70.9475 105.874 71.6598C105.411 72.3725 104.807 72.9006 104.063 73.2442C103.318 73.5878 102.47 73.7079 101.516 73.6044ZM101.729 71.7629C102.246 71.819 102.693 71.724 103.072 71.4778C103.45 71.2274 103.75 70.8699 103.972 70.4054C104.198 69.9413 104.344 69.4126 104.408 68.8195C104.473 68.2222 104.445 67.6726 104.323 67.1708C104.207 66.6652 103.99 66.2495 103.674 65.9238C103.358 65.598 102.942 65.4071 102.425 65.351C101.895 65.2935 101.439 65.3898 101.056 65.6397C100.677 65.8901 100.375 66.2495 100.148 66.7178C99.9263 67.1824 99.783 67.7133 99.7182 68.3107C99.6539 68.9038 99.6802 69.451 99.7973 69.9524C99.9186 70.4542 100.137 70.868 100.453 71.1938C100.774 71.5157 101.199 71.7055 101.729 71.7629ZM110.722 71.2599L115.352 65.0368L117.716 65.2933L116.657 75.0542L114.432 74.8129L115.154 68.1595L110.537 74.3903L108.167 74.1331L109.226 64.3722L111.443 64.6128L110.722 71.2599ZM115.087 61.6133L116.809 61.8001C116.728 62.5415 116.394 63.1139 115.806 63.5173C115.222 63.9169 114.473 64.0671 113.558 63.9678C112.651 63.8695 111.954 63.5623 111.466 63.0464C110.982 62.5267 110.782 61.8964 110.867 61.1555L112.576 61.3409C112.543 61.646 112.607 61.9293 112.767 62.191C112.932 62.449 113.243 62.6027 113.701 62.6524C114.15 62.7011 114.483 62.6172 114.699 62.4006C114.92 62.1845 115.049 61.9221 115.087 61.6133ZM45.17 92.2948L45.6829 87.5668L46.4582 87.6509C46.6833 87.5125 46.8806 87.3131 47.0503 87.0529C47.2205 86.7885 47.3705 86.4726 47.5003 86.1052C47.6349 85.734 47.7574 85.3165 47.8677 84.8527C47.9785 84.3847 48.0868 83.8799 48.1927 83.3384L48.8433 79.9499L55.8971 80.7152L55.0435 88.5824L56.5559 88.7465L56.0429 93.4745L53.8188 93.2331L54.1263 90.3989L47.7398 89.706L47.4323 92.5402L45.17 92.2948ZM48.8222 87.9074L52.8447 88.3439L53.497 82.3323L50.6374 82.022L50.3152 83.5687C50.1183 84.5932 49.91 85.4665 49.6902 86.1885C49.4704 86.9105 49.1811 87.4834 48.8222 87.9074ZM62.3048 91.4792C61.3516 91.3757 60.5482 91.0764 59.8947 90.5811C59.2412 90.0859 58.7626 89.4403 58.4589 88.6444C58.1594 87.8489 58.0644 86.947 58.1738 85.9387C58.2832 84.9305 58.5697 84.0678 59.0332 83.3509C59.501 82.6344 60.1072 82.1043 60.8517 81.7608C61.5963 81.4172 62.4451 81.2971 63.3983 81.4005C64.3515 81.504 65.1549 81.8033 65.8084 82.2985C66.4619 82.7938 66.9382 83.4413 67.2372 84.241C67.5405 85.0411 67.6374 85.9454 67.528 86.9537C67.4186 87.9619 67.1302 88.8222 66.6629 89.5345C66.1998 90.2472 65.596 90.7754 64.8514 91.1189C64.1069 91.4625 63.258 91.5826 62.3048 91.4792ZM62.5175 89.6377C63.0343 89.6937 63.4819 89.5987 63.86 89.3526C64.2387 89.1022 64.539 88.7447 64.7608 88.2801C64.9869 87.816 65.1321 87.2874 65.1965 86.6943C65.2613 86.0969 65.2331 85.5473 65.1118 85.0455C64.9952 84.54 64.7788 84.1243 64.4627 83.7985C64.1465 83.4727 63.73 83.2818 63.2132 83.2257C62.6836 83.1683 62.2274 83.2645 61.8445 83.5144C61.4658 83.7648 61.1632 84.1242 60.9367 84.5925C60.7148 85.0571 60.5715 85.5881 60.5067 86.1854C60.4423 86.7785 60.4687 87.3258 60.5857 87.8271C60.707 88.3289 60.9258 88.7427 61.2419 89.0685C61.5627 89.3905 61.9879 89.5802 62.5175 89.6377ZM74.863 89.942L78.5295 83.1708L80.3851 83.3722L75.3798 92.7049L73.772 92.5304L70.9737 82.351L72.8102 82.5503L74.863 89.942ZM72.2319 82.4876L71.1729 92.2485L68.9551 92.0078L70.0141 82.2469L72.2319 82.4876ZM78.0678 92.9965L79.1269 83.2356L81.3256 83.4742L80.2666 93.2351L78.0678 92.9965ZM86.8133 80.7777L85.6066 89.9439L83.5603 89.7219L84.354 80.5108L86.8133 80.7777ZM84.1532 93.7982C83.7677 93.7564 83.4519 93.585 83.206 93.284C82.9643 92.9834 82.8646 92.6383 82.9068 92.2485C82.9482 91.8672 83.1192 91.5557 83.4197 91.314C83.7245 91.0727 84.0697 90.973 84.4552 91.0149C84.8322 91.0558 85.1438 91.2267 85.3897 91.5277C85.6399 91.8292 85.7443 92.1706 85.7029 92.5519C85.6749 92.8103 85.5837 93.0383 85.4294 93.2359C85.2793 93.4339 85.0915 93.585 84.8659 93.6891C84.645 93.7894 84.4074 93.8258 84.1532 93.7982Z" fill="white"/>
</svg>
