<svg width="148" height="148" viewBox="0 0 148 148" fill="none" xmlns="http://www.w3.org/2000/svg">
<g filter="url(#filter0_d_23_7292)">
<circle cx="74" cy="70" r="70" fill="#FF1A1A"/>
</g>
<circle cx="74" cy="70" r="64.5" stroke="white"/>
<path d="M27.6609 51.7966L30.0097 56.8737L30.1114 56.8847L33.5072 52.431L36.1953 52.7226L31.4794 58.7948L34.8468 65.744L32.1142 65.4476L29.7301 60.3989L29.6285 60.3878L26.217 64.8077L23.4972 64.5126L28.3147 58.4515L24.9601 51.5036L27.6609 51.7966ZM40.2626 66.5245C39.3094 66.4211 38.506 66.1218 37.8525 65.6265C37.199 65.1312 36.7204 64.4857 36.4167 63.6897C36.1172 62.8943 36.0222 61.9924 36.1316 60.9841C36.241 59.9758 36.5274 59.1132 36.991 58.3962C37.4588 57.6797 38.065 57.1497 38.8095 56.8061C39.554 56.4625 40.4029 56.3425 41.3561 56.4459C42.3093 56.5493 43.1127 56.8486 43.7662 57.3439C44.4197 57.8392 44.896 58.4866 45.195 59.2863C45.4982 60.0865 45.5951 60.9907 45.4857 61.999C45.3764 63.0073 45.088 63.8676 44.6206 64.5798C44.1575 65.2926 43.5537 65.8207 42.8092 66.1643C42.0647 66.5079 41.2158 66.6279 40.2626 66.5245ZM40.4752 64.683C40.9921 64.7391 41.4396 64.6441 41.8178 64.3979C42.1965 64.1475 42.4967 63.79 42.7186 63.3255C42.9447 62.8613 43.0899 62.3327 43.1542 61.7396C43.2191 61.1423 43.1908 60.5927 43.0695 60.0909C42.9529 59.5853 42.7365 59.1696 42.4204 58.8439C42.1043 58.5181 41.6878 58.3272 41.1709 58.2711C40.6414 58.2136 40.1851 58.3099 39.8023 58.5598C39.4236 58.8102 39.121 59.1696 38.8944 59.6379C38.6726 60.1025 38.5292 60.6334 38.4644 61.2308C38.4001 61.8239 38.4264 62.3711 38.5435 62.8725C38.6648 63.3743 38.8835 63.7881 39.1996 64.1138C39.5205 64.4358 39.9457 64.6256 40.4752 64.683ZM56.125 58.1769L55.066 67.9378L52.8546 67.6978L53.9136 57.9369L56.125 58.1769ZM54.6107 62.4747L54.4066 64.3557C54.1447 64.4387 53.8501 64.5075 53.5227 64.562C53.2 64.6127 52.8601 64.6444 52.5029 64.6571C52.15 64.6702 51.7999 64.658 51.4525 64.6203C50.1476 64.4787 49.1478 64.0745 48.4529 63.4075C47.7627 62.7368 47.4851 61.7787 47.6203 60.5332L47.9733 57.2796L50.172 57.5181L49.819 60.7718C49.7735 61.1912 49.8111 61.536 49.9318 61.8063C50.0525 62.0766 50.2568 62.2873 50.5447 62.4386C50.8331 62.5856 51.204 62.6837 51.6573 62.7329C52.1656 62.7881 52.6541 62.7896 53.1227 62.7376C53.5913 62.6856 54.0873 62.5979 54.6107 62.4747ZM58.0639 71.9665C57.7504 71.9325 57.463 71.8756 57.2016 71.7958C56.944 71.7207 56.7402 71.6428 56.5904 71.5623L57.3186 69.8281C57.6427 69.9619 57.9363 70.0409 58.1995 70.0652C58.4626 70.0894 58.7024 70.0319 58.919 69.8925C59.1394 69.7578 59.3395 69.5138 59.5192 69.1603L59.7735 68.6543L57.315 58.306L59.7552 58.5707L61.205 66.1863L61.3067 66.1974L64.3624 59.0706L66.809 59.3361L61.7135 69.8549C61.4753 70.352 61.1858 70.7685 60.845 71.1045C60.5037 71.4446 60.1044 71.6885 59.6469 71.836C59.1931 71.9883 58.6655 72.0317 58.0639 71.9665ZM72.1011 61.8198L72.3058 59.9325L80.8466 60.8591L80.6418 62.7465L77.4835 62.4038L76.6293 70.2774L74.4051 70.036L75.2594 62.1625L72.1011 61.8198ZM84.0048 71.2769C83.3863 71.2098 82.8411 71.0392 82.3694 70.7651C81.9023 70.4873 81.5484 70.1145 81.3077 69.6469C81.0712 69.1798 80.9876 68.6263 81.057 67.9866C81.1168 67.4359 81.2679 66.9915 81.5103 66.6534C81.7527 66.3154 82.0615 66.0574 82.4365 65.8795C82.8116 65.7016 83.2254 65.5815 83.678 65.5191C84.1352 65.453 84.6038 65.4203 85.0838 65.4209C85.6622 65.4237 86.1318 65.421 86.4928 65.413C86.8541 65.4008 87.1208 65.3526 87.2929 65.2684C87.4696 65.1804 87.5699 65.0263 87.5938 64.806L87.5979 64.7678C87.6499 64.2891 87.5482 63.903 87.2928 63.6096C87.0375 63.3161 86.6429 63.1404 86.1091 63.0825C85.5456 63.0214 85.0854 63.0957 84.7282 63.3056C84.3754 63.5159 84.1236 63.7822 83.9729 64.1045L81.8581 63.5664C82.0919 62.9917 82.4253 62.5263 82.8582 62.1704C83.2917 61.8102 83.8009 61.5611 84.386 61.4232C84.9715 61.2809 85.6053 61.2468 86.2874 61.3208C86.7576 61.3719 87.2198 61.4777 87.6738 61.6384C88.1279 61.7992 88.5339 62.0275 88.8919 62.3235C89.2503 62.6153 89.5225 62.9899 89.7086 63.4473C89.899 63.9052 89.959 64.4582 89.8887 65.1064L89.1799 71.6391L86.9685 71.3991L87.1139 70.0583L87.0377 70.05C86.8685 70.306 86.6439 70.5388 86.3639 70.7485C86.0887 70.9543 85.7526 71.1086 85.3557 71.2113C84.9635 71.3102 84.5132 71.3321 84.0048 71.2769ZM84.7856 69.6513C85.2474 69.7015 85.6576 69.6538 86.0163 69.5084C86.3754 69.3588 86.6626 69.1413 86.8779 68.8561C87.0974 68.5713 87.2267 68.2488 87.2657 67.8887L87.3905 66.7385C87.3121 66.79 87.1832 66.8317 87.004 66.8637C86.8291 66.8962 86.6336 66.92 86.4176 66.9351C86.2017 66.9503 85.9883 66.9614 85.7775 66.9685C85.5667 66.9757 85.3839 66.9816 85.229 66.9862C84.8808 66.9956 84.5654 67.0385 84.2828 67.115C84.0002 67.1915 83.7701 67.3165 83.5927 67.4902C83.4157 67.6596 83.3111 67.8926 83.279 68.1891C83.233 68.6128 83.3529 68.9494 83.6388 69.199C83.9246 69.4486 84.3068 69.5994 84.7856 69.6513ZM91.493 71.89L92.5521 62.1291L94.8525 62.3787L94.425 66.3187L95.2638 66.4097L98.6272 62.7883L101.398 63.0889L97.2622 67.4881L100.377 72.8539L97.5936 72.5519L95.3175 68.5823L94.1927 68.4602L93.7935 72.1396L91.493 71.89ZM105.516 73.6044C104.563 73.501 103.76 73.2017 103.106 72.7064C102.453 72.2112 101.974 71.5656 101.67 70.7696C101.371 69.9742 101.276 69.0723 101.385 68.064C101.495 67.0557 101.781 66.1931 102.245 65.4761C102.713 64.7596 103.319 64.2296 104.063 63.886C104.808 63.5424 105.657 63.4224 106.61 63.5258C107.563 63.6292 108.366 63.9286 109.02 64.4238C109.673 64.9191 110.15 65.5665 110.449 66.3662C110.752 67.1664 110.849 68.0706 110.74 69.0789C110.63 70.0872 110.342 70.9475 109.874 71.6598C109.411 72.3725 108.807 72.9006 108.063 73.2442C107.318 73.5878 106.47 73.7079 105.516 73.6044ZM105.729 71.7629C106.246 71.819 106.693 71.724 107.072 71.4778C107.45 71.2274 107.75 70.8699 107.972 70.4054C108.198 69.9413 108.344 69.4126 108.408 68.8195C108.473 68.2222 108.445 67.6726 108.323 67.1708C108.207 66.6652 107.99 66.2495 107.674 65.9238C107.358 65.598 106.942 65.4071 106.425 65.351C105.895 65.2935 105.439 65.3898 105.056 65.6397C104.677 65.8901 104.375 66.2495 104.148 66.7178C103.926 67.1824 103.783 67.7133 103.718 68.3107C103.654 68.9038 103.68 69.451 103.797 69.9524C103.919 70.4542 104.137 70.868 104.453 71.1938C104.774 71.5157 105.199 71.7055 105.729 71.7629ZM114.722 71.2599L119.352 65.0368L121.716 65.2933L120.657 75.0542L118.432 74.8129L119.154 68.1595L114.537 74.3903L112.167 74.1331L113.226 64.3722L115.443 64.6128L114.722 71.2599ZM119.087 61.6133L120.809 61.8001C120.728 62.5415 120.394 63.1139 119.806 63.5173C119.222 63.9169 118.473 64.0671 117.558 63.9678C116.651 63.8695 115.954 63.5623 115.466 63.0464C114.982 62.5267 114.782 61.8964 114.867 61.1555L116.576 61.3409C116.543 61.646 116.607 61.9293 116.767 62.191C116.932 62.449 117.243 62.6027 117.701 62.6524C118.15 62.7011 118.483 62.6172 118.699 62.4006C118.92 62.1845 119.049 61.9221 119.087 61.6133ZM49.17 92.2948L49.6829 87.5668L50.4582 87.6509C50.6833 87.5125 50.8806 87.3131 51.0503 87.0529C51.2205 86.7885 51.3705 86.4726 51.5003 86.1052C51.6349 85.734 51.7574 85.3165 51.8677 84.8527C51.9785 84.3847 52.0868 83.8799 52.1927 83.3384L52.8433 79.9499L59.8971 80.7152L59.0435 88.5824L60.5559 88.7465L60.0429 93.4745L57.8188 93.2331L58.1263 90.3989L51.7398 89.706L51.4323 92.5402L49.17 92.2948ZM52.8222 87.9074L56.8447 88.3439L57.497 82.3323L54.6374 82.022L54.3152 83.5687C54.1183 84.5932 53.91 85.4665 53.6902 86.1885C53.4704 86.9105 53.1811 87.4834 52.8222 87.9074ZM66.3048 91.4792C65.3516 91.3757 64.5482 91.0764 63.8947 90.5811C63.2412 90.0859 62.7626 89.4403 62.4589 88.6444C62.1594 87.8489 62.0644 86.947 62.1738 85.9387C62.2832 84.9305 62.5697 84.0678 63.0332 83.3509C63.501 82.6344 64.1072 82.1043 64.8517 81.7608C65.5963 81.4172 66.4451 81.2971 67.3983 81.4005C68.3515 81.504 69.1549 81.8033 69.8084 82.2985C70.4619 82.7938 70.9382 83.4413 71.2372 84.241C71.5405 85.0411 71.6374 85.9454 71.528 86.9537C71.4186 87.9619 71.1302 88.8222 70.6629 89.5345C70.1998 90.2472 69.596 90.7754 68.8514 91.1189C68.1069 91.4625 67.258 91.5826 66.3048 91.4792ZM66.5175 89.6377C67.0343 89.6937 67.4819 89.5987 67.86 89.3526C68.2387 89.1022 68.539 88.7447 68.7608 88.2801C68.9869 87.816 69.1321 87.2874 69.1965 86.6943C69.2613 86.0969 69.2331 85.5473 69.1118 85.0455C68.9952 84.54 68.7788 84.1243 68.4627 83.7985C68.1465 83.4727 67.73 83.2818 67.2132 83.2257C66.6836 83.1683 66.2274 83.2645 65.8445 83.5144C65.4658 83.7648 65.1632 84.1242 64.9367 84.5925C64.7148 85.0571 64.5715 85.5881 64.5067 86.1854C64.4423 86.7785 64.4687 87.3258 64.5857 87.8271C64.707 88.3289 64.9258 88.7427 65.2419 89.0685C65.5627 89.3905 65.9879 89.5802 66.5175 89.6377ZM78.863 89.942L82.5295 83.1708L84.3851 83.3722L79.3798 92.7049L77.772 92.5304L74.9737 82.351L76.8102 82.5503L78.863 89.942ZM76.2319 82.4876L75.1729 92.2485L72.9551 92.0078L74.0141 82.2469L76.2319 82.4876ZM82.0678 92.9965L83.1269 83.2356L85.3256 83.4742L84.2666 93.2351L82.0678 92.9965ZM90.8133 80.7777L89.6066 89.9439L87.5603 89.7219L88.354 80.5108L90.8133 80.7777ZM88.1532 93.7982C87.7677 93.7564 87.4519 93.585 87.206 93.284C86.9643 92.9834 86.8646 92.6383 86.9068 92.2485C86.9482 91.8672 87.1192 91.5557 87.4197 91.314C87.7245 91.0727 88.0697 90.973 88.4552 91.0149C88.8322 91.0558 89.1438 91.2267 89.3897 91.5277C89.6399 91.8292 89.7443 92.1706 89.7029 92.5519C89.6749 92.8103 89.5837 93.0383 89.4294 93.2359C89.2793 93.4339 89.0915 93.585 88.8659 93.6891C88.645 93.7894 88.4074 93.8258 88.1532 93.7982Z" fill="white"/>
<defs>
<filter id="filter0_d_23_7292" x="0" y="0" width="148" height="148" filterUnits="userSpaceOnUse" color-interpolation-filters="sRGB">
<feFlood flood-opacity="0" result="BackgroundImageFix"/>
<feColorMatrix in="SourceAlpha" type="matrix" values="0 0 0 0 0 0 0 0 0 0 0 0 0 0 0 0 0 0 127 0" result="hardAlpha"/>
<feOffset dy="4"/>
<feGaussianBlur stdDeviation="2"/>
<feComposite in2="hardAlpha" operator="out"/>
<feColorMatrix type="matrix" values="0 0 0 0 0.3025 0 0 0 0 0.3025 0 0 0 0 0.3025 0 0 0 0.25 0"/>
<feBlend mode="normal" in2="BackgroundImageFix" result="effect1_dropShadow_23_7292"/>
<feBlend mode="normal" in="SourceGraphic" in2="effect1_dropShadow_23_7292" result="shape"/>
</filter>
</defs>
</svg>
