<svg width="140" height="140" viewBox="0 0 140 140" fill="none" xmlns="http://www.w3.org/2000/svg">
<circle cx="70" cy="70" r="70" fill="#FF1A1A"/>
<circle cx="70" cy="70" r="64.5" stroke="white"/>
<path d="M39.3786 54.7278L37.0019 54.4699C36.9764 54.0728 36.8889 53.714 36.7393 53.3934C36.5903 53.0686 36.3916 52.7856 36.1435 52.5444C35.8953 52.3031 35.6033 52.1107 35.2674 51.9671C34.9362 51.8197 34.5715 51.7244 34.1733 51.6812C33.4658 51.6045 32.8194 51.7144 32.2343 52.0109C31.6497 52.3033 31.1657 52.7737 30.7824 53.4222C30.3996 54.0665 30.1551 54.878 30.049 55.8566C29.9409 56.8522 30.0046 57.7078 30.2398 58.4234C30.4798 59.1353 30.852 59.6943 31.3566 60.1005C31.8659 60.503 32.4722 60.7424 33.1754 60.8187C33.5652 60.861 33.935 60.8497 34.285 60.7848C34.6396 60.7161 34.9636 60.5948 35.2568 60.4208C35.5542 60.2474 35.8122 60.0225 36.0308 59.7461C36.2536 59.4702 36.4217 59.1456 36.5351 58.7721L38.9104 59.0427C38.7543 59.6516 38.4986 60.211 38.1432 60.7211C37.792 61.2317 37.3567 61.6688 36.8372 62.0325C36.3181 62.392 35.7282 62.6537 35.0674 62.8178C34.4071 62.9776 33.6893 63.0155 32.9141 62.9314C31.7702 62.8073 30.7779 62.4317 29.9373 61.8047C29.0966 61.1777 28.472 60.3362 28.0637 59.2803C27.6553 58.2244 27.5269 56.9975 27.6786 55.5994C27.8308 54.1971 28.2214 53.0265 28.8505 52.0874C29.4801 51.1442 30.2727 50.4565 31.2283 50.0244C32.1838 49.5922 33.2293 49.4378 34.3647 49.561C35.0892 49.6396 35.7517 49.8143 36.3524 50.0852C36.9531 50.3562 37.4757 50.7151 37.9202 51.1619C38.3651 51.6045 38.7135 52.1267 38.9654 52.7284C39.222 53.3263 39.3597 53.9928 39.3786 54.7278ZM46.4082 61.5086L50.0747 54.7374L51.9303 54.9388L46.9249 64.2715L45.3172 64.097L42.5189 53.9176L44.3554 54.1169L46.4082 61.5086ZM43.7771 54.0542L42.7181 63.815L40.5003 63.5744L41.5593 53.8135L43.7771 54.0542ZM49.613 64.5631L50.672 54.8022L52.8708 55.0408L51.8117 64.8017L49.613 64.5631ZM58.3682 65.7059C57.415 65.6025 56.6116 65.3032 55.9581 64.8079C55.3046 64.3127 54.826 63.6671 54.5223 62.8712C54.2228 62.0757 54.1278 61.1738 54.2372 60.1655C54.3466 59.1572 54.6331 58.2946 55.0966 57.5776C55.5644 56.8611 56.1706 56.3311 56.9151 55.9875C57.6597 55.644 58.5085 55.5239 59.4617 55.6273C60.4149 55.7307 61.2183 56.0301 61.8718 56.5253C62.5253 57.0206 63.0016 57.6681 63.3006 58.4678C63.6039 59.2679 63.7008 60.1722 63.5914 61.1804C63.482 62.1887 63.1936 63.049 62.7263 63.7613C62.2632 64.474 61.6594 65.0022 60.9148 65.3457C60.1703 65.6893 59.3214 65.8094 58.3682 65.7059ZM58.5809 63.8644C59.0977 63.9205 59.5453 63.8255 59.9234 63.5793C60.3021 63.3289 60.6024 62.9715 60.8242 62.5069C61.0503 62.0428 61.1955 61.5142 61.2599 60.921C61.3247 60.3237 61.2965 59.7741 61.1752 59.2723C61.0586 58.7667 60.8422 58.3511 60.5261 58.0253C60.2099 57.6995 59.7934 57.5086 59.2766 57.4525C58.747 57.395 58.2908 57.4913 57.9079 57.7412C57.5292 57.9916 57.2266 58.351 57.0001 58.8193C56.7782 59.2839 56.6349 59.8149 56.5701 60.4122C56.5057 61.0053 56.5321 61.5525 56.6491 62.0539C56.7704 62.5557 56.9892 62.9695 57.3053 63.2953C57.6261 63.6173 58.0513 63.807 58.5809 63.8644ZM64.7972 58.2444L65.002 56.357L73.5428 57.2837L73.338 59.171L70.1797 58.8284L69.3254 66.7019L67.1013 66.4606L67.9555 58.587L64.7972 58.2444ZM73.9184 70.9036L75.3745 57.4824L77.6368 57.7279L77.4617 59.342L77.5952 59.3565C77.7395 59.1321 77.9342 58.8982 78.1792 58.6547C78.4247 58.407 78.7421 58.2078 79.1313 58.0572C79.5211 57.9023 80.0019 57.8559 80.5738 57.9179C81.3279 57.9997 81.987 58.2663 82.5509 58.7175C83.1196 59.165 83.5412 59.783 83.8157 60.5715C84.0949 61.3561 84.1757 62.2908 84.058 63.3753C83.9417 64.4471 83.6671 65.3389 83.2341 66.0506C82.8011 66.7623 82.2603 67.2823 81.6118 67.6106C80.9632 67.9389 80.2555 68.0614 79.4887 67.9782C78.9295 67.9175 78.4757 67.774 78.1274 67.5476C77.779 67.3212 77.5068 67.0645 77.3108 66.7775C77.1194 66.4867 76.9752 66.216 76.8781 65.9654L76.7828 65.955L76.2188 71.1532L73.9184 70.9036ZM77.101 62.6076C77.0325 63.2389 77.0615 63.8014 77.1879 64.2952C77.3186 64.7894 77.5389 65.1884 77.8489 65.4921C78.1635 65.792 78.5645 65.9683 79.0517 66.0212C79.56 66.0763 80.0005 65.987 80.3731 65.7531C80.7461 65.5149 81.0452 65.168 81.2704 64.7124C81.5003 64.253 81.6483 63.7182 81.7145 63.1082C81.7802 62.5024 81.7518 61.9549 81.6291 61.4658C81.5064 60.9767 81.288 60.5801 80.9738 60.276C80.6596 59.9718 80.2462 59.792 79.7336 59.7363C79.2421 59.683 78.8108 59.767 78.4396 59.9882C78.0684 60.2093 77.7686 60.5433 77.5401 60.99C77.3158 61.4372 77.1694 61.9764 77.101 62.6076ZM89.8004 69.1163C88.8218 69.0101 87.9987 68.715 87.3311 68.2311C86.6681 67.7434 86.1867 67.104 85.8868 66.3127C85.5873 65.5173 85.493 64.609 85.6038 63.588C85.7127 62.584 85.999 61.7235 86.4625 61.0065C86.9308 60.2858 87.5332 59.751 88.2697 59.4023C89.0067 59.0493 89.8412 58.9234 90.7732 59.0245C91.3748 59.0898 91.9319 59.2488 92.4445 59.5016C92.9619 59.7507 93.4042 60.0987 93.7715 60.5457C94.143 60.9933 94.4136 61.5413 94.5833 62.1898C94.7534 62.834 94.792 63.5841 94.6992 64.4398L94.6227 65.1452L86.622 64.2772L86.7903 62.7266L92.5858 63.3554C92.6294 62.9144 92.5766 62.5121 92.4274 62.1488C92.2787 61.7811 92.0478 61.4796 91.7347 61.2442C91.4258 61.0092 91.0511 60.8678 90.6105 60.82C90.1403 60.769 89.7148 60.8386 89.3341 61.0287C88.9539 61.2147 88.6442 61.4811 88.4051 61.8281C88.1707 62.1713 88.0277 62.5608 87.9761 62.9967L87.8293 64.3503C87.7677 64.918 87.8186 65.4164 87.9821 65.8457C88.146 66.2707 88.4026 66.6114 88.752 66.8679C89.1018 67.1202 89.5267 67.2734 90.0266 67.3277C90.3613 67.364 90.6693 67.3503 90.9505 67.2865C91.2322 67.2185 91.4827 67.102 91.7021 66.9372C91.9214 66.7724 92.0969 66.5579 92.2284 66.2935L94.3501 66.768C94.153 67.321 93.8408 67.7887 93.4135 68.1709C92.991 68.5494 92.4726 68.8233 91.8585 68.9924C91.2448 69.1573 90.5587 69.1986 89.8004 69.1163ZM96.1484 61.6459L96.3532 59.7585L104.894 60.6852L104.689 62.5726L101.531 62.2299L100.677 70.1034L98.4524 69.8621L99.3067 61.9886L96.1484 61.6459ZM107.938 64.2302L110.817 64.5426C112.062 64.6777 112.993 65.0852 113.609 65.765C114.226 66.4448 114.483 67.2764 114.38 68.2598C114.307 68.899 114.088 69.4497 113.725 69.9118C113.366 70.3744 112.879 70.7159 112.264 70.9363C111.653 71.1529 110.933 71.2162 110.102 71.1261L105.667 70.6448L106.726 60.884L108.944 61.1246L108.089 68.9981L110.307 69.2387C110.807 69.293 111.232 69.2105 111.581 68.9912C111.931 68.7677 112.128 68.4547 112.172 68.0523C112.218 67.6286 112.094 67.2659 111.801 66.9641C111.508 66.6622 111.112 66.4842 110.612 66.4299L107.733 66.1176L107.938 64.2302ZM54.7306 87.4404C53.752 87.3342 52.9288 87.0391 52.2612 86.5552C51.5983 86.0675 51.1169 85.4281 50.817 84.6368C50.5175 83.8414 50.4232 82.9331 50.534 81.9121C50.6429 80.9081 50.9291 80.0476 51.3927 79.3306C51.861 78.6099 52.4633 78.0751 53.1999 77.7264C53.9368 77.3734 54.7713 77.2475 55.7034 77.3486C56.305 77.4139 56.8621 77.5729 57.3747 77.8257C57.8921 78.0748 58.3344 78.4228 58.7017 78.8699C59.0732 79.3174 59.3438 79.8654 59.5134 80.5139C59.6836 81.1582 59.7222 81.9082 59.6294 82.7639L59.5528 83.4693L51.5522 82.6013L51.7204 81.0507L57.516 81.6795C57.5595 81.2385 57.5067 80.8362 57.3576 80.4729C57.2088 80.1052 56.9779 79.8037 56.6649 79.5683C56.356 79.3333 55.9813 79.1919 55.5407 79.1441C55.0705 79.0931 54.645 79.1627 54.2643 79.3528C53.8841 79.5388 53.5744 79.8052 53.3353 80.1522C53.1009 80.4954 52.9579 80.8849 52.9063 81.3208L52.7595 82.6744C52.6979 83.2421 52.7488 83.7405 52.9123 84.1698C53.0762 84.5948 53.3328 84.9355 53.6822 85.192C54.032 85.4443 54.4569 85.5976 54.9568 85.6518C55.2915 85.6881 55.5995 85.6744 55.8807 85.6106C56.1624 85.5426 56.4129 85.4261 56.6323 85.2613C56.8516 85.0965 57.0271 84.882 57.1586 84.6176L59.2803 85.0922C59.0832 85.6451 58.771 86.1128 58.3437 86.495C57.9211 86.8736 57.4028 87.1474 56.7886 87.3165C56.1749 87.4814 55.4889 87.5227 54.7306 87.4404ZM75.9029 87.6351L75.2041 92.2978L73.0371 92.0627L73.3405 89.2666L72.1903 89.1418L72.3951 87.2545L75.9029 87.6351ZM62.0968 78.1709L64.3146 78.4115L63.461 86.2787L66.5303 86.6117L67.3839 78.7446L69.6017 78.9852L68.7481 86.8524L71.8175 87.1854L72.6711 79.3182L74.8889 79.5588L73.8298 89.3197L61.0377 87.9318L62.0968 78.1709ZM81.7129 90.3679C80.7342 90.2617 79.9111 89.9667 79.2435 89.4827C78.5806 88.995 78.0992 88.3556 77.7993 87.5644C77.4998 86.7689 77.4054 85.8607 77.5162 84.8397C77.6252 83.8356 77.9114 82.9751 78.375 82.2581C78.8432 81.5374 79.4456 81.0027 80.1821 80.6539C80.9191 80.301 81.7536 80.175 82.6856 80.2762C83.2872 80.3414 83.8443 80.5005 84.357 80.7533C84.8744 81.0023 85.3167 81.3503 85.6839 81.7974C86.0554 82.2449 86.326 82.7929 86.4957 83.4414C86.6659 84.0857 86.7045 84.8357 86.6116 85.6915L86.5351 86.3968L78.5345 85.5288L78.7027 83.9782L84.4982 84.607C84.5418 84.166 84.489 83.7638 84.3398 83.4004C84.1911 83.0328 83.9602 82.7312 83.6471 82.4958C83.3383 82.2608 82.9636 82.1195 82.523 82.0717C82.0527 82.0206 81.6273 82.0902 81.2466 82.2804C80.8663 82.4663 80.5567 82.7327 80.3176 83.0797C80.0832 83.4229 79.9402 83.8125 79.8886 84.2484L79.7417 85.6019C79.6801 86.1696 79.7311 86.6681 79.8945 87.0973C80.0585 87.5223 80.3151 87.863 80.6645 88.1195C81.0143 88.3718 81.4392 88.5251 81.9391 88.5793C82.2738 88.6156 82.5817 88.6019 82.863 88.5381C83.1447 88.4701 83.3952 88.3537 83.6145 88.1889C83.8339 88.0241 84.0093 87.8095 84.1409 87.5452L86.2626 88.0197C86.0654 88.5727 85.7532 89.0403 85.326 89.4226C84.9034 89.8011 84.3851 90.0749 83.7709 90.244C83.1572 90.4089 82.4712 90.4502 81.7129 90.3679ZM80.8641 78.754C80.5294 78.7177 80.252 78.5676 80.0321 78.3037C79.8163 78.0403 79.7259 77.7476 79.7609 77.4256C79.7976 77.0867 79.9492 76.8159 80.2155 76.6134C80.4865 76.407 80.7893 76.322 81.124 76.3583C81.4671 76.3955 81.7426 76.5433 81.9503 76.8016C82.1627 77.0561 82.2506 77.3528 82.2138 77.6917C82.1789 78.0137 82.0299 78.2804 81.7669 78.4919C81.5082 78.7039 81.2072 78.7913 80.8641 78.754ZM84.6769 79.1677C84.3422 79.1314 84.0649 78.9813 83.8449 78.7174C83.6292 78.454 83.5388 78.1613 83.5737 77.8393C83.6105 77.5004 83.762 77.2296 84.0283 77.027C84.2993 76.8207 84.6022 76.7357 84.9368 76.772C85.28 76.8092 85.5554 76.957 85.7632 77.2153C85.9756 77.4698 86.0634 77.7665 86.0266 78.1054C85.9917 78.4274 85.8428 78.6941 85.5798 78.9056C85.321 79.1176 85.0201 79.205 84.6769 79.1677Z" fill="white"/>
</svg>
