<svg width="48" height="48" viewBox="0 0 48 48" fill="none" xmlns="http://www.w3.org/2000/svg">
<rect x="0.5" y="0.5" width="47" height="47" rx="5.5" fill="white" stroke="#B7B7B7"/>
<path d="M23.5958 6C20.7092 5.99924 17.8873 6.85464 15.4869 8.45798C13.0866 10.0613 11.2157 12.3405 10.111 15.0073C9.00622 17.6742 8.71725 20.6087 9.28059 23.4398C9.84394 26.2709 11.2343 28.8713 13.2758 30.912C15.9158 33.552 22.1366 37.3728 22.5014 41.3856C22.559 41.9904 22.991 42.48 23.5958 42.48C24.2006 42.48 24.6326 41.9904 24.6902 41.3856C25.055 37.3728 31.2758 33.552 33.9158 30.912C35.9573 28.8713 37.3477 26.2709 37.911 23.4398C38.4744 20.6087 38.1854 17.6742 37.0806 15.0073C35.9759 12.3405 34.1051 10.0613 31.7047 8.45798C29.3043 6.85464 26.4824 5.99924 23.5958 6Z" fill="#FF4433"/>
<path d="M23.5955 25.6998C24.95 25.6998 26.249 25.1617 27.2068 24.2038C28.1646 23.2461 28.7027 21.9471 28.7027 20.5926C28.7027 19.238 28.1646 17.939 27.2068 16.9813C26.249 16.0234 24.95 15.4854 23.5955 15.4854C22.2409 15.4854 20.9419 16.0234 19.9841 16.9813C19.0264 17.939 18.4883 19.238 18.4883 20.5926C18.4883 21.9471 19.0264 23.2461 19.9841 24.2038C20.9419 25.1617 22.2409 25.6998 23.5955 25.6998Z" fill="white"/>
</svg>
